<svg width="30" height="31" viewBox="0 0 30 31" fill="none" xmlns="http://www.w3.org/2000/svg">
<circle cx="15" cy="15.5212" r="14.5" fill="white" stroke="#061EC9"/>
<g clip-path="url(#clip0_184_2005)">
<path d="M11.0258 6.81214C10.7055 6.92151 10.1195 7.34339 9.7289 7.74182C9.43984 8.03089 9.33046 8.17151 9.20546 8.40589C8.78359 9.21839 8.72109 10.3356 8.95546 12.609C9.15078 14.5309 9.73671 16.2731 10.8461 18.2731C11.7133 19.8199 12.5492 20.9528 13.5961 21.9996C14.2523 22.6559 14.5883 22.9293 15.4945 23.5621C18.0414 25.3434 18.9633 25.5543 20.6352 24.734C20.9008 24.6012 21.1117 24.4684 21.2211 24.3668C21.4086 24.1871 22.018 23.1403 22.0883 22.8903C22.1352 22.7184 22.1039 22.4996 22.018 22.3512C21.9242 22.2028 19.0805 19.0856 18.9086 18.9528C18.7289 18.8043 18.4789 18.7653 18.2758 18.8356C17.9867 18.9449 17.0023 19.5231 16.7133 19.7574C16.3227 20.0778 16.3227 20.0778 16.1742 19.9918C15.8617 19.7965 15.4008 19.1246 14.5492 17.6403C14.2367 17.0934 13.7836 16.3121 13.5414 15.9059C12.7523 14.5543 12.3617 13.7106 12.3617 13.3356V13.1949L12.643 13.0856C13.3148 12.8356 14.3227 12.2496 14.4867 12.0074C14.6898 11.7106 14.6977 11.7496 13.9398 9.33557C13.1977 7.00745 13.1898 6.99182 12.9008 6.84339C12.7758 6.77307 12.6898 6.76526 11.9789 6.75745C11.3148 6.74964 11.182 6.75745 11.0258 6.81214ZM12.9242 9.60901C13.2367 10.5934 13.4945 11.4137 13.4945 11.4371C13.4945 11.4918 12.643 11.9762 12.4164 12.0543C12.1195 12.1481 11.7992 12.3043 11.6508 12.4371C11.5805 12.4996 11.4711 12.6403 11.4164 12.7574C11.3227 12.9449 11.3148 12.9996 11.3148 13.3434C11.3148 13.6403 11.3383 13.7809 11.4008 13.9918C11.5805 14.5543 11.9477 15.2887 12.807 16.7418C13.0492 17.1481 13.4477 17.8434 13.7055 18.2965C14.6742 20.0074 15.2211 20.7028 15.8227 20.9996C15.9867 21.0778 16.0727 21.1012 16.307 21.1012C16.557 21.1012 16.6195 21.0856 16.7914 20.9996C16.893 20.9449 17.1117 20.7809 17.2758 20.6559C17.5102 20.4606 18.2367 20.0074 18.3852 19.9606C18.4008 19.9528 18.9477 20.5387 19.6039 21.2496C20.2602 21.9684 20.8383 22.6012 20.893 22.6637L20.9945 22.7731L20.7523 23.2106L20.5102 23.6481L20.1508 23.8278C19.682 24.0621 19.4555 24.1324 19.1195 24.1637C18.5023 24.2106 17.8695 23.9293 16.5727 23.0621C14.9867 21.9762 14.1195 21.1871 13.1898 19.9606C11.5102 17.7496 10.2992 15.0778 10.0336 12.9528C9.86171 11.6246 9.81484 9.92932 9.93203 9.42932C10.0727 8.83557 10.3461 8.46057 10.9555 8.05432L11.3383 7.80432L11.8461 7.81214L12.3539 7.81995L12.9242 9.60901Z" fill="#061EC9"/>
</g>
<defs>
<clipPath id="clip0_184_2005">
<rect width="20" height="20" fill="white" transform="translate(5.45435 5.97607)"/>
</clipPath>
</defs>
</svg>
