<svg width="30" height="31" viewBox="0 0 30 31" fill="none" xmlns="http://www.w3.org/2000/svg">
<path d="M24.7966 5.66602C22.1951 3.06445 18.738 1.62305 15.0584 1.62305C7.4646 1.62305 1.28882 7.79883 1.28882 15.3926C1.28882 17.8184 1.92163 20.1973 3.12866 22.2715L1.17163 29.4199L8.47241 27.498C10.488 28.5879 12.7498 29.1738 15.0466 29.1738C22.6404 29.1738 28.8162 22.998 28.8162 15.4043C28.8279 11.7246 27.3982 8.26758 24.7966 5.66602ZM15.0584 26.8535C12.9959 26.8535 10.9802 26.3027 9.22241 25.2598L8.80054 25.0137L4.4646 26.1504L5.62476 21.9316L5.35523 21.498C4.20679 19.6816 3.59741 17.5723 3.59741 15.4043C3.59741 9.08789 8.73022 3.95508 15.0466 3.95508C18.1052 3.95508 20.9763 5.15039 23.1443 7.30664C25.3005 9.47461 26.4959 12.3457 26.4959 15.4043C26.4959 21.7207 21.363 26.8535 15.0584 26.8535ZM21.3279 18.2754C20.988 18.0996 19.2888 17.2676 18.9724 17.1621C18.656 17.0449 18.4334 16.9863 18.199 17.3379C17.9646 17.6777 17.3084 18.4512 17.1091 18.6855C16.9099 18.9199 16.7107 18.9434 16.3709 18.7676C16.031 18.5918 14.9177 18.2285 13.6052 17.0566C12.5857 16.1426 11.8943 15.0176 11.6833 14.666C11.4841 14.3262 11.6599 14.1387 11.8357 13.9629C11.988 13.8105 12.1755 13.5645 12.3513 13.3535C12.5271 13.1543 12.5857 13.0137 12.6912 12.7793C12.8084 12.5449 12.7498 12.3457 12.6677 12.1699C12.5857 11.9941 11.8943 10.3066 11.613 9.61523C11.3318 8.93555 11.0505 9.0293 10.8396 9.01758C10.6404 9.00586 10.406 9.00586 10.1834 9.00586C9.96069 9.00586 9.57397 9.08789 9.26929 9.43945C8.95288 9.7793 8.06226 10.6113 8.06226 12.3105C8.06226 13.998 9.29273 15.6387 9.46851 15.873C9.64429 16.1074 11.8943 19.5762 15.3513 21.0645C16.1716 21.416 16.8162 21.627 17.3083 21.791C18.1287 22.0488 18.8787 22.0137 19.4763 21.9316C20.1443 21.8379 21.5154 21.0996 21.7966 20.3027C22.0896 19.4941 22.0896 18.8145 21.9959 18.6738C21.9138 18.5332 21.6794 18.4512 21.3279 18.2754Z" fill="#25D366"/>
</svg>
