<svg width="594" height="414" viewBox="0 0 594 414" fill="none" xmlns="http://www.w3.org/2000/svg">
<g opacity="0.15">
<path d="M56.712 413.093H524.917V412.634L566.737 413.093C585.522 394.767 593.997 357.911 593.714 321.345C593.513 295.469 588.929 269.742 580.509 250.827C578.711 246.788 576.738 243.059 574.595 239.707C530.315 170.406 513.628 183.706 490.441 159.308C467.257 134.912 491.745 45.2796 425.758 10.9235C359.77 -23.4325 270.597 35.3217 234.482 55.2374C198.367 75.153 182.604 54.6191 160.469 54.2423C106.129 53.3149 65.3734 67.8567 31.4863 134.079C-2.39831 200.301 -9.55468 326.661 14.7425 377.974C26.2319 402.235 56.712 413.093 56.712 413.093Z" fill="#FFECD9"/>
<path d="M55.5066 211.733L56.7474 215.821L62.8288 215.079C64.1167 217.322 65.7363 219.297 67.6041 220.953L65.7807 226.928L69.486 228.922L73.191 230.916L76.9781 225.996C79.3707 226.634 81.8795 226.881 84.4175 226.696L87.2621 232.241L91.2613 230.972L95.2605 229.704L94.5354 223.487C96.7298 222.17 98.6612 220.515 100.281 218.605L106.127 220.469L108.077 216.682L110.027 212.894L105.215 209.023C105.838 206.577 106.08 204.013 105.899 201.418L111.323 198.51L110.082 194.422L108.841 190.334L102.76 191.075C101.472 188.832 99.8527 186.858 97.9848 185.202L99.8085 179.226L96.1032 177.233L92.3982 175.239L88.6111 180.158C86.2185 179.521 83.7096 179.274 81.1715 179.459L78.3269 173.914L74.3277 175.183L70.3285 176.451L71.0536 182.668C68.8592 183.984 66.9277 185.64 65.3081 187.549L59.4623 185.685L57.512 189.473L55.5616 193.26L60.3741 197.132C59.7508 199.578 59.5091 202.142 59.6896 204.737L54.2657 207.645L55.5066 211.733ZM78.1395 187.74C86.4255 185.112 95.2269 189.848 97.7977 198.319C100.369 206.789 95.7356 215.786 87.4494 218.414C79.1635 221.042 70.362 216.306 67.7913 207.836C65.2205 199.366 69.8536 190.368 78.1395 187.74Z" fill="#FD7583"/>
<path d="M158.817 123.222L158.091 129.849L157.365 136.476L166.498 139.299C166.966 143.323 168.071 147.175 169.726 150.73L163.473 158.096L167.543 163.307L171.614 168.517L180.024 163.913C183.049 166.349 186.479 168.304 190.215 169.66L190.888 179.39L197.37 180.132L203.853 180.874L206.615 171.538C210.552 171.06 214.319 169.93 217.797 168.238L225.002 174.63L230.1 170.469L235.197 166.308L230.693 157.711C233.076 154.618 234.988 151.112 236.315 147.293L245.833 146.605L246.559 139.978L247.285 133.351L238.152 130.528C237.684 126.504 236.579 122.652 234.924 119.097L241.177 111.731L237.107 106.52L233.036 101.31L224.626 105.914C221.601 103.478 218.17 101.523 214.435 100.167L213.762 90.4372L207.28 89.6951L200.797 88.9529L198.035 98.2888C194.098 98.7672 190.33 99.8973 186.852 101.589L179.647 95.1966L174.55 99.3578L169.453 103.519L173.957 112.116C171.573 115.209 169.662 118.715 168.334 122.534L158.817 123.222ZM178.005 132.129C179.509 118.398 191.618 108.514 205.049 110.052C218.481 111.59 228.15 123.968 226.646 137.699C225.141 151.429 213.033 161.313 199.601 159.775C186.169 158.237 176.5 145.86 178.005 132.129Z" fill="#FEC786"/>
<path d="M261.548 253.514L212.407 237.086L209.289 238.089L253.452 398.104H300.313L261.548 253.514Z" fill="#0B2A3F"/>
<path opacity="0.1" d="M268.692 278.117L212.569 251.862L217.377 268.984L273.352 295.171L268.692 278.117Z" fill="white"/>
<path opacity="0.1" d="M291.577 368.723L239.635 346.107L244.154 362.948L295.957 385.503L291.577 368.723Z" fill="white"/>
<path opacity="0.1" d="M279.827 324.362L226.8 299.598L229.088 308.104L282.044 332.835L279.827 324.362Z" fill="white"/>
<path opacity="0.1" d="M283.718 339.224L230.813 314.517L231.594 317.416L284.473 342.109L283.718 339.224Z" fill="white"/>
<path d="M259.182 413.092H448.836C451.221 413.092 453.596 412.71 455.845 411.898C456.61 411.622 457.279 411.321 457.643 411.021C461.261 408.038 462.207 405.943 462.29 402.633H464.546C466.147 402.633 467.444 401.306 467.444 399.67C467.444 398.034 466.147 396.707 464.546 396.707H300.815L262.74 253.77C262.512 252.914 261.876 252.234 261.05 251.962L211.595 235.713H207.846C206.23 235.713 205.06 237.287 205.492 238.879L250.253 403.489C251.481 408.009 254.829 411.609 259.182 413.092ZM260.415 253.844L298.639 396.708H255.109L212.407 238.718L260.415 253.844Z" fill="#4D779F"/>
<path d="M279.52 403.904H272.436V405.785H279.52V403.904Z" fill="#1F2B49"/>
<path d="M292.125 403.904H285.04V405.785H292.125V403.904Z" fill="#1F2B49"/>
<path d="M304.73 403.904H297.645V405.785H304.73V403.904Z" fill="#1F2B49"/>
<path d="M417.621 403.904H410.536V405.785H417.621V403.904Z" fill="#1F2B49"/>
<path d="M428.151 406.712C429.007 405.837 429.007 404.418 428.151 403.543C427.295 402.667 425.907 402.667 425.051 403.543C424.195 404.418 424.195 405.837 425.051 406.712C425.907 407.587 427.295 407.587 428.151 406.712Z" fill="#1F2B49"/>
<path d="M428.009 405.127C428.009 404.336 427.381 403.694 426.607 403.694C425.833 403.694 425.205 404.336 425.205 405.127C425.205 405.918 425.833 406.56 426.607 406.56C427.381 406.56 428.009 405.918 428.009 405.127Z" fill="#1D1D1B"/>
<path d="M444.298 406.712C445.154 405.837 445.154 404.418 444.298 403.543C443.442 402.667 442.054 402.667 441.197 403.543C440.341 404.418 440.341 405.837 441.198 406.712C442.054 407.587 443.442 407.587 444.298 406.712Z" fill="#1F2B49"/>
<path d="M444.156 405.127C444.156 404.336 443.528 403.694 442.754 403.694C441.98 403.694 441.352 404.336 441.352 405.127C441.352 405.918 441.98 406.56 442.754 406.56C443.528 406.56 444.156 405.918 444.156 405.127Z" fill="#1D1D1B"/>
<path d="M262.407 405.127C262.407 403.569 261.171 402.305 259.647 402.305C258.122 402.305 256.887 403.568 256.887 405.127C256.887 406.685 258.122 407.948 259.647 407.948C261.171 407.948 262.407 406.685 262.407 405.127Z" fill="#1F2B49"/>
<path d="M260.036 406.879C260.985 406.651 261.573 405.68 261.35 404.71C261.127 403.74 260.177 403.139 259.228 403.367C258.279 403.595 257.691 404.566 257.914 405.536C258.138 406.506 259.088 407.107 260.036 406.879Z" fill="#1D1D1B"/>
<path d="M303.636 396.708L302.182 393.969C301.703 393.068 300.78 392.507 299.777 392.507H297.452H296.826H294.501C293.497 392.507 292.574 393.068 292.096 393.969L290.641 396.708H296.825H297.452H303.636Z" fill="#2F5472"/>
<path d="M324.307 396.708L322.853 393.969C322.374 393.068 321.451 392.507 320.448 392.507H318.123H317.496H315.172C314.168 392.507 313.245 393.068 312.766 393.969L311.312 396.708H317.496H318.123H324.307Z" fill="#2F5472"/>
<path d="M334.377 396.708H340.561L339.107 393.969C338.628 393.068 337.705 392.507 336.702 392.507H334.377H333.751H331.426C330.422 392.507 329.5 393.068 329.021 393.969L327.566 396.708H333.75H334.377Z" fill="#2F5472"/>
<path d="M356.816 396.708L355.361 393.969C354.883 393.068 353.96 392.507 352.956 392.507H350.632H350.005H347.68C346.677 392.507 345.754 393.068 345.275 393.969L343.821 396.708H350.005H350.631H356.816Z" fill="#2F5472"/>
<path d="M373.07 396.708L371.616 393.969C371.137 393.068 370.214 392.507 369.21 392.507H366.886H366.259H363.935C362.931 392.507 362.008 393.068 361.529 393.969L360.075 396.708H366.259H366.885H373.07Z" fill="#2F5472"/>
<path d="M389.324 396.708L387.87 393.969C387.391 393.068 386.468 392.507 385.465 392.507H383.14H382.514H380.189C379.186 392.507 378.263 393.068 377.784 393.969L376.33 396.708H382.514H383.14H389.324Z" fill="#2F5472"/>
<path d="M405.578 396.708L404.124 393.969C403.646 393.068 402.723 392.507 401.719 392.507H399.394H398.768H396.443C395.44 392.507 394.517 393.068 394.038 393.969L392.584 396.708H398.768H399.394H405.578Z" fill="#2F5472"/>
<path d="M91.1032 115.585L87.0615 115.193L86.3033 117.922L85.5452 120.652L89.185 122.49C89.1061 124.212 89.3067 125.908 89.7579 127.518L86.6296 130.162L87.9815 132.64L89.3334 135.118L93.1781 133.787C94.2812 135.026 95.5872 136.092 97.062 136.928L96.6788 141.06L99.3488 141.835L102.019 142.61L103.817 138.889C105.502 138.97 107.161 138.765 108.736 138.304L111.323 141.502L113.747 140.12L116.171 138.738L114.869 134.808C116.081 133.68 117.123 132.345 117.941 130.837L121.983 131.229L122.741 128.5L123.499 125.77L119.859 123.932C119.938 122.21 119.738 120.514 119.287 118.904L122.415 116.259L121.063 113.781L119.711 111.303L115.867 112.634C114.763 111.395 113.457 110.33 111.983 109.494L112.366 105.362L109.696 104.587L107.026 103.812L105.228 107.533C103.543 107.452 101.884 107.657 100.309 108.118L97.7221 104.92L95.298 106.302L92.874 107.684L94.176 111.614C92.9638 112.742 91.9216 114.077 91.1032 115.585ZM94.5054 120.303C96.0763 114.648 101.834 111.365 107.367 112.971C112.899 114.577 116.11 120.463 114.539 126.118C112.968 131.774 107.21 135.056 101.678 133.45C96.1455 131.845 92.9345 125.959 94.5054 120.303Z" fill="#7FC6A6"/>
<path d="M580.009 412.126H39.0221V413.592H580.009V412.126Z" fill="#0B2A3F"/>
<path opacity="0.5" d="M289.467 274.278C289.467 274.278 293.758 296.721 318.778 292.041C318.778 292.041 321.323 315.152 337.602 317.006C353.88 318.861 358.301 310.956 358.301 310.956C358.301 310.956 376.412 333.829 394.76 315.481C413.109 297.133 392.63 279.84 392.63 279.84C392.63 279.84 410.263 274.083 408.879 260.315C407.496 246.547 394.958 241.392 394.958 241.392L417.967 159.235L396.617 148.818L358.255 209.466C358.255 209.466 342.796 198.83 327.254 207.361C311.713 215.892 314.852 240.48 314.852 240.48C314.852 240.48 282.922 244.945 289.467 274.278Z" fill="white"/>
<path d="M405.71 214.349L392.291 196.166L370.258 192.78C370.258 192.78 331.521 209.03 348.484 271.41C410.21 256.905 405.71 214.349 405.71 214.349Z" fill="#F4AA5B"/>
<path d="M397.961 214.177L388.93 201.94L374.101 199.661C374.101 199.661 348.03 210.598 359.447 252.58C400.99 242.818 397.961 214.177 397.961 214.177Z" fill="#FEC786"/>
<path opacity="0.5" d="M392.291 196.167L384.951 196.89C384.951 196.89 369.853 208.328 369.602 235.139C392.535 222.128 395.17 203.107 395.17 203.107L392.291 196.167Z" fill="white"/>
<path d="M448.372 260.978C456.242 253.898 461.623 244.549 463.815 234.059C466.5 221.206 468.278 202.677 463.269 182.97C454.016 146.566 421.949 214.21 421.949 214.21C421.949 214.21 452.734 228.353 448.372 260.978Z" fill="#E54C63"/>
<path d="M362.634 178.123C362.634 178.123 405.506 117.052 369.791 126.098C350.458 130.995 335.373 141.429 325.602 149.97C317.628 156.941 312.155 166.235 309.821 176.683C335.793 157.206 362.634 178.123 362.634 178.123Z" fill="#E54C63"/>
<path d="M413.66 225.654C413.66 225.654 449.52 211.57 479.522 154.625C509.524 97.6793 499.125 55.9466 492.182 24.554C461.879 33.2858 421.071 43.8641 386.414 97.9769C351.756 152.09 356.747 191.027 356.747 191.027L385.204 208.341L413.66 225.654Z" fill="#FD7583"/>
<path d="M379.096 218.831L416.53 154.534C416.53 154.534 378.022 182.148 379.096 218.831Z" fill="#E54C63"/>
<path d="M479.522 154.625C509.454 97.8106 499.173 56.1404 492.231 24.7727L385.316 208.409L413.66 225.654C413.66 225.654 449.52 211.57 479.522 154.625Z" fill="#FD7583"/>
<path d="M492.182 24.554C471.578 30.4907 446.119 37.2868 421.037 58.0345C432.102 70.5737 457.032 93.8819 497.205 105.249C503.321 72.4474 496.941 46.0711 492.182 24.554Z" fill="#E54C63"/>
<path d="M492.231 24.7727L455.919 87.1408C467.258 94.1267 480.989 100.661 497.204 105.249C503.3 72.5582 496.984 46.25 492.231 24.7727Z" fill="#E54C63"/>
<path d="M379.097 218.83C411.15 202.302 416.53 154.534 416.53 154.534L379.097 218.83Z" fill="#E54C63"/>
<path d="M433.595 146.377C443.22 147.665 453.058 143.219 458.277 134.256C465.305 122.184 461.291 106.489 449.311 99.1998C437.33 91.911 421.921 95.7884 414.892 107.86C407.864 119.933 411.878 135.628 423.859 142.917C426.944 144.794 430.257 145.93 433.595 146.377Z" fill="#E54C63"/>
<path d="M454.539 132.066C460.469 121.882 457.083 108.641 446.977 102.492C436.87 96.342 423.871 99.6122 417.941 109.796C412.011 119.979 415.396 133.22 425.503 139.37C435.609 145.519 448.609 142.249 454.539 132.066Z" fill="#C5DDF9"/>
<path d="M362.802 52.1429C361.6 52.9817 362.248 54.909 363.701 54.8238C367.838 54.5815 377.537 54.1589 385.968 54.8858C389.456 55.1865 392.468 52.338 392.389 48.7607C392.357 47.2963 391.844 45.5929 390.514 43.6627C385.395 36.2307 376.496 43.3282 376.582 47.1009C376.582 47.1009 374.783 41.4202 369.319 42.4148C363.855 43.4093 365.787 51.671 365.787 51.671C365.787 51.671 364.024 51.2901 362.802 52.1429Z" fill="white"/>
<path d="M295.274 81.8954C294.639 82.7835 294.542 83.8488 294.814 84.7801H359.455C360.67 83.2975 360.908 80.8559 359.495 79.0339C354.773 72.9479 344.944 78.0181 344.944 78.0181C339.965 65.4999 330.832 75.7746 330.832 75.7746C330.832 75.7746 329.999 56.407 313.886 58.3887C298.205 60.3169 302.252 78.6924 302.252 78.6924C298.51 78.9274 296.422 80.2898 295.274 81.8954Z" fill="white"/>
<path d="M519.282 399.653L519.121 409.317L527.201 409.431L527.329 400.782L519.282 399.653Z" fill="#FE9F73"/>
<path d="M552.726 396.933L544.459 397.576L546.327 407.056L554.414 405.414L552.726 396.933Z" fill="#FE9F73"/>
<path d="M519.356 402.815C521.926 403.606 524.245 403.807 525.912 403.811C527.419 403.815 528.686 402.678 528.867 401.171C531.623 378.313 532.933 343.375 533.234 334.444C533.278 333.164 532.511 332 531.325 331.541L520.21 327.238C518.436 326.551 516.486 327.692 516.197 329.585L516.144 329.929C516.119 330.096 516.108 330.265 516.11 330.434L517.231 399.986C517.252 401.295 518.114 402.433 519.356 402.815Z" fill="#33192C"/>
<path d="M541.901 400.438C542.142 401.48 543.007 402.256 544.061 402.381C547.169 402.748 549.828 402.384 551.552 401.998C552.771 401.725 553.609 400.602 553.524 399.347C552.886 389.882 548.942 378.598 547.562 367.732C545.077 348.162 544.927 330.417 544.927 330.417L522.356 323.741L527.985 340.208L533.236 370.489L541.901 400.438Z" fill="#49263E"/>
<path d="M541.465 399.389C541.482 399.446 541.533 399.482 541.588 399.482C541.6 399.482 541.612 399.48 541.624 399.477C541.691 399.457 541.73 399.386 541.71 399.318L533.361 370.46L529.446 347.887C529.434 347.817 529.368 347.771 529.299 347.782C529.229 347.795 529.183 347.861 529.195 347.931L533.112 370.518L533.114 370.525L541.465 399.389Z" fill="black"/>
<path d="M547.086 364.885L547.093 364.884C547.1 364.928 547.109 364.984 547.12 365.052C547.859 369.565 549.241 377.759 550.197 381.933C550.211 381.992 550.263 382.033 550.322 382.033C550.331 382.033 550.341 382.032 550.35 382.029C550.419 382.013 550.462 381.944 550.446 381.875C549.492 377.707 548.111 369.519 547.373 365.01C547.351 364.879 547.337 364.79 547.322 364.73C547.322 364.73 547.322 364.729 547.322 364.729C547.322 364.67 547.315 364.587 547.305 364.468L545.389 341.034C545.384 340.963 545.322 340.909 545.251 340.917C545.181 340.922 545.129 340.985 545.134 341.056C545.154 341.29 547.051 364.468 547.071 364.751C547.071 364.753 547.072 364.756 547.072 364.759L547.086 364.885Z" fill="black"/>
<path d="M517.193 397.756C517.193 397.756 517.194 397.756 517.195 397.756C517.265 397.754 517.322 397.696 517.32 397.625L516.412 341.248C516.411 341.177 516.357 341.118 516.282 341.122C516.212 341.123 516.155 341.181 516.157 341.253L517.065 397.629C517.066 397.699 517.123 397.756 517.193 397.756Z" fill="black"/>
<path d="M527.487 412.089C527.608 412.089 527.706 411.99 527.706 411.868V410.786C527.706 410.608 527.563 410.464 527.386 410.464H520.3L517.427 407.31L512.173 410.464H511.041C510.651 410.464 510.294 410.729 510.22 411.115C510.122 411.635 510.514 412.089 511.011 412.089L527.487 412.089Z" fill="#EF3A4C"/>
<path d="M524.313 406.749C524.313 406.749 521.565 408.714 519.142 406.336L513.126 409.026C513.126 409.026 511.477 409.581 511.03 410.473H527.324V407.542C527.324 407.542 526.13 405.923 524.313 406.749Z" fill="#49263E"/>
<path d="M527.384 407.542H527.263V410.459H527.384V407.542Z" fill="black"/>
<path d="M524.279 406.699C522.929 407.636 521.509 407.435 521.495 407.433L521.477 407.553C521.481 407.554 521.62 407.574 521.85 407.574C522.377 407.574 523.38 407.471 524.348 406.8L524.279 406.699Z" fill="black"/>
<path d="M526.56 409.302L525.792 409.825L525.859 409.926L526.628 409.403L526.56 409.302Z" fill="black"/>
<path d="M526.009 409.155L525.241 409.677L525.308 409.778L526.077 409.256L526.009 409.155Z" fill="black"/>
<path d="M527.767 411.687V410.877C527.767 410.619 527.558 410.409 527.302 410.409H511.011C510.533 410.409 510.145 410.8 510.145 411.282C510.145 411.539 510.256 411.782 510.451 411.948L510.529 411.856C510.361 411.713 510.265 411.503 510.265 411.282C510.265 410.868 510.6 410.53 511.011 410.53H527.302C527.492 410.53 527.646 410.686 527.646 410.877V411.688L527.767 411.687Z" fill="black"/>
<path d="M512.579 409.316C513.79 408.795 519.113 406.416 519.167 406.392L519.118 406.281C519.064 406.305 513.742 408.684 512.532 409.204C511.3 409.733 510.97 410.415 510.957 410.444L511.066 410.496C511.069 410.489 511.394 409.825 512.579 409.316Z" fill="black"/>
<path d="M539.51 412.058L555.343 407.466C555.46 407.432 555.527 407.31 555.493 407.192L555.196 406.153C555.147 405.982 554.97 405.883 554.8 405.932L547.991 407.907L544.364 405.677L540.18 410.173L539.093 410.488C538.718 410.597 538.448 410.952 538.483 411.343C538.53 411.87 539.032 412.197 539.51 412.058Z" fill="#EF3A4C"/>
<path d="M550.827 403.219C550.827 403.219 548.726 405.873 545.745 404.263L540.702 408.525C540.702 408.525 539.269 409.518 539.084 410.5L554.742 405.958L553.938 403.141C553.938 403.141 552.347 401.918 550.827 403.219Z" fill="#49263E"/>
<path d="M553.996 403.124L553.88 403.158L554.68 405.961L554.796 405.927L553.996 403.124Z" fill="black"/>
<path d="M550.874 403.257L550.781 403.18C549.74 404.457 548.32 404.659 548.306 404.662L548.322 404.782C548.327 404.782 548.465 404.762 548.687 404.698C549.192 404.551 550.128 404.172 550.874 403.257Z" fill="black"/>
<path d="M553.688 405.046L553.092 405.762L553.185 405.84L553.78 405.124L553.688 405.046Z" fill="black"/>
<path d="M553.118 405.058L552.523 405.774L552.615 405.852L553.21 405.136L553.118 405.058Z" fill="black"/>
<path d="M539.082 410.56L554.737 406.019C554.92 405.966 555.111 406.073 555.163 406.256L555.386 407.035L555.502 407.002L555.279 406.223C555.208 405.975 554.95 405.831 554.704 405.902L539.049 410.443C538.59 410.577 538.324 411.062 538.456 411.524C538.527 411.772 538.701 411.974 538.933 412.079L538.983 411.969C538.782 411.878 538.633 411.703 538.572 411.491C538.458 411.092 538.687 410.675 539.082 410.56Z" fill="black"/>
<path d="M540.255 408.956C541.276 408.119 545.739 404.348 545.784 404.31L545.706 404.217C545.661 404.255 541.2 408.025 540.179 408.862C539.141 409.714 539.011 410.461 539.006 410.492L539.125 410.511C539.126 410.504 539.257 409.776 540.255 408.956Z" fill="black"/>
<path d="M524.07 287.756L519.331 277.153L515.793 260.153L509.438 260.611C509.438 260.611 511.573 282.194 512.369 284.543C512.721 285.582 516.675 292.312 516.675 292.312L524.07 287.756Z" fill="#FE9F73"/>
<path d="M510.459 255.535C510.396 255.541 510.336 255.505 510.31 255.446L509.479 253.558C509.345 253.255 509.005 253.093 508.7 253.209C508.366 253.337 508.212 253.724 508.356 254.051L508.47 254.312C508.927 255.348 509.195 256.461 509.261 257.596L509.492 261.529C510.466 261.452 511.018 261.385 514.572 260.762C514.933 260.813 515.371 260.77 515.512 260.597L517.652 257.222C517.868 256.956 517.832 256.562 517.572 256.342C517.312 256.122 516.927 256.159 516.711 256.425L515.35 257.576C515.276 256.806 515.194 251.87 515.194 251.87C515.207 251.511 514.922 251.212 514.565 251.223C514.24 251.232 513.984 251.513 513.972 251.845L513.856 255.076C513.854 255.152 513.796 255.215 513.722 255.222L513.563 255.237C513.482 255.245 513.409 255.184 513.402 255.1L513.083 251.636C513.051 251.279 512.73 251.02 512.377 251.077C512.056 251.13 511.838 251.443 511.869 251.774L512.185 255.217C512.192 255.3 512.133 255.374 512.051 255.382L512.001 255.387C511.931 255.394 511.865 255.349 511.845 255.279L510.973 252.291C510.875 251.956 510.516 251.708 510.175 251.741C509.834 251.773 509.635 252.075 509.732 252.411L510.587 255.34C510.614 255.432 510.552 255.526 510.459 255.535Z" fill="#FE9F73"/>
<path d="M565.632 266.71L559.474 265.042L552.878 281.06L546.276 290.566L552.704 296.46C552.704 296.46 557.823 290.608 558.36 289.655C559.573 287.5 565.632 266.71 565.632 266.71Z" fill="#FE9F73"/>
<path d="M562.319 256.506C561.971 256.427 561.636 256.666 561.582 257.021C561.582 257.021 560.596 261.854 560.382 262.596L559.256 261.204C559.094 260.902 558.722 260.791 558.426 260.958C558.131 261.124 558.023 261.504 558.186 261.806L559.668 265.532C559.775 265.729 560.197 265.855 560.561 265.874C563.938 267.168 564.468 267.339 565.41 267.602L566.359 263.784C566.632 262.682 567.1 261.64 567.739 260.709L567.899 260.475C568.1 260.182 568.02 259.772 567.715 259.582C567.437 259.409 567.073 259.503 566.886 259.775L565.723 261.47C565.687 261.523 565.622 261.547 565.561 261.529C565.471 261.502 565.427 261.398 565.47 261.313L566.848 258.6C567.006 258.289 566.866 257.955 566.537 257.857C566.208 257.759 565.809 257.934 565.651 258.245L564.247 261.012C564.214 261.076 564.141 261.108 564.073 261.088L564.025 261.074C563.947 261.05 563.901 260.966 563.924 260.885L564.867 257.564C564.957 257.245 564.801 256.896 564.495 256.783C564.159 256.659 563.797 256.851 563.699 257.196L562.75 260.538C562.727 260.618 562.645 260.664 562.566 260.641L562.413 260.596C562.342 260.574 562.297 260.502 562.308 260.427L562.787 257.231C562.837 256.902 562.637 256.577 562.319 256.506Z" fill="#FE9F73"/>
<path d="M532.526 292.316C532.924 292.645 533.426 292.97 534.042 293.215C535.996 293.995 537.627 292.92 538.076 292.236C538.525 291.552 539.403 287.778 539.403 287.778L540.134 286.044L542.515 279.142L534.814 278.178L532.557 284.086C532.557 284.086 531.712 286.051 533.327 286.983L531.393 290.723C530.896 291.666 531.71 291.644 532.526 292.316Z" fill="#FE9F73"/>
<path d="M536.544 281.868C537.736 281.484 538.329 282.905 538.354 282.966C538.363 282.99 538.381 283.007 538.403 283.015C538.423 283.023 538.446 283.024 538.468 283.015C538.512 282.996 538.533 282.944 538.515 282.898C538.508 282.881 537.836 281.264 536.491 281.698C536.445 281.713 536.419 281.763 536.434 281.81C536.449 281.857 536.498 281.883 536.544 281.868Z" fill="#49263E"/>
<path d="M534.21 280.423C534.724 280.24 535.187 281.126 535.192 281.135C535.202 281.155 535.219 281.169 535.238 281.176C535.26 281.185 535.287 281.185 535.31 281.172C535.353 281.149 535.369 281.095 535.347 281.052C535.325 281.009 534.808 280.021 534.153 280.255C534.107 280.271 534.083 280.322 534.099 280.369C534.115 280.415 534.165 280.44 534.21 280.423Z" fill="#49263E"/>
<path d="M537.116 282.889C537.169 282.752 537.102 282.596 536.968 282.542C536.833 282.489 536.681 282.557 536.628 282.695C536.575 282.832 536.642 282.988 536.777 283.042C536.912 283.095 537.064 283.027 537.116 282.889Z" fill="black"/>
<path d="M534.616 281.604C534.668 281.466 534.602 281.31 534.467 281.256C534.332 281.203 534.18 281.271 534.127 281.409C534.075 281.547 534.141 281.702 534.276 281.756C534.411 281.81 534.563 281.741 534.616 281.604Z" fill="black"/>
<path d="M540.045 280.808L542.162 279.379C542.162 279.379 542.404 279.128 542.729 278.732C543.053 278.336 542.149 276.646 541.264 275.526C540.378 274.405 539.15 275.44 538.342 274.606C536.861 273.079 535.028 273.471 534.539 273.829C533.548 274.553 532.54 275.226 533.915 278.012C535.29 280.799 540.045 280.808 540.045 280.808Z" fill="#33192C"/>
<path d="M542.644 284.52C542.873 283.976 543.948 283.289 544.13 281.231C544.312 279.172 542.397 278.514 542.397 278.514L542.393 279.127L540.57 281.217L538.914 287.631C541.361 288.928 542.415 285.065 542.644 284.52Z" fill="#33192C"/>
<path d="M541.609 284.583C541.925 283.756 541.525 282.823 540.716 282.5C539.906 282.177 538.994 282.586 538.678 283.413C538.362 284.24 538.762 285.173 539.571 285.496C540.381 285.819 541.293 285.41 541.609 284.583Z" fill="#FE9F73"/>
<path d="M541.008 283.631C541.027 283.647 541.054 283.644 541.07 283.625C541.085 283.606 541.083 283.578 541.064 283.562C541.05 283.55 540.72 283.274 540.331 283.325C540.107 283.355 539.911 283.489 539.749 283.722L539.658 283.853L539.802 283.789C539.822 283.779 540.303 283.572 540.615 283.998C540.788 284.233 540.707 284.505 540.585 284.666C540.459 284.834 540.213 284.988 539.933 284.876C539.931 284.875 539.928 284.873 539.925 284.872C539.903 284.864 539.878 284.875 539.869 284.897C539.859 284.92 539.87 284.946 539.893 284.956C539.896 284.957 539.898 284.958 539.901 284.959C540.206 285.081 540.498 284.928 540.654 284.721C540.839 284.476 540.851 284.171 540.685 283.944C540.439 283.609 540.094 283.624 539.905 283.665C540.033 283.52 540.18 283.436 540.341 283.414C540.693 283.367 541.005 283.628 541.008 283.631Z" fill="#F07162"/>
<path d="M537.939 286.869C535.768 288.585 533.327 286.984 533.327 286.984L532.341 288.855C536.547 290.166 537.939 286.869 537.939 286.869Z" fill="#F07162"/>
<path d="M538.846 285.977L540.283 282.327L540.57 281.216C540.191 281.415 539.885 281.732 539.695 282.122C539.283 282.97 538.188 285.262 537.933 285.281C537.574 285.308 533.359 282.879 532.633 283.033C532.633 283.033 530.572 286.822 533.117 288.002C536.758 289.69 537.947 287.664 538.846 285.977Z" fill="#33192C"/>
<path d="M535.447 281.436C535.426 281.423 535.399 281.432 535.388 281.453L534.345 283.378L535.111 284.027C535.115 284.03 535.119 284.033 535.123 284.034C535.14 284.041 535.16 284.036 535.173 284.021C535.188 284.002 535.185 283.974 535.167 283.958L534.456 283.357L535.464 281.497C535.476 281.475 535.468 281.448 535.447 281.436Z" fill="#F07162"/>
<path d="M535.446 285.097C535.422 285.082 533.85 284.411 533.85 284.411C533.85 284.411 533.793 285.161 534.377 285.412C534.961 285.664 535.446 285.097 535.446 285.097Z" fill="#FBFDFC"/>
<path d="M539.603 335.554L542.444 332.93C542.494 332.884 542.498 332.805 542.452 332.754C542.407 332.703 542.33 332.699 542.28 332.745L539.439 335.369C539.389 335.415 539.385 335.494 539.43 335.545C539.451 335.57 539.48 335.583 539.509 335.586C539.542 335.589 539.576 335.579 539.603 335.554Z" fill="black"/>
<path d="M539.466 337.029L541.609 335.08C541.66 335.035 541.664 334.956 541.62 334.904C541.575 334.852 541.497 334.847 541.447 334.894L539.303 336.842C539.253 336.887 539.248 336.966 539.293 337.018C539.315 337.043 539.343 337.057 539.373 337.059C539.405 337.063 539.439 337.052 539.466 337.029Z" fill="black"/>
<path d="M516.114 260.421C516.114 260.421 511.113 260.247 509.12 260.984C509.12 260.984 511.409 282.724 512.003 284.354C512.596 285.985 513.541 287.862 513.541 287.862C514.81 290.627 518.699 297.767 518.699 297.767C518.639 299.437 515.756 331.726 515.756 331.726C515.756 331.726 521.031 337.654 545.145 337.758C545.145 337.758 546.177 304.861 546.917 303.308C547.524 302.033 555.062 294.038 557.742 291.216C558.36 290.565 558.82 289.777 559.088 288.912L565.632 267.787C565.632 267.787 560.746 265.404 559.05 265.361L552.513 281.327L542.443 291.053C542.443 291.053 528.222 290.175 527.177 289.668C526.131 289.161 519.463 276.929 519.59 277.103C519.717 277.276 516.114 260.421 516.114 260.421Z" fill="white"/>
<path d="M542.483 291.166L542.517 291.133L552.532 281.46L553.705 282.054C553.758 282.081 553.822 282.059 553.848 282.005C553.875 281.95 553.853 281.885 553.8 281.858L552.493 281.196L552.439 281.248L542.403 290.941L538.02 290.649C537.962 290.645 537.91 290.69 537.906 290.751C537.902 290.811 537.947 290.864 538.006 290.868L542.483 291.166Z" fill="black"/>
<path d="M552.512 281.437C552.554 281.437 552.594 281.412 552.611 281.37L559.15 265.403C559.172 265.347 559.147 265.283 559.092 265.26C559.038 265.236 558.975 265.263 558.952 265.318L552.414 281.285C552.391 281.341 552.417 281.405 552.471 281.428C552.485 281.434 552.499 281.437 552.512 281.437Z" fill="black"/>
<path d="M545.526 326.96C545.584 326.96 545.631 326.914 545.633 326.855C546.009 317.397 547.014 303.456 547.024 303.316C547.029 303.256 546.984 303.203 546.925 303.199C546.863 303.194 546.815 303.24 546.81 303.3C546.8 303.44 545.795 317.385 545.419 326.846C545.416 326.907 545.463 326.958 545.522 326.96C545.523 326.96 545.525 326.96 545.526 326.96Z" fill="black"/>
<path d="M516.427 323.741C516.483 323.741 516.53 323.697 516.534 323.639C517.66 306.292 519.004 296.969 519.018 296.877C519.026 296.817 518.986 296.761 518.927 296.752C518.87 296.743 518.814 296.785 518.805 296.845C518.792 296.937 517.447 306.267 516.32 323.625C516.316 323.685 516.361 323.737 516.42 323.741C516.422 323.742 516.425 323.741 516.427 323.741Z" fill="black"/>
<path d="M518.605 297.822C518.625 297.857 518.661 297.877 518.699 297.877C518.717 297.877 518.735 297.873 518.752 297.863C518.803 297.833 518.821 297.766 518.792 297.713C518.746 297.632 514.247 289.584 513.127 286.75C512.972 286.358 512.831 286.016 512.701 285.701C511.873 283.69 511.529 282.858 511.131 277.826C511.126 277.765 511.074 277.721 511.015 277.725C510.956 277.73 510.912 277.783 510.917 277.843C511.318 282.91 511.689 283.812 512.503 285.786C512.632 286.1 512.773 286.442 512.927 286.832C514.053 289.68 518.56 297.741 518.605 297.822Z" fill="black"/>
<g opacity="0.5">
<path d="M533.69 290.57C533.624 290.815 527.051 315.26 525.489 335.258L525.917 335.293C527.475 315.337 534.037 290.931 534.103 290.687L533.69 290.57Z" fill="#A5EFED"/>
</g>
<path d="M513.686 300.19C514.051 299.965 514.457 299.817 514.878 299.747C521.697 298.598 531.326 300.287 534.518 290.586C534.007 291.298 533.4 291.829 532.823 292.385C523.281 301.602 505.752 291.044 509.705 307.794C510.95 305.422 511.085 301.787 513.686 300.19Z" fill="#33192C"/>
<path d="M534.647 292.034L534.783 290.432L533.691 290.097L532.57 290.858L532.868 292.349L533.615 292.622L534.647 292.034Z" fill="#49263E"/>
<path d="M534.647 292.386L539.232 290.784L538.989 289.444L534.277 289.803L532.377 288.786L531.459 290.168L532.583 291.858L534.094 290.624L534.647 292.386Z" fill="#A5EFED"/>
<path d="M509.153 261.089C511.417 260.352 515.406 260.499 516.026 260.527L519.216 275.677C519.227 275.728 519.272 275.763 519.321 275.763C519.329 275.763 519.336 275.762 519.344 275.761C519.402 275.748 519.439 275.69 519.426 275.63L516.201 260.316L516.12 260.312C516.074 260.309 511.573 260.071 509.088 260.88C509.031 260.898 509 260.96 509.018 261.018C509.036 261.076 509.096 261.108 509.153 261.089Z" fill="black"/>
<path d="M545.927 196.059C558.664 173.03 527.685 154.152 513.665 175.147C500.929 198.175 531.907 217.053 545.927 196.059Z" fill="#7FC6A6"/>
<path d="M540.059 189.116C540.929 187.722 538.908 185.966 537.682 187.555C536.812 188.95 538.833 190.705 540.059 189.116Z" fill="#4C222E"/>
<path d="M524.957 179.327C525.827 177.933 523.806 176.177 522.58 177.766C521.71 179.161 523.731 180.917 524.957 179.327Z" fill="#4C222E"/>
<path d="M535.067 192.923L521.393 185.016C518.807 192.238 529.347 199.58 535.067 192.923Z" fill="white"/>
<path d="M295.125 22.0498C278.276 -7.67654 234.939 14.6903 249.747 46.7751C266.595 76.5014 309.933 54.1349 295.125 22.0498Z" fill="#FEC786"/>
<path d="M261.658 36.2159C260.278 34.0275 257.25 35.9244 258.312 38.0648C259.692 40.2534 262.72 38.3565 261.658 36.2159Z" fill="#4C222E"/>
<path d="M282.899 24.642C281.519 22.4536 278.491 24.3504 279.553 26.4908C280.933 28.6792 283.961 26.7825 282.899 24.642Z" fill="#4C222E"/>
<path d="M286.92 32.353L262.958 45.4093C272.361 57.0087 291.034 45.2965 286.92 32.353Z" fill="white"/>
<path d="M109.476 267.998L102.524 269.224L97.0174 284.273L80.9606 287.323L83.4328 298.97C83.4328 298.97 102.128 295.443 104.694 294.055C107.26 292.667 109.476 267.998 109.476 267.998Z" fill="#7FC6A6"/>
<path d="M68.3788 274.05L76.5741 275.94L76.3028 274.431C76.0254 272.888 74.8278 271.679 73.3101 271.445C70.689 271.042 68.1291 272.771 68.1291 272.771C68.1291 272.771 67.4109 274.468 67.3461 274.662C67.2814 274.857 68.3788 274.05 68.3788 274.05Z" fill="#FE9F73"/>
<path d="M77.4156 280.625L76.2716 274.261L67.8612 273.312L69.0023 281.116L69.43 283.105C69.43 283.105 69.6062 287.283 69.9448 288.101C70.2834 288.919 71.7947 290.398 74.0191 289.98C74.7206 289.848 75.3169 289.61 75.8048 289.345C76.8028 288.803 77.2682 287.599 76.9303 286.497L76.0217 283.532C77.917 282.882 77.4156 280.625 77.4156 280.625Z" fill="#FE9F73"/>
<path d="M71.7444 278.124C71.7659 278.112 71.7829 278.09 71.7895 278.064C71.807 277.995 72.2328 276.386 73.5617 276.615C73.6132 276.624 73.6617 276.589 73.6704 276.536C73.6792 276.484 73.6444 276.434 73.5932 276.425C72.0934 276.167 71.6119 277.997 71.6071 278.016C71.5941 278.067 71.6244 278.12 71.6747 278.133C71.6993 278.14 71.7241 278.136 71.7444 278.124Z" fill="#4C222E"/>
<path d="M75.336 276.115C75.3575 276.119 75.3807 276.115 75.4007 276.103C75.41 276.097 76.3217 275.544 76.695 276.007C76.7281 276.048 76.7876 276.054 76.8275 276.02C76.8677 275.986 76.8734 275.925 76.8401 275.884C76.3635 275.294 75.3464 275.911 75.3034 275.938C75.2588 275.965 75.2446 276.024 75.2713 276.07C75.2862 276.095 75.31 276.11 75.336 276.115Z" fill="#4C222E"/>
<path d="M75.7581 277.504C75.7637 277.501 76.3152 277.166 76.5413 277.446C76.5613 277.471 76.5973 277.475 76.6216 277.454C76.6459 277.433 76.6492 277.397 76.6294 277.372C76.3411 277.015 75.7257 277.388 75.6995 277.404C75.6725 277.421 75.6638 277.456 75.6801 277.484C75.6891 277.499 75.7035 277.509 75.7193 277.511C75.7321 277.514 75.746 277.512 75.7581 277.504Z" fill="black"/>
<path d="M73.3836 278.301C73.3555 278.144 73.208 278.041 73.0545 278.07C72.9009 278.099 72.7993 278.249 72.8274 278.406C72.8555 278.563 73.003 278.667 73.1565 278.638C73.3103 278.609 73.4119 278.459 73.3836 278.301Z" fill="black"/>
<path d="M65.5171 275.216C65.2983 277.433 66.5162 278.355 66.6497 278.979C66.7832 279.603 67.1274 283.913 69.9768 283.051L69.5052 275.914L67.9933 273.321L68.111 272.671C68.111 272.671 65.7359 272.998 65.5171 275.216Z" fill="#E23E3D"/>
<path d="M69.7078 280.653C70.6292 280.48 71.2388 279.576 71.0696 278.634C70.9002 277.692 70.0161 277.069 69.0947 277.242C68.1733 277.415 67.5637 278.319 67.7329 279.261C67.9023 280.203 68.7864 280.826 69.7078 280.653Z" fill="#FE9F73"/>
<path d="M69.8049 278.797L69.9446 278.895L69.8746 278.738C69.7499 278.457 69.5692 278.275 69.3374 278.196C68.936 278.06 68.5308 278.284 68.5138 278.294C68.4911 278.307 68.4828 278.336 68.4953 278.359C68.5079 278.383 68.5365 278.391 68.5594 278.378C68.5632 278.376 68.9466 278.165 69.3086 278.288C69.4758 278.345 69.614 278.465 69.7208 278.645C69.5285 278.562 69.1666 278.474 68.8391 278.778C68.6177 278.984 68.5693 279.309 68.716 279.607C68.84 279.858 69.1193 280.081 69.4659 280.016C69.469 280.015 69.4725 280.015 69.4756 280.014C69.5011 280.009 69.5176 279.983 69.5127 279.957C69.5075 279.932 69.4832 279.915 69.4581 279.92C69.4546 279.92 69.4517 279.921 69.4484 279.921C69.1299 279.981 68.9003 279.767 68.8001 279.563C68.7035 279.367 68.6725 279.063 68.9024 278.849C69.3178 278.464 69.7853 278.783 69.8049 278.797Z" fill="#F07162"/>
<path d="M76.6919 285.719L76.0217 283.531C76.0217 283.531 73.1173 284.717 71.1622 282.447C71.1622 282.447 71.9771 286.229 76.6919 285.719Z" fill="#F07162"/>
<path d="M74.6594 280.01C74.6693 280.029 74.6896 280.038 74.7092 280.034C74.7142 280.033 74.7189 280.032 74.7234 280.029L75.6644 279.503L74.945 277.247C74.937 277.221 74.9105 277.207 74.8857 277.216C74.8609 277.224 74.8474 277.251 74.8555 277.277L75.5508 279.456L74.6783 279.945C74.6551 279.958 74.6466 279.987 74.6594 280.01Z" fill="#F07162"/>
<path d="M69.9978 280.32L69.2028 280.378L69.4563 283.647L70.5752 283.533L69.9978 280.32Z" fill="#FE9F73"/>
<path d="M76.6624 272.474C76.7943 270.695 75.1201 270.964 75.1201 270.964C75.1201 270.964 74.9989 268.494 72.9871 269.61C70.9754 270.727 66.9939 271.378 66.2435 273.615C65.4932 275.852 69.5233 276.013 69.5233 276.013C69.5233 276.013 76.5306 274.253 76.6624 272.474Z" fill="#E23E3D"/>
<path d="M68.8748 274.811C68.8063 274.863 67.5132 275.877 67.6963 275.809C67.8792 275.741 69.3064 275.586 69.3064 275.586L69.5871 277.149C69.5871 277.149 70.3455 277.958 70.3585 279.163C70.3585 279.163 70.8211 279.245 70.8308 278.864C70.8405 278.484 69.9309 276.026 70.7148 275.401C71.4985 274.776 68.9431 274.758 68.8748 274.811Z" fill="#E23E3D"/>
<path d="M75.0814 281.24C75.8136 281.157 75.9922 280.301 75.9922 280.301C75.9922 280.301 74.0216 280.519 73.9908 280.528C73.9908 280.528 74.349 281.324 75.0814 281.24Z" fill="#FBFDFC"/>
<path d="M41.2551 342.363C41.635 342.415 41.9733 342.129 41.9998 341.744C41.9998 341.744 42.6408 336.478 42.8064 335.663L44.1318 337.053C44.3322 337.363 44.7397 337.447 45.0421 337.243C45.3446 337.038 45.4275 336.621 45.2271 336.312L43.3174 332.454C43.1868 332.253 42.723 332.155 42.332 332.167C38.6028 331.085 38.1776 330.322 37.146 330.125L37 330.952L36.3005 334.929C36.102 336.134 35.6907 337.292 35.0868 338.347L34.9351 338.612C34.7444 338.945 34.8659 339.376 35.2087 339.552C35.5213 339.712 35.9035 339.579 36.0803 339.27L37.1801 337.35C37.2146 337.29 37.2826 337.259 37.3497 337.272C37.4482 337.293 37.504 337.4 37.465 337.495L36.2227 340.527C36.0805 340.874 36.2593 341.22 36.6201 341.295C36.9811 341.37 37.3929 341.147 37.5354 340.799L38.8022 337.708C38.8318 337.636 38.9067 337.596 38.9811 337.611L39.034 337.622C39.1202 337.64 39.1762 337.726 39.1585 337.814L38.4344 341.458C38.3647 341.808 38.5627 342.168 38.9003 342.262C39.2703 342.364 39.6421 342.126 39.7173 341.748L40.4459 338.082C40.4634 337.994 40.5477 337.937 40.634 337.955L40.8015 337.99C40.8799 338.006 40.9345 338.079 40.9288 338.161L40.6907 341.628C40.6663 341.984 40.9083 342.314 41.2551 342.363Z" fill="#FE9F73"/>
<path d="M58.193 400.362L57.8781 409.839L65.9665 409.186L66.9545 398.13L58.193 400.362Z" fill="#FE9F73"/>
<path d="M73.7521 412.106C74.2414 412.107 74.6284 411.655 74.5325 411.136C74.4612 410.751 74.1103 410.485 73.7269 410.484L72.6138 410.481L67.4536 407.322L64.6204 410.461L57.6514 410.442C57.4775 410.442 57.336 410.586 57.3357 410.764L57.3329 411.843C57.3326 411.964 57.4288 412.064 57.5479 412.064L73.7521 412.106Z" fill="#33182C"/>
<path d="M71.6795 409.044L65.7694 406.346C63.3808 408.712 60.6829 406.745 60.6829 406.745C58.898 405.916 57.7202 407.528 57.7202 407.528L57.7129 410.452L73.7376 410.494C73.3005 409.603 71.6795 409.044 71.6795 409.044Z" fill="#9FD6E2"/>
<path d="M57.6589 407.513L57.6523 410.423L57.7709 410.423L57.7775 407.514L57.6589 407.513Z" fill="black"/>
<path d="M63.4534 407.434C63.4394 407.436 62.0424 407.633 60.7165 406.695L60.6492 406.795C61.5992 407.466 62.5858 407.572 63.1032 407.573C63.3298 407.574 63.4664 407.555 63.4706 407.554L63.4534 407.434Z" fill="black"/>
<path d="M58.4521 409.299L58.3856 409.4L59.1405 409.922L59.207 409.822L58.4521 409.299Z" fill="black"/>
<path d="M58.9959 409.16L58.9293 409.261L59.6837 409.784L59.7502 409.683L58.9959 409.16Z" fill="black"/>
<path d="M74.3039 411.967C74.4958 411.801 74.6061 411.559 74.6066 411.303C74.6077 410.822 74.2264 410.43 73.7563 410.429L57.7342 410.388C57.4821 410.387 57.2768 410.596 57.2761 410.854L57.2742 411.662L57.3928 411.662L57.3947 410.854C57.3951 410.663 57.5473 410.508 57.7337 410.509L73.7558 410.55C74.1605 410.551 74.4889 410.889 74.4877 411.303C74.487 411.523 74.3923 411.732 74.2271 411.874L74.3039 411.967Z" fill="black"/>
<path d="M73.7023 410.516L73.8098 410.464C73.7966 410.435 73.4738 409.755 72.2639 409.224C71.0751 408.702 65.8461 406.314 65.7937 406.291L65.7452 406.401C65.7979 406.426 71.0276 408.813 72.2172 409.335C73.3812 409.846 73.6995 410.509 73.7023 410.516Z" fill="black"/>
<path d="M91.1846 397.967L82.7947 397.366L84.5248 409.827L92.7434 409.14L91.1846 397.967Z" fill="#FE9F73"/>
<path d="M100.253 412.106C100.742 412.107 101.129 411.655 101.033 411.136C100.962 410.751 100.611 410.485 100.227 410.484L99.1143 410.481L93.9544 407.322L91.1211 410.461L84.1521 410.442C83.9782 410.442 83.8367 410.586 83.8365 410.764L83.8339 411.843C83.8336 411.964 83.9298 412.064 84.0489 412.064L100.253 412.106Z" fill="#33182C"/>
<path d="M98.1802 409.044L92.2701 406.346C89.8815 408.712 87.1837 406.745 87.1837 406.745C85.3987 405.916 84.2209 407.528 84.2209 407.528L84.2136 410.452L100.238 410.494C99.8012 409.603 98.1802 409.044 98.1802 409.044Z" fill="#9FD6E2"/>
<path d="M84.1615 407.524L84.1549 410.434L84.2735 410.434L84.2801 407.525L84.1615 407.524Z" fill="black"/>
<path d="M89.9539 407.434C89.9402 407.436 88.5429 407.633 87.2172 406.695L87.1499 406.795C88.0997 407.466 89.0865 407.572 89.604 407.573C89.8305 407.574 89.9671 407.555 89.9713 407.554L89.9539 407.434Z" fill="black"/>
<path d="M84.9819 409.295L84.9154 409.395L85.6703 409.917L85.7368 409.817L84.9819 409.295Z" fill="black"/>
<path d="M85.4899 409.146L85.4233 409.246L86.1776 409.769L86.2442 409.669L85.4899 409.146Z" fill="black"/>
<path d="M100.804 411.967C100.996 411.801 101.107 411.559 101.107 411.303C101.108 410.822 100.727 410.43 100.257 410.429L84.2347 410.388C83.9826 410.387 83.777 410.596 83.7765 410.854L83.7744 411.662L83.893 411.662L83.8951 410.854C83.8956 410.663 84.0478 410.508 84.2342 410.509L100.256 410.55C100.661 410.551 100.989 410.889 100.988 411.303C100.988 411.523 100.893 411.732 100.728 411.874L100.804 411.967Z" fill="black"/>
<path d="M100.203 410.516L100.311 410.464C100.297 410.435 99.9746 409.755 98.7647 409.224C97.5758 408.702 92.3469 406.314 92.2944 406.291L92.246 406.401C92.2987 406.426 97.5283 408.813 98.7179 409.335C99.8817 409.846 100.2 410.509 100.203 410.516Z" fill="black"/>
<path d="M83.4826 406.05C85.0573 406.518 93.0496 404.775 92.8821 403.481L83.0026 328.101C82.9808 327.934 82.9454 327.769 82.8967 327.608L82.7963 327.277C82.2432 325.452 80.1821 324.615 78.5547 325.555L68.3609 331.447C67.2732 332.076 66.6946 333.338 66.9207 334.594C68.4973 343.363 80.2865 405.101 83.4826 406.05Z" fill="#34629B"/>
<path d="M56.0437 405.718C56.1417 406.969 67.4669 405.8 67.5513 404.737L72.0998 370.162L72.8554 339.505L75.9648 322.422L54.9673 332.351C54.9673 332.351 57.372 349.884 57.767 369.564C57.9865 380.49 55.3037 396.284 56.0437 405.718Z" fill="#5780BC"/>
<path d="M68.1427 400.008C68.1963 400 68.2407 399.957 68.2483 399.899L72.2238 370.18L72.2248 370.173L72.7885 347.304C72.7902 347.233 72.7356 347.175 72.6664 347.173C72.5971 347.172 72.5395 347.227 72.5378 347.298L71.9743 370.152L67.9997 399.864C67.9903 399.934 68.0385 399.999 68.107 400.008C68.1193 400.01 68.1311 400.01 68.1427 400.008Z" fill="black"/>
<path d="M57.5697 366.565H57.5694C57.564 366.627 57.5626 366.717 57.5607 366.848C57.4907 371.408 57.3242 379.692 56.9946 383.945C56.9892 384.016 57.0409 384.078 57.1101 384.084C57.1198 384.085 57.1295 384.084 57.1387 384.083C57.1954 384.074 57.2408 384.027 57.2455 383.966C57.5756 379.705 57.7421 371.415 57.8123 366.853C57.8135 366.784 57.8144 366.728 57.8149 366.683L57.8213 366.683L57.817 366.556C57.817 366.554 57.8168 366.551 57.8165 366.548C57.7962 366.266 56.3101 343.114 56.295 342.88C56.2905 342.809 56.2308 342.755 56.1613 342.76C56.0921 342.763 56.0394 342.826 56.0441 342.897L57.5486 366.304C57.5564 366.423 57.5616 366.506 57.5699 366.564C57.5699 366.564 57.5699 366.565 57.5697 366.565Z" fill="black"/>
<path d="M91.6237 394.693C91.6244 394.693 91.6251 394.693 91.6256 394.693C91.6934 394.682 91.7407 394.618 91.7317 394.549L84.512 338.784C84.503 338.714 84.4397 338.664 84.3707 338.674C84.2975 338.681 84.2535 338.748 84.2625 338.818L91.4822 394.583C91.4916 394.653 91.555 394.702 91.6237 394.693Z" fill="black"/>
<path d="M84.4695 336.297C84.4695 336.297 85.5605 310.678 86.145 293.803C86.2438 290.951 86.2951 289.637 85.772 288.874C85.518 288.503 85.2475 288.13 84.6244 288.003C79.4607 286.949 68.6898 285.325 66.2716 285.873C61.2352 287.014 41.8745 304.479 40.5888 307.994C39.3031 311.508 35.2758 330.713 35.2758 330.713C35.2758 330.713 36.9535 332.559 45.4178 333.139C45.4178 333.139 51.1152 316.34 52.4302 314.8C53.745 313.261 58.2685 307.569 58.2685 307.569L54.7553 335.003C54.7548 335.003 69.5195 340.447 84.4695 336.297Z" fill="#7FC6A6"/>
<path d="M45.4062 333.34L45.5654 333.349L45.607 333.192C47.486 326.079 52.3367 315.475 52.5968 314.909L62.1673 303.107C62.2365 303.022 62.225 302.895 62.1416 302.824C62.0579 302.754 61.9341 302.766 61.8649 302.851L52.2783 314.672L52.2519 314.715C52.2015 314.824 47.2306 325.623 45.2701 332.929C44.1722 332.851 37.6972 332.322 35.3934 330.552C35.3067 330.486 35.1836 330.503 35.1184 330.592C35.0532 330.681 35.0707 330.807 35.1574 330.874C36.6947 332.054 39.8824 332.694 42.2989 333.024C43.9742 333.253 45.2791 333.333 45.4062 333.34Z" fill="black"/>
<path d="M56.2634 323.224C56.3709 323.239 56.4697 323.161 56.4836 323.051L58.463 307.596C58.4769 307.486 58.4016 307.385 58.2943 307.371H58.2938C58.1863 307.356 58.0878 307.434 58.0736 307.544L56.0942 322.999C56.0801 323.109 56.1557 323.209 56.2629 323.224H56.2634Z" fill="black"/>
<path d="M45.8979 302.016C58.367 290.073 65.1995 286.48 65.2668 286.445C65.3637 286.395 65.4024 286.274 65.3535 286.175C65.3049 286.076 65.187 286.036 65.0896 286.086C65.0216 286.121 58.1478 289.733 45.6292 301.723C45.5501 301.798 45.5461 301.925 45.6203 302.006C45.6524 302.041 45.6942 302.062 45.7374 302.068C45.7939 302.076 45.8532 302.059 45.8979 302.016Z" fill="black"/>
<path d="M65.3738 337.617C77.3081 339.246 84.4654 336.514 84.5398 336.485L84.6603 336.437L86.3186 291.867C86.3231 291.756 86.235 291.663 86.1303 291.658C86.0221 291.653 85.9307 291.74 85.9262 291.85L84.2785 336.154C83.243 336.519 75.6231 338.974 63.5459 336.932C63.4433 336.923 63.3377 336.988 63.32 337.097C63.3025 337.207 63.3748 337.31 63.4818 337.328C64.1254 337.437 64.7555 337.533 65.3738 337.617Z" fill="black"/>
<path d="M90.769 269.7L78.149 274.564L78.928 276.855L91.7778 272.667L90.769 269.7Z" fill="#335174"/>
<path d="M99.2857 265.656L86.736 270.726L87.9922 274.42L100.912 270.439L99.2857 265.656Z" fill="#2C4A68"/>
<path d="M116.067 257.996L99.0736 265.032L101.125 271.063L118.723 265.807L116.067 257.996Z" fill="#335174"/>
<path d="M78.0496 274.291L77.3389 274.543L78.2984 277.365L79.0091 277.112L78.0496 274.291Z" fill="#2C4A68"/>
<path d="M116.487 256.845L115.776 257.098L119.05 266.722L119.76 266.469L116.487 256.845Z" fill="#2C4A68"/>
<path d="M105.019 264.144C105.355 264.06 105.563 263.788 105.507 263.536L105.045 261.453C105.03 261.386 104.777 261.162 104.378 261.241C103.98 261.32 103.773 261.735 103.773 261.735L104.233 263.808C104.294 264.081 104.651 264.237 105.019 264.144Z" fill="#FE9F73"/>
<path d="M106.371 263.959C106.705 263.87 106.907 263.596 106.844 263.345L106.288 261.112C106.271 261.046 105.916 260.913 105.519 260.997C105.122 261.082 105.005 261.346 105.005 261.346L105.575 263.635C105.643 263.906 106.005 264.057 106.371 263.959Z" fill="#FE9F73"/>
<path d="M107.666 263.691C107.976 263.605 108.16 263.348 108.098 263.116L107.547 261.043C107.531 260.981 107.197 260.86 106.828 260.943C106.459 261.025 106.354 261.271 106.354 261.271L106.919 263.396C106.986 263.647 107.325 263.785 107.666 263.691Z" fill="#FE9F73"/>
<path d="M104.992 264.057C104.848 264.093 104.702 264.084 104.58 264.032C104.458 263.98 104.377 263.892 104.353 263.784L103.898 261.732C103.886 261.683 103.824 261.654 103.758 261.667C103.692 261.68 103.647 261.731 103.658 261.78L104.113 263.832C104.147 263.987 104.268 264.119 104.444 264.195C104.622 264.271 104.836 264.284 105.047 264.231C105.44 264.132 105.695 263.816 105.627 263.512L105.119 261.271C105.117 261.264 105.115 261.258 105.112 261.252C105.091 261.214 105.036 261.194 104.978 261.206C104.912 261.22 104.867 261.27 104.879 261.319L105.387 263.56C105.434 263.771 105.261 263.99 104.992 264.057Z" fill="#F07162"/>
<path d="M103.869 264.625C104.195 264.532 104.386 264.262 104.327 264.015L103.793 261.781C103.777 261.715 103.421 261.571 103.025 261.662C102.795 261.715 102.503 261.986 102.558 262.218L103.057 264.302C103.123 264.578 103.495 264.732 103.869 264.625Z" fill="#FE9F73"/>
<path d="M103.821 264.544C103.677 264.581 103.53 264.574 103.407 264.523C103.284 264.472 103.202 264.385 103.177 264.277L102.687 262.232C102.675 262.183 102.612 262.154 102.546 262.168C102.48 262.182 102.436 262.233 102.448 262.282L102.937 264.328C102.974 264.482 103.097 264.613 103.274 264.687C103.454 264.761 103.669 264.773 103.878 264.718C104.27 264.616 104.52 264.297 104.448 263.994L103.902 261.76C103.901 261.754 103.898 261.748 103.895 261.742C103.873 261.705 103.818 261.685 103.761 261.697C103.695 261.711 103.651 261.762 103.663 261.811L104.208 264.044C104.258 264.255 104.088 264.474 103.821 264.544Z" fill="#F07162"/>
<path d="M106.341 263.873C106.198 263.911 106.052 263.904 105.928 263.854C105.804 263.803 105.722 263.717 105.695 263.61L105.125 261.32C105.113 261.271 105.049 261.243 104.983 261.258C104.917 261.272 104.873 261.323 104.885 261.372L105.455 263.662C105.494 263.816 105.618 263.946 105.796 264.019C105.977 264.092 106.192 264.102 106.401 264.046C106.79 263.943 107.018 263.646 106.942 263.34L106.359 261.172C106.357 261.167 106.355 261.161 106.353 261.156C106.331 261.118 106.274 261.098 106.216 261.111C106.15 261.126 106.107 261.178 106.12 261.226L106.703 263.393C106.756 263.604 106.607 263.802 106.341 263.873Z" fill="#F07162"/>
<path d="M107.556 263.64C107.426 263.676 107.291 263.672 107.177 263.626C107.063 263.581 106.986 263.503 106.96 263.405L106.395 261.28C106.382 261.231 106.318 261.204 106.252 261.218C106.186 261.233 106.143 261.285 106.156 261.334L106.721 263.459C106.759 263.603 106.879 263.725 107.048 263.792C107.219 263.86 107.422 263.867 107.618 263.813C107.986 263.711 108.215 263.409 108.139 263.124L107.588 261.052C107.587 261.046 107.585 261.041 107.582 261.036C107.561 260.997 107.504 260.977 107.445 260.99C107.379 261.005 107.336 261.057 107.349 261.106L107.9 263.178C107.951 263.37 107.8 263.573 107.556 263.64Z" fill="#F07162"/>
<path d="M161.012 392.255L161.505 407.207L170.117 407.623L176.816 345.623L159.74 347.928L162.637 374.53L161.678 380.875C161.11 384.639 160.887 388.449 161.012 392.255Z" fill="#FE9F73"/>
<path d="M157.829 347.928L141.277 345.622L134.855 397.523L133.546 408.099L142.581 407.207L150.99 374.515L157.829 347.928Z" fill="#FE9F73"/>
<path d="M142.784 412.126C142.915 412.126 143.021 412.017 143.021 411.883V410.695C143.021 410.5 142.866 410.341 142.674 410.341H135.002L131.892 406.877L126.202 410.341H124.977C124.555 410.341 124.168 410.633 124.088 411.057C123.981 411.627 124.406 412.126 124.945 412.126L142.784 412.126Z" fill="#7FC6A6"/>
<path d="M139.347 406.261C139.347 406.261 136.372 408.419 133.748 405.808L127.234 408.761C127.234 408.761 125.448 409.372 124.965 410.351H142.607V407.132C142.607 407.132 141.315 405.354 139.347 406.261Z" fill="#2C4A68"/>
<path d="M142.672 407.132H142.541V410.335H142.672V407.132Z" fill="black"/>
<path d="M139.31 406.206C137.848 407.235 136.31 407.014 136.295 407.012L136.276 407.144C136.28 407.145 136.431 407.167 136.68 407.167C137.25 407.167 138.336 407.053 139.384 406.316L139.31 406.206Z" fill="black"/>
<path d="M141.78 409.065L140.948 409.639L141.021 409.75L141.853 409.176L141.78 409.065Z" fill="black"/>
<path d="M141.173 408.918L140.342 409.491L140.414 409.602L141.246 409.029L141.173 408.918Z" fill="black"/>
<path d="M143.086 411.685V410.795C143.086 410.511 142.861 410.28 142.583 410.28H124.945C124.427 410.28 124.006 410.711 124.006 411.24C124.006 411.522 124.127 411.789 124.338 411.971L124.422 411.869C124.241 411.712 124.137 411.483 124.137 411.24C124.137 410.784 124.499 410.414 124.944 410.414H142.583C142.789 410.414 142.956 410.585 142.956 410.795V411.685H143.086Z" fill="black"/>
<path d="M126.642 409.08C127.953 408.509 133.717 405.895 133.775 405.869L133.722 405.747C133.664 405.773 127.901 408.386 126.591 408.958C125.257 409.539 124.9 410.287 124.886 410.319L125.004 410.376C125.007 410.369 125.359 409.64 126.642 409.08Z" fill="black"/>
<path d="M179.093 412.126C179.632 412.126 180.057 411.627 179.95 411.057C179.87 410.633 179.483 410.341 179.061 410.341H177.836L172.146 406.877L169.036 410.341H161.363C161.172 410.341 161.016 410.5 161.016 410.696V411.884C161.016 412.018 161.123 412.126 161.254 412.126L179.093 412.126Z" fill="#7FC6A6"/>
<path d="M176.803 408.761L170.289 405.808C167.666 408.419 164.69 406.261 164.69 406.261C162.723 405.354 161.431 407.131 161.431 407.131V410.351H179.073C178.589 409.372 176.803 408.761 176.803 408.761Z" fill="#2C4A68"/>
<path d="M161.496 407.132H161.366V410.336H161.496V407.132Z" fill="black"/>
<path d="M167.743 407.012C167.727 407.014 166.19 407.235 164.728 406.206L164.654 406.316C165.701 407.053 166.788 407.167 167.357 407.167C167.607 407.167 167.757 407.145 167.762 407.144L167.743 407.012Z" fill="black"/>
<path d="M162.272 409.048L162.199 409.159L163.031 409.732L163.104 409.621L162.272 409.048Z" fill="black"/>
<path d="M162.857 408.895L162.784 409.006L163.615 409.579L163.688 409.469L162.857 408.895Z" fill="black"/>
<path d="M179.7 411.971C179.911 411.789 180.032 411.522 180.032 411.24C180.032 410.711 179.611 410.281 179.093 410.281H161.454C161.177 410.281 160.951 410.511 160.951 410.795V411.685H161.082V410.795C161.082 410.585 161.249 410.414 161.454 410.414H179.093C179.539 410.414 179.901 410.785 179.901 411.24C179.901 411.483 179.797 411.712 179.616 411.87L179.7 411.971Z" fill="black"/>
<path d="M179.034 410.376L179.152 410.319C179.138 410.287 178.78 409.539 177.447 408.957C176.137 408.386 170.374 405.773 170.316 405.747L170.263 405.869C170.321 405.895 176.085 408.508 177.396 409.08C178.679 409.64 179.031 410.369 179.034 410.376Z" fill="black"/>
<path d="M142.979 309.851C141.299 309.216 137.594 307.362 135.028 305.076C133.378 308.238 129.272 315.472 129.295 317.12C129.376 322.818 135.359 332.829 138.151 335.45L142.179 330.675C141.059 328.72 137.892 318.524 138.697 317.237C139.473 315.996 141.345 312.517 142.979 309.851Z" fill="#FE9F73"/>
<path d="M190.8 265.799L185.211 263.693L179.035 278.196L171.04 286.754L175.615 295.435L185.421 282.013L190.8 265.799Z" fill="#FE9F73"/>
<path d="M185.23 264.469L185.224 264.217C185.16 264.35 185.261 264.635 185.23 264.469Z" fill="#FE9F73"/>
<path d="M191.199 254.878C191.354 254.561 191.255 254.165 190.956 253.986C190.628 253.791 190.212 253.921 190.045 254.263C190.045 254.263 187.504 258.835 187.05 259.516L186.353 257.73C186.284 257.369 185.943 257.134 185.59 257.204C185.237 257.274 185.007 257.623 185.075 257.984L185.224 264.216C185.251 264.161 185.306 264.131 185.413 264.172C188.424 266.609 189.682 265.687 190.553 266.267L192.345 262.864C192.623 262.411 193.308 261.083 193.282 260.745C193.237 260.162 192.704 260.066 192.196 259.752C191.48 259.311 190.661 258.728 190.006 258.286C189.967 258.294 189.925 258.286 189.889 258.262L189.748 258.165C189.724 258.148 189.708 258.125 189.696 258.1C189.676 258.056 189.673 258.005 189.695 257.959L191.199 254.878Z" fill="#FE9F73"/>
<path d="M189.065 261.251L191.223 258.639C191.287 258.561 191.221 258.105 190.885 257.813C190.55 257.522 190.184 257.661 190.184 257.661L187.972 260.339C187.71 260.655 187.761 261.135 188.092 261.385C188.394 261.613 188.823 261.544 189.065 261.251Z" fill="#FE9F73"/>
<path d="M190.186 262.212L192.294 259.558C192.357 259.479 192.282 259.024 191.941 258.739C191.6 258.455 191.238 258.6 191.238 258.6L189.076 261.322C188.82 261.643 188.88 262.121 189.216 262.365C189.522 262.588 189.949 262.51 190.186 262.212Z" fill="#FE9F73"/>
<path d="M191.246 262.949L193.181 260.453C193.239 260.379 193.164 259.956 192.844 259.695C192.523 259.434 192.187 259.573 192.187 259.573L190.202 262.132C189.968 262.434 190.029 262.879 190.344 263.102C190.632 263.306 191.029 263.229 191.246 262.949Z" fill="#FE9F73"/>
<path d="M190.045 258.038C190.092 257.981 190.086 257.895 190.03 257.847C189.974 257.799 189.89 257.806 189.842 257.863L187.87 260.251C187.721 260.431 187.651 260.669 187.678 260.904C187.705 261.141 187.824 261.351 188.013 261.494C188.367 261.761 188.873 261.693 189.166 261.338L191.313 258.72C191.32 258.713 191.325 258.704 191.329 258.696C191.358 258.641 191.346 258.571 191.297 258.529C191.241 258.481 191.157 258.488 191.11 258.546L188.963 261.163C188.76 261.409 188.412 261.458 188.171 261.276C188.041 261.178 187.96 261.034 187.941 260.872C187.923 260.71 187.969 260.551 188.073 260.426L190.045 258.038Z" fill="#F07162"/>
<path d="M191.341 258.686C191.387 258.628 191.378 258.542 191.321 258.495C191.264 258.448 191.181 258.457 191.134 258.515L188.972 261.236C188.827 261.419 188.761 261.658 188.793 261.893C188.824 262.13 188.947 262.337 189.139 262.476C189.496 262.735 189.964 262.66 190.253 262.297L192.273 259.68C192.278 259.674 192.283 259.667 192.287 259.659C192.316 259.603 192.302 259.531 192.251 259.49C192.194 259.443 192.111 259.454 192.065 259.512L190.045 262.127C189.846 262.378 189.536 262.431 189.293 262.255C189.161 262.159 189.077 262.018 189.056 261.856C189.034 261.694 189.077 261.535 189.178 261.407L191.341 258.686Z" fill="#F07162"/>
<path d="M192.291 259.657C192.336 259.599 192.327 259.513 192.269 259.467C192.212 259.42 192.129 259.43 192.083 259.489L190.098 262.047C189.963 262.221 189.904 262.447 189.936 262.667C189.968 262.891 190.086 263.085 190.269 263.213C190.609 263.455 191.084 263.375 191.35 263.032L193.286 260.537C193.291 260.53 193.295 260.523 193.299 260.516C193.328 260.459 193.315 260.388 193.264 260.347C193.207 260.3 193.123 260.31 193.078 260.368L191.142 262.864C190.963 263.095 190.646 263.15 190.42 262.99C190.299 262.904 190.22 262.776 190.199 262.627C190.177 262.479 190.215 262.333 190.306 262.215L192.291 259.657Z" fill="#F07162"/>
<path d="M185.42 282.87C182.95 278.789 181.482 277.875 178.78 278.204C175.989 280.339 164.63 291.409 163.634 291.779C163.553 291.809 163.416 291.835 163.234 291.858L169.554 305.076C169.892 305.076 175.499 297.372 185.42 282.87Z" fill="#33182C"/>
<path d="M159.976 269.465C156.255 267.24 156.137 271.701 154.838 272.252C153.538 272.803 151.066 272.567 150.431 275.224C149.796 277.881 150.496 279.705 149.126 280.258C147.756 280.812 143.507 284.981 145.209 289.653C146.91 294.325 151.458 293.557 151.458 293.557C151.458 293.557 169.499 292.346 170.205 287.437C170.911 282.527 168.956 280.654 166.506 279.295C165 278.459 162.098 277.949 162.672 274.928C162.672 274.928 163.698 271.691 159.976 269.465Z" fill="#FECC86"/>
<path d="M162.377 284.66C163.177 282.992 160.971 276.629 160.971 276.629L153.294 277.59L155.864 291.045L161.525 289.915L160.741 285.814C161.998 285.539 162.377 284.66 162.377 284.66Z" fill="#FE9F73"/>
<path d="M159.603 279.111C159.577 279.099 159.546 279.111 159.534 279.138C159.521 279.166 159.227 279.843 159.509 280.469C159.682 280.853 160.034 281.131 160.555 281.294C160.521 281.443 160.391 281.903 160.073 282.042C160.047 282.053 160.034 282.085 160.046 282.112C160.056 282.136 160.08 282.149 160.104 282.144C160.107 282.143 160.111 282.142 160.115 282.14C160.546 281.952 160.664 281.294 160.669 281.266L160.677 281.218L160.632 281.205C160.116 281.053 159.77 280.79 159.605 280.425C159.343 279.843 159.627 279.189 159.63 279.182C159.642 279.155 159.63 279.123 159.603 279.111Z" fill="#F07162"/>
<path d="M156.118 285.214C156.118 285.214 158.817 287.129 161.059 287.477L160.734 285.813C160.734 285.813 157.959 286.052 156.118 285.214Z" fill="#F07162"/>
<path d="M156.412 279.995C156.439 279.989 156.464 279.973 156.48 279.947C156.519 279.886 157.445 278.451 158.673 279.112C158.725 279.14 158.788 279.12 158.815 279.067C158.842 279.015 158.822 278.95 158.771 278.922C157.372 278.168 156.314 279.814 156.303 279.831C156.272 279.881 156.286 279.947 156.335 279.979C156.359 279.995 156.386 280 156.412 279.995Z" fill="#33192C"/>
<path d="M159.939 278.432C159.946 278.423 160.625 277.55 161.147 277.852C161.198 277.882 161.262 277.864 161.29 277.812C161.319 277.761 161.301 277.695 161.251 277.666C160.571 277.271 159.806 278.258 159.774 278.3C159.738 278.347 159.746 278.414 159.792 278.45C159.817 278.47 159.848 278.477 159.877 278.471C159.901 278.467 159.923 278.453 159.939 278.432Z" fill="#33192C"/>
<path d="M161.29 279.631C161.259 279.469 161.106 279.363 160.947 279.395C160.788 279.426 160.684 279.583 160.715 279.745C160.746 279.908 160.9 280.014 161.059 279.982C161.218 279.95 161.321 279.793 161.29 279.631Z" fill="black"/>
<path d="M158.347 280.218C158.316 280.056 158.163 279.95 158.004 279.982C157.845 280.014 157.742 280.171 157.773 280.333C157.804 280.495 157.957 280.601 158.116 280.57C158.275 280.538 158.379 280.38 158.347 280.218Z" fill="black"/>
<path d="M154.035 284.094C154.924 283.916 155.505 283.035 155.331 282.125C155.157 281.216 154.295 280.622 153.405 280.8C152.516 280.977 151.935 281.859 152.109 282.768C152.283 283.678 153.145 284.271 154.035 284.094Z" fill="#FE9F73"/>
<path d="M154.105 282.302L154.262 282.409L154.182 282.235C154.058 281.963 153.879 281.787 153.653 281.713C153.26 281.585 152.868 281.808 152.851 281.817C152.826 281.832 152.817 281.865 152.831 281.89C152.845 281.916 152.877 281.925 152.903 281.911C152.906 281.908 153.271 281.701 153.62 281.815C153.776 281.866 153.906 281.973 154.008 282.135C153.816 282.059 153.475 281.993 153.169 282.283C152.955 282.486 152.911 282.805 153.057 283.095C153.181 283.339 153.457 283.554 153.795 283.486C153.798 283.486 153.801 283.485 153.805 283.484C153.833 283.478 153.851 283.45 153.845 283.421C153.839 283.391 153.811 283.373 153.783 283.379C153.474 283.444 153.25 283.24 153.151 283.045C153.057 282.859 153.024 282.568 153.241 282.362C153.634 281.988 154.086 282.289 154.105 282.302Z" fill="#F07162"/>
<path d="M160.723 276.66L160.97 276.629C160.97 276.629 159.996 274.192 156.625 274.575C153.254 274.958 153.293 277.59 153.293 277.59L157.229 277.619L160.723 276.66Z" fill="#FE9F73"/>
<path d="M153.903 280.779C155.87 280.547 156.124 277.025 156.124 277.025C158.892 276.958 160.56 274.482 160.56 274.482L159.696 272.845C159.696 272.845 155.898 273.846 155.669 273.892C155.44 273.938 152.105 276.169 152.105 276.169C152.105 276.169 151.936 281.011 153.903 280.779Z" fill="#FECC86"/>
<path d="M159.001 280.925C158.918 280.941 158.943 281.072 159.026 281.055C159.108 281.039 159.083 280.908 159.001 280.925Z" fill="#EA5942"/>
<path d="M158.658 281.238C158.575 281.254 158.6 281.385 158.683 281.368C158.765 281.351 158.74 281.221 158.658 281.238Z" fill="#EA5942"/>
<path d="M157.863 280.908C157.781 280.924 157.806 281.055 157.888 281.038C157.97 281.022 157.945 280.891 157.863 280.908Z" fill="#EA5942"/>
<path d="M157.349 281.498C157.266 281.515 157.291 281.646 157.374 281.629C157.456 281.613 157.431 281.482 157.349 281.498Z" fill="#EA5942"/>
<path d="M156.595 280.993C156.513 281.009 156.538 281.14 156.62 281.123C156.702 281.107 156.677 280.976 156.595 280.993Z" fill="#EA5942"/>
<path d="M156.545 281.98C156.462 281.996 156.487 282.127 156.57 282.11C156.652 282.094 156.627 281.963 156.545 281.98Z" fill="#EA5942"/>
<path d="M160.208 280.287C160.125 280.303 160.151 280.434 160.233 280.417C160.315 280.401 160.29 280.27 160.208 280.287Z" fill="#EA5942"/>
<path d="M160.783 280.721C160.701 280.738 160.726 280.868 160.808 280.852C160.891 280.836 160.866 280.705 160.783 280.721Z" fill="#EA5942"/>
<path d="M161.314 280.371C161.231 280.388 161.256 280.518 161.339 280.502C161.421 280.486 161.396 280.355 161.314 280.371Z" fill="#EA5942"/>
<path d="M161.534 281.289C161.452 281.305 161.477 281.436 161.559 281.419C161.641 281.403 161.616 281.272 161.534 281.289Z" fill="#EA5942"/>
<path d="M161.862 280.659C161.779 280.676 161.804 280.806 161.886 280.79C161.969 280.773 161.944 280.643 161.862 280.659Z" fill="#EA5942"/>
<path d="M161.607 279.871C161.524 279.887 161.549 280.018 161.631 280.001C161.714 279.985 161.689 279.854 161.607 279.871Z" fill="#EA5942"/>
<path d="M158.276 281.741C158.194 281.757 158.219 281.888 158.301 281.871C158.383 281.855 158.358 281.724 158.276 281.741Z" fill="#EA5942"/>
<path d="M156.221 289.679C153.207 289.387 147.138 289.95 144.161 292.044C140.78 295.417 134.365 305.438 129.544 314.435C129.544 314.435 132.382 315.79 138.574 317.768L144.946 306.681C146.387 310.901 148.268 315.427 148.348 315.959C148.408 316.364 147.835 316.803 147.609 317.336C147.43 317.759 145.983 320.204 144.678 323.018C143.192 326.226 141.818 329.87 141.437 330.772C137.508 340.071 134.557 351.965 133.132 362.384C133.132 362.384 157.159 375.442 178.355 364.263C178.631 362.742 179.151 359.422 178.844 357.891C178.989 344.226 176.694 328.393 170.318 316.26C170.454 315.579 170.549 306.141 171.301 305.667C172.388 303.815 172.711 301.179 171.813 299.184C171.21 297.799 166.784 290.816 166.184 290.078L166.186 290.077C163.062 289.498 159.999 289.607 156.221 289.679Z" fill="#49263E"/>
<path d="M146.129 293.581C147.052 292.324 148.56 291.812 148.575 291.807C148.625 291.791 148.653 291.736 148.636 291.685C148.62 291.633 148.566 291.605 148.516 291.622C148.452 291.643 146.936 292.156 145.976 293.464C145.944 293.508 145.953 293.569 145.995 293.601C146.013 293.614 146.033 293.621 146.052 293.621C146.082 293.621 146.11 293.607 146.129 293.581Z" fill="#21111D"/>
<path d="M146.309 294.486C147.232 293.228 148.74 292.717 148.755 292.712C148.805 292.695 148.833 292.64 148.816 292.589C148.8 292.538 148.746 292.509 148.696 292.526C148.632 292.547 147.116 293.06 146.156 294.369C146.124 294.412 146.133 294.473 146.175 294.505C146.192 294.519 146.212 294.525 146.232 294.525C146.262 294.525 146.29 294.511 146.309 294.486Z" fill="#21111D"/>
<path d="M150.84 316.377C150.844 316.377 150.848 316.377 150.852 316.377C150.91 316.377 150.959 316.333 150.966 316.273C150.972 316.209 150.927 316.151 150.864 316.145L148.394 315.877C148.331 315.869 148.275 315.917 148.269 315.981C148.262 316.045 148.307 316.102 148.37 316.109L150.84 316.377Z" fill="black"/>
<path d="M170.944 306.031L170.205 316.252L170.203 316.291L170.223 316.323C170.248 316.364 172.796 320.517 175.077 328.451C177.183 335.773 179.486 347.904 178.501 364.117C178.497 364.182 178.545 364.237 178.608 364.241C178.61 364.242 178.613 364.242 178.615 364.242C178.675 364.242 178.725 364.194 178.729 364.132C179.717 347.879 177.406 335.715 175.293 328.373C173.111 320.788 170.682 316.641 170.436 316.232L171.168 306.109C174.446 300.98 170.499 296.817 170.458 296.776C170.414 296.73 170.341 296.73 170.297 296.775C170.252 296.821 170.251 296.895 170.296 296.94C170.335 296.981 174.165 301.027 170.96 306.007L170.944 306.031Z" fill="black"/>
<path d="M160.458 283.644C161.057 283.515 161.138 282.792 161.138 282.792C161.138 282.792 159.525 283.134 159.5 283.144C159.5 283.144 159.858 283.772 160.458 283.644Z" fill="#FBFDFC"/>
<path d="M134.457 355.349C134.465 355.35 134.472 355.351 134.48 355.351C134.533 355.351 134.581 355.313 134.592 355.257C139.319 330.833 148.387 316.201 148.479 316.056L148.51 316.007L146.045 309.272L145.87 309.46L148.256 315.98C147.668 316.941 138.966 331.456 134.368 355.212C134.355 355.275 134.396 355.336 134.457 355.349Z" fill="black"/>
<path d="M144.914 329.641C143.935 330.194 142.838 330.535 142.838 330.535L144.51 331.805C144.51 331.805 145.589 330.655 145.762 330.311C145.934 329.967 145.893 329.087 144.914 329.641Z" fill="#F07162"/>
<path d="M147.644 337.964L147.644 337.965L147.644 337.964Z" fill="#FE9F73"/>
<path d="M150.321 333.311C149.57 332.449 146.894 331.111 146.059 330.996C145.605 330.934 143.756 330.668 142.167 330.438C142.151 330.411 141.64 329.492 141.624 329.462L138.151 335.45L140.054 336.047C144.952 337.063 147.644 337.964 147.644 337.965C147.644 337.965 147.644 337.964 147.643 337.964L147.644 337.965C148.474 338.447 149.272 338.892 149.636 339.094C149.833 339.203 150.07 339.22 150.273 339.123C150.551 338.991 150.758 338.651 150.156 337.788C150.156 337.788 151.682 337.767 150.412 336.291C150.412 336.291 151.978 336.578 150.711 334.818C150.711 334.818 151.684 334.874 150.321 333.311Z" fill="#FE9F73"/>
<path d="M150.088 337.865C150.13 337.903 150.194 337.9 150.231 337.857C150.268 337.814 150.265 337.749 150.223 337.711C150.184 337.676 149.273 336.85 148.573 336.442C148.564 336.437 148.554 336.433 148.544 336.431C148.502 336.422 148.458 336.441 148.435 336.481C148.408 336.531 148.425 336.594 148.473 336.622C149.154 337.019 150.079 337.857 150.088 337.865Z" fill="#F07162"/>
<path d="M150.344 336.368C150.386 336.407 150.449 336.403 150.487 336.361C150.524 336.318 150.521 336.253 150.479 336.215C150.45 336.187 149.739 335.537 148.822 335.153C148.817 335.151 148.811 335.149 148.805 335.147C148.758 335.137 148.709 335.163 148.691 335.209C148.669 335.262 148.694 335.323 148.746 335.344C149.628 335.714 150.337 336.362 150.344 336.368Z" fill="#F07162"/>
<path d="M150.64 334.892C150.68 334.932 150.744 334.931 150.783 334.891C150.823 334.85 150.822 334.784 150.782 334.744C150.756 334.718 150.129 334.094 149.343 333.737C149.336 333.734 149.329 333.732 149.322 333.731C149.277 333.721 149.229 333.745 149.209 333.79C149.186 333.842 149.209 333.903 149.261 333.927C150.014 334.269 150.634 334.886 150.64 334.892Z" fill="#F07162"/>
<path d="M134.365 313.311L129.544 314.435C129.544 314.435 128.583 316.625 129.295 319.762C130.007 322.899 132.96 331.199 137.245 334.922C137.245 334.922 140.719 331.009 141.732 328.789C141.732 328.789 138.403 317.817 138.49 316.377C138.577 314.938 134.365 313.311 134.365 313.311Z" fill="#49263E"/>
<path d="M185.42 282.87C186.717 280.976 190.8 266.865 190.8 266.865C188.344 264.301 184.686 263.985 184.686 263.985L178.78 278.204L179.514 283.186C179.514 283.186 184.122 284.764 185.42 282.87Z" fill="#33182C"/>
<path d="M164.257 289.801C164.257 289.801 159.59 288.89 152.432 289.696C152.432 289.696 162.922 302.183 163.632 303.722C163.632 303.722 164.286 293.047 164.257 289.801Z" fill="white"/>
<path d="M160.629 290.995L162.559 289.572L161.082 287.598L159.696 288.894L155.236 287.762L154.231 289.961L159.359 291.475L159.822 290.17L160.629 290.995Z" fill="#A5EFED"/>
<path d="M163.632 303.722C163.632 303.722 156.116 293.112 152.432 289.696C152.432 289.696 153.689 294.37 154.5 295.869L157.469 297.368L157.415 299.736L163.632 303.722Z" fill="#33182C"/>
<path d="M164.257 289.801C163.745 293.007 163.633 303.721 163.633 303.721L165.849 298L165.053 296.709L166.061 294.525C165.984 293.933 164.257 289.801 164.257 289.801Z" fill="#33182C"/>
<path d="M169.496 333.728L174.583 326.802L169.38 331.805L166.061 327.22L162.548 332.074L143.79 325.36L162.606 334.325L166.061 329.825L169.496 333.728Z" fill="#33182C"/>
<path d="M164.165 289.79C163.62 294.603 163.541 303.63 163.54 303.72L163.725 303.722C163.726 303.631 163.805 294.614 164.348 289.812L164.165 289.79Z" fill="black"/>
<path d="M174.52 326.734L169.393 331.663L166.135 327.164L165.986 327.277L169.368 331.947L174.646 326.871L174.52 326.734Z" fill="black"/>
<path d="M155.934 306.997L170.86 307.187L170.96 306.006L155.934 306.997Z" fill="#33182C"/>
<path d="M143.82 325.271L143.759 325.449L162.517 332.163L162.582 332.186L166.156 327.247L163.724 303.711L163.722 303.686L163.707 303.666C163.631 303.558 156.066 292.814 152.492 289.625L152.371 289.767C155.854 292.876 163.169 303.226 163.543 303.756L165.965 327.193L162.514 331.961L143.82 325.271Z" fill="black"/>
<path d="M259.242 210.027L263.82 217.595L266.912 209.277L275.368 207.164L268.584 201.588L269.232 192.715L261.948 197.587L253.893 194.215L256.175 202.802L250.548 209.591L259.242 210.027Z" fill="#4CB7D8"/>
<path d="M168.761 229.28L172.229 232.509L172.627 227.731L176.703 225.358L172.381 223.495L171.433 218.799L168.364 222.425L163.702 221.896L166.126 226L164.194 230.369L168.761 229.28Z" fill="#F7597F"/>
<path d="M287.075 231.437L284.855 226.817L282.618 231.428L277.634 232.159L281.233 235.759L280.372 240.83L284.833 238.444L289.286 240.848L288.444 235.773L292.057 232.187L287.075 231.437Z" fill="#FBC758"/>
<path d="M421.708 296.162L424.969 297.269C425.187 296.253 428.505 293.597 428.379 293.402L424.968 290.352L422.852 290.383C422.485 290.285 421.76 290.037 420.898 289.797C420.656 290.527 420.45 291.083 420.36 291.066L420.327 291.232C420.319 291.274 420.294 291.309 420.261 291.331C420.101 292.099 419.92 293.079 419.716 293.89C419.571 294.465 419.431 294.365 419.792 294.804C420.001 295.057 421.208 296.041 421.708 296.162Z" fill="#FCAF90"/>
<path d="M430.586 288.506C431.96 285.352 428.75 283.945 428.75 283.945C428.75 283.945 425.216 289.328 425.911 289.683C426.606 290.038 429.306 291.446 430.586 288.506Z" fill="#91D3E2"/>
<path d="M423.3 294.675C423.652 292.543 425.087 290.067 425.087 290.067C425.087 290.067 424.563 287.466 422.877 289.05C421.191 290.633 419.944 294.102 419.793 294.803C419.641 295.504 421.239 296.404 421.928 296.658C422.617 296.913 422.972 296.664 423.3 294.675Z" fill="#52B6C6"/>
<path d="M426.886 283.941L426.257 282.062C424.794 280.325 420.338 274.687 420.338 274.687L420.143 275.153L419.081 278.24L416.927 283.143L414.16 287.21L413.694 288.159L422.901 288.788L424.926 288.378L426.886 283.941Z" fill="#52B6C6"/>
<path d="M426.091 289.732C427.031 288.785 428.833 286.574 428.888 283.603C428.888 283.603 428.921 282.804 428.057 282.418L426.917 281.858C426.917 281.858 426.406 281.628 426.257 282.061C426.257 282.061 425.956 286.198 422.901 288.788C422.901 288.788 422.7 289.05 422.921 289.309L424.459 290.192C424.459 290.192 425.151 290.679 426.091 289.732Z" fill="#D4EBF2"/>
<path d="M413.694 288.159C413.694 288.159 416.02 287.015 418.479 282.145C420.938 277.276 420.338 274.687 420.338 274.687C420.338 274.687 419.182 273.207 418.343 273.002C417.504 272.797 416.375 273.7 415.593 274.475C414.81 275.251 412.442 278.487 411.665 280.897C410.889 283.307 409.997 286.8 411.059 287.536C412.12 288.272 413.694 288.159 413.694 288.159Z" fill="#91D3E2"/>
<path d="M416.777 282.332C420.63 275.509 419.026 273.387 419.026 273.387C419.026 273.387 416.001 273.791 412.927 281.101C410.974 285.743 411.851 287.901 411.851 287.901C411.851 287.901 413.603 287.953 416.777 282.332Z" fill="#3B9DA8"/>
<path d="M416.777 282.332C417.392 281.244 417.867 280.275 418.233 279.416C417.469 279.106 416.046 278.831 415.051 280.436C413.977 282.168 415.136 283.284 415.895 283.811C416.176 283.368 416.47 282.877 416.777 282.332Z" fill="#D4EBF2"/>
<path d="M428.071 282.387L426.932 281.827C426.92 281.822 426.655 281.705 426.441 281.799C426.355 281.837 426.29 281.903 426.247 281.996C424.765 280.231 420.408 274.721 420.364 274.665C420.317 274.604 419.192 273.173 418.351 272.968C417.498 272.76 416.367 273.659 415.569 274.451C414.775 275.238 412.413 278.468 411.633 280.887C410.781 283.53 409.987 286.835 411.04 287.565C412.079 288.286 413.623 288.198 413.694 288.194L422.842 288.819C422.812 288.876 422.773 288.974 422.786 289.09C421.899 289.955 421.168 291.301 420.711 292.281C420.187 293.402 419.839 294.427 419.759 294.796C419.672 295.199 420.127 295.633 420.525 295.927C420.994 296.273 421.562 296.561 421.916 296.691C421.966 296.71 422.013 296.725 422.058 296.738C422.28 296.798 422.447 296.786 422.589 296.702C422.912 296.508 423.128 295.923 423.333 294.682C423.612 292.994 424.562 291.105 424.968 290.352C425.333 290.341 425.703 290.157 426.069 289.802C427.221 290.374 428.213 290.512 429.016 290.213C429.7 289.96 430.238 289.39 430.617 288.52C431.137 287.327 431.072 286.244 430.424 285.302C429.923 284.573 429.21 284.144 428.905 283.983C428.914 283.856 428.92 283.729 428.922 283.604C428.922 283.596 428.946 282.777 428.071 282.387ZM430.555 288.492C430.184 289.343 429.659 289.901 428.994 290.148C428.203 290.441 427.222 290.301 426.078 289.729L426.057 289.718L426.04 289.735C425.674 290.094 425.307 290.278 424.948 290.283L424.928 290.283L424.919 290.301C424.516 291.044 423.549 292.958 423.267 294.67C423.068 295.872 422.855 296.462 422.555 296.641C422.401 296.733 422.217 296.728 421.939 296.626C421.279 296.382 419.68 295.483 419.826 294.811C419.905 294.445 420.251 293.427 420.772 292.31C421.229 291.332 421.96 289.986 422.845 289.128L422.858 289.115L422.856 289.097C422.831 288.939 422.927 288.811 422.928 288.809L422.967 288.758L422.903 288.754L413.694 288.124L413.692 288.124C413.676 288.125 412.117 288.228 411.078 287.507C410.618 287.188 410.493 286.294 410.706 284.85C410.863 283.789 411.197 282.463 411.698 280.908C412.474 278.5 414.825 275.284 415.616 274.5C416.402 273.721 417.512 272.835 418.335 273.036C418.343 273.038 418.352 273.04 418.361 273.043C419.176 273.266 420.3 274.694 420.311 274.709C420.356 274.765 424.785 280.367 426.231 282.084L426.269 282.13L426.289 282.073C426.324 281.971 426.384 281.9 426.468 281.863C426.655 281.781 426.901 281.89 426.903 281.891L428.042 282.45C428.875 282.821 428.856 283.57 428.854 283.602C428.852 283.733 428.846 283.867 428.836 284.001L428.834 284.024L428.854 284.034C429.351 284.291 431.765 285.715 430.555 288.492Z" fill="#1D1D1B"/>
<path d="M428.518 285.906C428.877 284.804 428.904 284.012 428.904 284.004L428.836 284.002C428.836 284.01 428.81 284.794 428.453 285.887C428.124 286.896 427.438 288.382 426.04 289.735L426.087 289.786C427.496 288.422 428.186 286.923 428.518 285.906Z" fill="#1D1D1B"/>
<path d="M424.81 286.551C425.223 285.872 425.562 285.137 425.816 284.365C426.25 283.051 426.291 282.073 426.291 282.063L426.223 282.06C426.223 282.07 426.183 283.04 425.751 284.346C425.354 285.55 424.533 287.293 422.879 288.762L422.924 288.814C423.659 288.161 424.294 287.4 424.81 286.551Z" fill="#1D1D1B"/>
<path d="M424.942 290.351L424.955 290.283C424.939 290.28 423.4 289.968 422.851 289.084L422.793 289.121C423.225 289.817 424.215 290.16 424.686 290.289C424.831 290.329 424.927 290.348 424.942 290.351Z" fill="#1D1D1B"/>
<path d="M416.57 282.626C414.752 285.643 413.568 286.909 412.895 287.439C412.168 288.012 411.87 287.872 411.867 287.87L411.836 287.932C411.838 287.933 411.849 287.939 411.869 287.944C411.967 287.971 412.288 287.998 412.912 287.513C413.591 286.985 414.788 285.715 416.628 282.662C417.538 281.153 418.232 279.725 418.691 278.421C419.059 277.376 419.277 276.406 419.341 275.539C419.449 274.057 419.071 273.396 419.055 273.369L418.997 273.405C419.001 273.411 419.381 274.08 419.272 275.544C419.172 276.897 418.621 279.223 416.57 282.626Z" fill="#1D1D1B"/>
<path d="M427.123 283.78L427.066 283.818L427.662 284.748L427.719 284.71L427.123 283.78Z" fill="#1D1D1B"/>
<path d="M427.577 283.419L427.52 283.458L428.116 284.388L428.173 284.35L427.577 283.419Z" fill="#1D1D1B"/>
<path d="M421.172 277.829L421.116 277.867L421.712 278.798L421.769 278.76L421.172 277.829Z" fill="#1D1D1B"/>
<path d="M421.611 277.502L421.554 277.541L422.15 278.471L422.207 278.433L421.611 277.502Z" fill="#1D1D1B"/>
<path d="M425.139 292.561L425.045 291.447L422.767 291.559L422.66 292.12L422.516 292.606L422.72 292.962L424.231 293.112L425.139 292.561Z" fill="#FCAF90"/>
<path d="M422.921 291.672L425.165 291.558C425.218 291.554 425.261 291.492 425.26 291.416C425.259 291.341 425.215 291.282 425.161 291.285L422.917 291.399C422.748 291.408 422.585 291.516 422.472 291.695C422.356 291.876 422.301 292.109 422.314 292.35C422.341 292.8 422.623 293.139 422.956 293.122L425.395 293.402C425.402 293.401 425.409 293.4 425.415 293.397C425.459 293.382 425.491 293.325 425.49 293.26C425.489 293.184 425.444 293.126 425.391 293.129L422.952 292.849C422.722 292.861 422.527 292.629 422.509 292.322C422.499 292.157 422.537 291.998 422.616 291.874C422.695 291.75 422.803 291.678 422.921 291.672Z" fill="#F07162"/>
<path d="M421.896 292.659C422.133 292.778 422.455 292.627 422.619 292.297C422.8 291.935 422.73 291.525 422.474 291.397L420.517 290.419C420.517 290.419 420.054 290.534 419.879 290.931C419.704 291.327 419.867 291.645 419.931 291.676L421.896 292.659Z" fill="#FCAF90"/>
<path d="M422.109 293.661C422.295 293.303 422.232 292.889 421.978 292.754L419.832 291.609C419.832 291.609 419.541 291.667 419.361 292.061C419.181 292.455 419.228 292.857 419.291 292.89L421.383 294.006C421.618 294.132 421.94 293.988 422.109 293.661Z" fill="#FCAF90"/>
<path d="M421.949 292.54L419.837 291.471C419.79 291.447 419.729 291.482 419.7 291.548C419.674 291.605 419.681 291.667 419.714 291.698C419.719 291.702 419.724 291.706 419.73 291.71L421.843 292.778C422.13 292.922 422.507 292.732 422.7 292.347C422.803 292.14 422.842 291.914 422.808 291.71C422.775 291.508 422.673 291.351 422.527 291.278L420.59 290.31C420.543 290.287 420.482 290.321 420.453 290.387C420.424 290.453 420.438 290.524 420.484 290.548L422.421 291.516C422.522 291.567 422.59 291.672 422.613 291.812C422.636 291.951 422.609 292.106 422.539 292.247C422.407 292.511 422.148 292.639 421.949 292.54Z" fill="#F07162"/>
<path d="M423.375 291.214C423.571 290.85 423.508 290.425 423.249 290.29L421.29 289.269C421.072 289.156 420.732 289.395 420.624 289.622C420.438 290.013 420.495 290.418 420.558 290.451L422.657 291.545C422.888 291.665 423.204 291.531 423.375 291.214Z" fill="#FCAF90"/>
<path d="M422.714 291.427L420.619 290.322C420.573 290.298 420.511 290.331 420.481 290.397C420.455 290.454 420.462 290.516 420.494 290.547C420.499 290.552 420.504 290.556 420.51 290.559L422.606 291.665C422.891 291.814 423.269 291.63 423.465 291.246C423.57 291.041 423.61 290.815 423.579 290.609C423.548 290.406 423.448 290.247 423.303 290.171L421.381 289.17C421.335 289.146 421.274 289.179 421.244 289.245C421.214 289.31 421.228 289.383 421.273 289.407L423.195 290.409C423.296 290.461 423.363 290.568 423.384 290.708C423.405 290.849 423.377 291.003 423.306 291.144C423.172 291.406 422.912 291.53 422.714 291.427Z" fill="#F07162"/>
<path d="M421.465 293.87L419.444 292.742C419.399 292.717 419.337 292.749 419.306 292.814C419.279 292.872 419.285 292.936 419.319 292.967C419.323 292.972 419.328 292.975 419.333 292.978L421.355 294.106C421.641 294.259 421.991 294.094 422.189 293.713C422.295 293.508 422.336 293.282 422.306 293.076C422.277 292.873 422.177 292.712 422.033 292.635L419.887 291.49C419.841 291.465 419.779 291.499 419.749 291.564C419.719 291.63 419.732 291.703 419.778 291.727L421.924 292.872C422.024 292.925 422.09 293.032 422.111 293.173C422.131 293.314 422.103 293.469 422.03 293.608C421.896 293.869 421.663 293.976 421.465 293.87Z" fill="#F07162"/>
<path d="M421.531 294.945C421.706 294.613 421.651 294.226 421.417 294.096L419.434 292.996C419.434 292.996 419.163 293.046 418.992 293.411C418.821 293.776 418.861 294.152 418.919 294.185L420.853 295.257C421.07 295.378 421.371 295.248 421.531 294.945Z" fill="#FCAF90"/>
<path d="M420.963 295.066L419.029 293.994C418.984 293.969 418.922 294.001 418.891 294.066C418.864 294.124 418.87 294.188 418.904 294.219C418.908 294.223 418.913 294.227 418.918 294.23L420.852 295.302C421.118 295.449 421.474 295.284 421.664 294.925C421.765 294.734 421.806 294.521 421.78 294.325C421.754 294.133 421.662 293.98 421.527 293.905L419.543 292.805C419.498 292.78 419.436 292.813 419.406 292.877C419.375 292.943 419.387 293.016 419.432 293.041L421.415 294.141C421.507 294.191 421.566 294.29 421.584 294.42C421.601 294.55 421.574 294.691 421.506 294.819C421.381 295.057 421.142 295.166 420.963 295.066Z" fill="#F07162"/>
<path d="M480.198 274.587C480.122 274.391 479.305 272.693 479.305 272.693C479.305 272.693 476.602 271.056 473.942 271.602C472.401 271.919 471.236 273.217 471.028 274.809L470.825 276.366L479.112 274.014C479.112 274.014 480.273 274.783 480.198 274.587Z" fill="#FE9F73"/>
<path d="M479.605 273.232L471.052 274.634L470.194 281.2C470.194 281.2 469.792 283.533 471.762 284.1L470.978 287.179C470.686 288.323 471.221 289.53 472.268 290.033C472.78 290.279 473.402 290.492 474.125 290.591C476.42 290.904 477.893 289.315 478.199 288.461C478.505 287.608 478.481 283.326 478.481 283.326L478.821 281.27L479.605 273.232Z" fill="#FCAF90"/>
<path d="M473.91 277.477C475.133 276.825 476.046 278.254 476.084 278.315C476.099 278.338 476.121 278.353 476.146 278.358C476.17 278.363 476.195 278.359 476.217 278.345C476.262 278.316 476.275 278.255 476.247 278.209C476.237 278.192 475.201 276.566 473.821 277.303C473.773 277.328 473.755 277.388 473.78 277.436C473.804 277.484 473.863 277.503 473.91 277.477Z" fill="#4C222E"/>
<path d="M470.71 276.688C471.055 276.186 472.028 276.675 472.038 276.68C472.059 276.691 472.083 276.693 472.105 276.688C472.131 276.681 472.154 276.663 472.167 276.636C472.191 276.587 472.172 276.528 472.124 276.504C472.078 276.48 470.992 275.933 470.552 276.574C470.521 276.619 470.532 276.68 470.575 276.712C470.619 276.743 470.679 276.732 470.71 276.688Z" fill="#4C222E"/>
<path d="M474.776 278.696C474.798 278.533 474.686 278.385 474.528 278.363C474.369 278.342 474.224 278.455 474.203 278.617C474.182 278.779 474.293 278.928 474.451 278.95C474.61 278.971 474.755 278.857 474.776 278.696Z" fill="black"/>
<path d="M471.765 277.986C471.787 277.824 471.675 277.675 471.517 277.653C471.359 277.632 471.213 277.746 471.192 277.908C471.171 278.07 471.282 278.218 471.44 278.24C471.599 278.261 471.744 278.148 471.765 277.986Z" fill="black"/>
<path d="M477.919 283.299C480.875 284.034 481.016 279.609 481.121 278.965C481.227 278.32 482.428 277.315 482.095 275.059C481.763 272.802 479.318 272.59 479.318 272.59L479.47 273.248L478.051 275.977L477.919 283.299Z" fill="#33192C"/>
<path d="M480.028 279.309C480.154 278.337 479.487 277.444 478.536 277.314C477.586 277.185 476.712 277.867 476.585 278.839C476.458 279.81 477.126 280.704 478.077 280.833C479.027 280.963 479.9 280.281 480.028 279.309Z" fill="#FCAF90"/>
<path d="M478.369 278.394C478.733 278.25 479.135 278.446 479.139 278.448C479.163 278.46 479.192 278.45 479.204 278.425C479.216 278.401 479.206 278.372 479.182 278.359C479.164 278.351 478.739 278.142 478.335 278.302C478.102 278.394 477.926 278.59 477.812 278.883L477.748 279.048L477.886 278.941C477.906 278.925 478.368 278.574 478.812 278.947C479.058 279.154 479.041 279.467 478.951 279.672C478.859 279.885 478.635 280.117 478.306 280.072C478.303 280.071 478.3 280.07 478.296 280.07C478.27 280.067 478.246 280.085 478.242 280.112C478.238 280.139 478.256 280.164 478.283 280.168C478.286 280.168 478.289 280.169 478.293 280.169C478.65 280.218 478.925 279.976 479.04 279.712C479.175 279.4 479.11 279.07 478.873 278.871C478.524 278.577 478.158 278.685 477.965 278.78C478.065 278.591 478.201 278.461 478.369 278.394Z" fill="#F07162"/>
<path d="M476.677 282.742C474.789 285.164 471.761 284.1 471.761 284.1L471.183 286.371C476.03 286.651 476.677 282.742 476.677 282.742Z" fill="#F07162"/>
<path d="M472.614 277.584C472.588 277.576 472.562 277.592 472.555 277.619L471.929 279.962L472.918 280.453C472.922 280.455 472.927 280.456 472.932 280.457C472.952 280.46 472.973 280.449 472.982 280.43C472.994 280.406 472.983 280.376 472.96 280.364L472.044 279.909L472.648 277.645C472.655 277.618 472.64 277.591 472.614 277.584Z" fill="#F07162"/>
<path d="M478.038 276.079C478.038 276.079 482.151 275.708 481.274 273.46C480.398 271.211 476.294 270.749 474.182 269.71C472.071 268.672 472.068 271.203 472.068 271.203C472.068 271.203 470.343 271.015 470.565 272.827C470.786 274.639 478.038 276.079 478.038 276.079Z" fill="#33192C"/>
<path d="M477.338 279.344C477.293 278.111 478.028 277.245 478.028 277.245L478.239 275.632C478.239 275.632 479.706 275.717 479.896 275.777C480.086 275.837 478.715 274.867 478.642 274.817C478.57 274.766 475.957 274.916 476.79 275.515C477.622 276.114 476.812 278.674 476.841 279.062C476.869 279.451 477.338 279.344 477.338 279.344Z" fill="#33192C"/>
<path d="M473.095 281.249C473.069 281.236 471.356 280.759 471.356 280.759C471.356 280.759 471.396 281.542 472.032 281.721C472.669 281.901 473.095 281.249 473.095 281.249Z" fill="#FBFDFC"/>
<path d="M504.03 346.538C504.1 346.536 504.163 346.579 504.187 346.646L504.967 348.772C505.092 349.114 505.454 349.315 505.796 349.21C506.17 349.094 506.365 348.681 506.23 348.313L506.123 348.02C505.695 346.852 505.478 345.615 505.483 344.368L505.455 340.246L505.449 339.388C504.378 339.403 503.821 340.094 499.888 340.52C499.497 340.438 499.014 340.454 498.848 340.634L496.273 344.174C496.019 344.449 496.031 344.883 496.301 345.142C496.57 345.402 496.994 345.389 497.248 345.114L498.817 343.951C498.845 344.8 498.595 350.208 498.595 350.208C498.556 350.6 498.848 350.948 499.239 350.962C499.595 350.976 499.895 350.686 499.931 350.323L500.28 346.795C500.288 346.712 500.356 346.648 500.437 346.646L500.612 346.641C500.701 346.638 500.777 346.71 500.779 346.802L500.889 350.617C500.9 351.01 501.234 351.316 501.623 351.278C501.979 351.244 502.239 350.918 502.228 350.553L502.119 346.762C502.117 346.67 502.187 346.593 502.277 346.59L502.332 346.589C502.41 346.586 502.478 346.64 502.495 346.718L503.244 350.051C503.328 350.425 503.704 350.722 504.08 350.711C504.456 350.699 504.694 350.384 504.61 350.009L503.876 346.741C503.853 346.639 503.928 346.541 504.03 346.538Z" fill="#FCAF90"/>
<path d="M505.081 330.912L497.104 331.285L498.51 341.1L505.464 341.532C505.464 341.532 505.329 336.361 505.081 330.912Z" fill="#FCAF90"/>
<path d="M461.309 399.696L461.151 409.355L469.112 409.468L469.237 400.825L461.309 399.696Z" fill="#FE9F73"/>
<path d="M494.26 396.978L486.115 397.62L487.955 407.095L495.923 405.454L494.26 396.978Z" fill="#FE9F73"/>
<path d="M459.288 400.029C459.309 401.337 460.158 402.475 461.382 402.857C463.914 403.647 466.199 403.847 467.842 403.852C469.326 403.856 470.574 402.72 470.753 401.214C473.468 378.369 474.759 343.452 475.056 334.526C475.099 333.247 474.343 332.083 473.175 331.624L462.224 327.324C460.476 326.638 458.961 327.82 458.676 329.712L458.953 330.183C458.928 330.35 458.305 331.521 458.308 331.69L459.288 400.029Z" fill="#4CB7D8"/>
<path d="M483.595 400.481C483.832 401.522 484.685 402.298 485.723 402.422C488.785 402.79 491.405 402.426 493.104 402.039C494.304 401.767 495.13 400.645 495.047 399.391C494.418 389.931 490.532 378.653 489.173 367.794C486.724 348.235 486.576 330.5 486.576 330.5L464.338 323.829L469.884 340.286L475.057 370.549L483.595 400.481Z" fill="#67CFE8"/>
<path d="M483.165 399.433C483.182 399.489 483.232 399.525 483.286 399.525C483.298 399.525 483.309 399.524 483.321 399.52C483.388 399.5 483.426 399.429 483.406 399.361L475.18 370.52L471.323 347.96C471.311 347.89 471.247 347.845 471.178 347.856C471.11 347.868 471.064 347.934 471.076 348.004L474.935 370.578L474.937 370.585L483.165 399.433Z" fill="black"/>
<path d="M488.703 364.949L488.71 364.948C488.717 364.992 488.726 365.048 488.737 365.115C489.465 369.626 490.826 377.815 491.768 381.987C491.782 382.046 491.833 382.086 491.891 382.086C491.9 382.086 491.91 382.085 491.919 382.083C491.987 382.067 492.029 381.998 492.014 381.928C491.073 377.764 489.713 369.58 488.985 365.073C488.964 364.943 488.95 364.854 488.936 364.794C488.935 364.794 488.935 364.793 488.935 364.793C488.935 364.734 488.929 364.651 488.919 364.532L487.031 341.112C487.025 341.041 486.964 340.988 486.895 340.995C486.826 341 486.774 341.062 486.78 341.133C486.799 341.368 488.668 364.532 488.688 364.815C488.688 364.817 488.689 364.82 488.689 364.823L488.703 364.949Z" fill="black"/>
<path d="M459.251 397.8C459.251 397.8 459.252 397.8 459.253 397.8C459.322 397.799 459.378 397.74 459.377 397.669L458.482 341.326C458.481 341.255 458.428 341.196 458.354 341.199C458.284 341.2 458.229 341.259 458.23 341.33L459.125 397.673C459.126 397.744 459.182 397.8 459.251 397.8Z" fill="black"/>
<path d="M469.393 412.125C469.513 412.125 469.609 412.027 469.609 411.905V410.824C469.609 410.645 469.468 410.501 469.294 410.501H462.312L459.482 407.349L454.305 410.501H453.19C452.806 410.501 452.453 410.767 452.381 411.153C452.284 411.672 452.67 412.126 453.16 412.126L469.393 412.125Z" fill="#F7AB48"/>
<path d="M466.266 406.789C466.266 406.789 463.558 408.752 461.172 406.376L455.244 409.064C455.244 409.064 453.619 409.619 453.179 410.51H469.232V407.581C469.232 407.581 468.056 405.963 466.266 406.789Z" fill="#33192C"/>
<path d="M469.292 407.581H469.173V410.496H469.292V407.581Z" fill="black"/>
<path d="M466.233 406.739C464.902 407.674 463.503 407.474 463.489 407.472L463.472 407.592C463.476 407.593 463.613 407.613 463.839 407.613C464.358 407.613 465.347 407.509 466.3 406.839L466.233 406.739Z" fill="black"/>
<path d="M468.442 409.347L467.685 409.869L467.751 409.97L468.508 409.448L468.442 409.347Z" fill="black"/>
<path d="M467.933 409.226L467.176 409.748L467.242 409.849L468 409.327L467.933 409.226Z" fill="black"/>
<path d="M469.669 411.724V410.914C469.669 410.656 469.464 410.446 469.211 410.446H453.16C452.69 410.446 452.307 410.838 452.307 411.319C452.307 411.576 452.416 411.818 452.608 411.985L452.685 411.892C452.52 411.749 452.425 411.54 452.425 411.319C452.425 410.904 452.755 410.568 453.16 410.568H469.211C469.398 410.568 469.55 410.723 469.55 410.914V411.724L469.669 411.724Z" fill="black"/>
<path d="M454.705 409.354C455.898 408.834 461.143 406.456 461.196 406.432L461.147 406.321C461.095 406.344 455.851 408.722 454.658 409.242C453.445 409.771 453.12 410.452 453.106 410.481L453.214 410.533C453.217 410.526 453.537 409.863 454.705 409.354Z" fill="black"/>
<path d="M481.239 412.095L496.839 407.505C496.953 407.471 497.02 407.349 496.987 407.231L496.694 406.193C496.646 406.021 496.471 405.923 496.304 405.972L489.595 407.946L486.022 405.718L481.9 410.21L480.828 410.525C480.459 410.634 480.192 410.989 480.227 411.38C480.274 411.906 480.768 412.233 481.239 412.095Z" fill="#F7AB48"/>
<path d="M492.39 403.26C492.39 403.26 490.319 405.913 487.382 404.304L482.413 408.563C482.413 408.563 481.002 409.556 480.82 410.537L496.247 405.998L495.454 403.183C495.454 403.183 493.887 401.96 492.39 403.26Z" fill="#33192C"/>
<path d="M495.483 403.185L495.369 403.218L496.158 406.019L496.273 405.986L495.483 403.185Z" fill="black"/>
<path d="M492.435 403.299L492.344 403.222C491.318 404.497 489.919 404.7 489.906 404.702L489.921 404.822C489.926 404.822 490.062 404.802 490.28 404.738C490.779 404.592 491.701 404.213 492.435 403.299Z" fill="black"/>
<path d="M495.242 405.093L494.656 405.808L494.747 405.886L495.333 405.171L495.242 405.093Z" fill="black"/>
<path d="M494.687 405.09L494.1 405.806L494.191 405.884L494.778 405.168L494.687 405.09Z" fill="black"/>
<path d="M480.817 410.597L496.242 406.059C496.421 406.006 496.609 406.112 496.661 406.296L496.88 407.074L496.994 407.04L496.775 406.262C496.705 406.014 496.451 405.87 496.209 405.942L480.784 410.48C480.332 410.613 480.07 411.098 480.2 411.561C480.269 411.807 480.441 412.01 480.67 412.115L480.719 412.005C480.521 411.914 480.374 411.74 480.314 411.527C480.202 411.129 480.428 410.712 480.817 410.597Z" fill="black"/>
<path d="M481.974 408.994C482.979 408.157 487.376 404.388 487.42 404.351L487.344 404.258C487.3 404.295 482.903 408.063 481.898 408.9C480.876 409.751 480.747 410.498 480.742 410.529L480.86 410.548C480.861 410.541 480.989 409.813 481.974 408.994Z" fill="black"/>
<path d="M470.501 306.037L464.716 288.983L447.759 301.345L428.766 291.381C428.766 291.381 424.852 295.044 422.976 300.203C422.976 300.203 441.212 314.279 446.576 315.312C451.94 316.344 470.501 306.037 470.501 306.037Z" fill="#FD7583"/>
<path d="M486.711 339.787L487.839 311.582C487.839 311.582 491.42 318.106 492.48 319.888C493.541 321.669 496.416 339.571 496.416 339.571C505.024 340.489 507.025 338.931 507.025 338.931C507.025 338.931 506.238 318.908 505.542 315.146C504.846 311.385 488.348 290.388 483.478 288.347C480.325 287.026 472.927 287.333 468.103 287.714C465.263 287.939 462.535 289.908 462.15 292.793C461.365 298.677 462.593 314.06 462.593 314.06L456.617 335.814C470.942 342.639 486.711 339.787 486.711 339.787Z" fill="#FD7583"/>
<path d="M422.958 300.3C423.004 300.309 423.051 300.282 423.067 300.235C424.697 295.355 428.32 291.922 428.781 291.5L447.666 301.407L447.833 304.511C447.836 304.565 447.881 304.606 447.934 304.603C447.987 304.6 448.028 304.554 448.025 304.5L447.852 301.284L428.753 291.264L428.704 291.308C428.663 291.343 424.636 294.929 422.885 300.172C422.868 300.224 422.895 300.279 422.945 300.297C422.949 300.298 422.954 300.299 422.958 300.3Z" fill="black"/>
<path d="M447.815 301.425L459.546 292.873C459.59 292.842 459.6 292.78 459.569 292.736C459.538 292.692 459.478 292.682 459.435 292.713L447.704 301.265C447.66 301.297 447.65 301.358 447.681 301.402C447.696 301.424 447.718 301.437 447.742 301.442C447.766 301.447 447.793 301.442 447.815 301.425Z" fill="black"/>
<path d="M496.32 339.58L496.327 339.659L496.405 339.668C496.719 339.705 504.139 340.552 507.068 339.019C507.116 338.994 507.134 338.935 507.11 338.886C507.086 338.838 507.028 338.819 506.981 338.844C504.26 340.268 497.317 339.569 496.504 339.482C495.79 331.799 492.606 319.98 492.574 319.862L492.564 319.839L484.934 306.252C484.908 306.205 484.849 306.189 484.803 306.216C484.757 306.243 484.741 306.303 484.768 306.35L492.392 319.926C492.51 320.366 495.632 332.025 496.32 339.58Z" fill="black"/>
<path d="M487.2 327.57C487.252 327.572 487.297 327.53 487.299 327.476L487.935 311.586C487.937 311.532 487.895 311.486 487.843 311.484C487.789 311.482 487.745 311.524 487.743 311.578L487.107 327.468C487.105 327.517 487.139 327.56 487.186 327.568C487.19 327.569 487.195 327.57 487.2 327.57Z" fill="black"/>
<path d="M501.303 308.129C501.317 308.15 501.339 308.162 501.361 308.167C501.387 308.172 501.415 308.166 501.437 308.149C501.479 308.116 501.488 308.054 501.456 308.011C490.915 293.747 484.63 288.904 484.567 288.857C484.524 288.825 484.464 288.834 484.433 288.877C484.401 288.921 484.41 288.982 484.453 289.015C484.515 289.062 490.782 293.892 501.303 308.129Z" fill="black"/>
<path d="M480.36 287.63C473.735 286.858 468.505 287.732 468.505 287.732C468.505 287.732 469.825 290.857 473.877 291.149C477.929 291.441 480.36 287.63 480.36 287.63Z" fill="#FCAF90"/>
</g>
</svg>
