<svg width="401" height="398" viewBox="0 0 401 398" fill="none" xmlns="http://www.w3.org/2000/svg">
<g opacity="0.07">
<path d="M383.63 268.72C344.822 358.739 241.445 409.167 151.796 395.565C137.209 393.351 97.2163 386.757 61.8085 355.651C-6.35383 295.769 -20.931 177.194 34.0537 93.632C74.0728 32.8133 145.811 -1.6627 213.976 0.0617427C228.659 0.433224 284.93 2.72249 334.382 42.8927C341.646 48.793 357.666 62.8135 372.105 85.0562C406.008 137.286 408.922 210.054 383.63 268.72Z" fill="url(#paint0_linear_491_2579)"/>
<path d="M106.847 238.931C106.847 238.931 108.027 189.297 85.1665 176.013C62.3059 162.729 18.8395 154.424 17.2102 83.1545C16.2563 41.4302 15.224 23.1877 14.5318 15.2332C14.2619 12.1302 17.0193 9.62562 20.0801 10.2022C41.7311 14.281 112.066 31.0691 126.812 79.0758C144.294 135.988 106.847 238.931 106.847 238.931Z" fill="#BDD0FB"/>
<path d="M36.8246 30.0311C60.591 51.2274 88.0724 88.7403 102.72 126.253C104.601 132.436 110.1 145.583 112.489 168.943C114.622 188.425 113.561 209.012 110.975 222.64C110.811 223.501 109.98 224.067 109.119 223.903C107.637 223.622 107.834 222.029 107.848 222.079C110.802 198.796 109.576 169.817 102.807 143.669C94.1589 111.562 74.8707 80.4336 54.9205 54.0322L52.8675 51.4324C37.4109 31.5826 34.1569 31.4363 35.6019 30.0527C35.9431 29.7259 36.4773 29.723 36.8246 30.0311Z" fill="url(#paint1_linear_491_2579)"/>
<path d="M143.585 334.358C146.678 335.875 114.304 295.164 104.163 231.225C99.3837 201.095 99.3214 163.345 82.1581 148.797C67.8736 136.69 19.2655 144.334 3.36102 147.239C1.37363 147.602 0.704535 150.112 2.25154 151.411C9.87863 157.817 26.1945 172.926 30.4456 188.153C36.0491 208.223 55.1303 220.989 72.2129 224.444C89.2955 227.899 98.7982 231.251 107.12 258.57C115.442 285.889 134.797 330.049 143.585 334.358Z" fill="#91B3FA"/>
<path d="M25.7296 155.719C46.0214 156.569 67.803 165.825 78.8564 183.188L79.8996 184.845C82.3092 188.73 95.9654 216.347 103.55 239.241C103.644 239.526 103.49 239.834 103.204 239.929C102.72 240.089 102.477 239.556 102.523 239.603C97.2388 226.67 89.6491 210.273 83.6044 198.011C77.122 184.631 72.5855 175.569 57.7996 166.89C41.3423 157.542 25.6198 156.58 25.6669 156.59C25.427 156.565 25.2523 156.351 25.2768 156.111C25.3004 155.88 25.5009 155.71 25.7296 155.719Z" fill="#BDD0FB"/>
<path d="M360.77 382.226H96.8822C88.293 382.226 81.2831 375.191 81.1141 366.402L74.5297 23.8274C74.3587 14.9277 81.2589 7.56615 89.9536 7.37196L360.426 1.33009C369.268 1.13263 376.541 8.41537 376.541 17.468V366.084C376.541 374.999 369.48 382.226 360.77 382.226Z" fill="url(#paint2_linear_491_2579)"/>
<path d="M349.049 365.431H106.51C101.266 365.431 97.014 361.179 97.014 355.935V58.8093C97.014 53.565 101.266 49.3135 106.51 49.3135H349.049C354.294 49.3135 358.545 53.5648 358.545 58.8093V355.935C358.545 361.179 354.294 365.431 349.049 365.431Z" fill="#91B3FA"/>
<path d="M348.348 63.1104H203.786V74.5074H348.348V63.1104Z" fill="#BDD0FB"/>
<path d="M348.348 79.3062H203.786V85.9043H348.348V79.3062Z" fill="#BDD0FB"/>
<path d="M348.348 90.7026H203.786V97.3009H348.348V90.7026Z" fill="#BDD0FB"/>
<path d="M348.348 102.1H203.786V108.698H348.348V102.1Z" fill="#BDD0FB"/>
<path d="M198.387 205.873H115.609V217.27H198.387V205.873Z" fill="#BDD0FB"/>
<path d="M198.387 222.068H115.609V228.666H198.387V222.068Z" fill="#BDD0FB"/>
<path d="M198.387 233.465H115.609V240.064H198.387V233.465Z" fill="#BDD0FB"/>
<path d="M198.387 244.862H115.609V251.461H198.387V244.862Z" fill="#BDD0FB"/>
<path d="M200.067 148.717H192V183.078H200.067V148.717Z" fill="url(#paint3_linear_491_2579)"/>
<path d="M213.547 160.526H205.48V183.078H213.547V160.526Z" fill="url(#paint4_linear_491_2579)"/>
<path d="M227.027 131.34H218.96V183.079H227.027V131.34Z" fill="url(#paint5_linear_491_2579)"/>
<path d="M240.508 170.649H232.44V183.078H240.508V170.649Z" fill="url(#paint6_linear_491_2579)"/>
<path d="M253.988 138.256H245.92V183.078H253.988V138.256Z" fill="url(#paint7_linear_491_2579)"/>
<path d="M267.468 146.017H259.4V183.078H267.468V146.017Z" fill="url(#paint8_linear_491_2579)"/>
<path d="M280.948 154.453H272.88V183.079H280.948V154.453Z" fill="url(#paint9_linear_491_2579)"/>
<path d="M294.428 120.88H286.36V183.078H294.428V120.88Z" fill="url(#paint10_linear_491_2579)"/>
<path d="M307.908 127.46H299.84V183.079H307.908V127.46Z" fill="url(#paint11_linear_491_2579)"/>
<path d="M321.388 137.413H313.32V183.078H321.388V137.413Z" fill="url(#paint12_linear_491_2579)"/>
<path d="M334.868 171.802H326.8V183.078H334.868V171.802Z" fill="url(#paint13_linear_491_2579)"/>
<path d="M348.348 149.897H340.28V183.078H348.348V149.897Z" fill="url(#paint14_linear_491_2579)"/>
<path d="M348.348 344.436H115.609V351.034H348.348V344.436Z" fill="#BDD0FB"/>
<path d="M172.242 183.078H124.982C119.805 183.078 115.609 178.882 115.609 173.706V72.4823C115.609 67.306 119.805 63.1099 124.982 63.1099H172.242C177.418 63.1099 181.614 67.3061 181.614 72.4823V173.706C181.615 178.882 177.418 183.078 172.242 183.078Z" fill="#BDD0FB"/>
<path opacity="0.57" d="M195.972 334.239H118.624C117.29 334.239 116.209 333.158 116.209 331.824V265.873C116.209 264.539 117.29 263.458 118.624 263.458H195.972C197.306 263.458 198.387 264.539 198.387 265.873V331.824C198.387 333.158 197.306 334.239 195.972 334.239Z" fill="white"/>
<path d="M280.524 269.699C279.606 269.699 278.718 269.328 278.071 268.658C277.309 267.869 276.973 266.762 277.168 265.683L287.46 208.677C287.622 207.783 288.134 206.989 288.882 206.474C289.631 205.959 290.554 205.764 291.447 205.931C317.277 210.788 337.293 231.496 341.254 257.461C341.391 258.36 341.164 259.276 340.623 260.006C340.082 260.737 339.272 261.221 338.372 261.351L281.013 269.664C280.85 269.688 280.686 269.699 280.524 269.699Z" fill="#BDD0FB"/>
<path d="M265.42 333.039C237.479 333.039 214.748 310.308 214.748 282.367C214.748 254.427 237.479 231.695 265.42 231.695C268.539 231.695 271.707 231.994 274.834 232.582C276.675 232.929 277.892 234.696 277.559 236.54L270.105 277.825L311.649 271.804C313.498 271.539 315.226 272.813 315.509 274.665C315.896 277.197 316.092 279.788 316.092 282.367C316.092 310.308 293.36 333.039 265.42 333.039Z" fill="#BDD0FB"/>
<path d="M55.9732 205.497C55.0879 237.111 52.2171 346.158 53.5875 384.801C53.7327 388.895 57.4395 392.18 62.0637 392.314C84.9335 392.977 168.774 394.656 206.181 393.267C213.972 392.977 220.169 387.39 220.33 380.487C221.108 347.305 222.823 253.975 218.746 211.221C218.258 206.098 213.716 202.019 207.938 201.507C183.032 199.301 98.8315 193.909 66.5136 195.766C60.6851 196.101 56.1178 200.327 55.9732 205.497Z" fill="url(#paint15_linear_491_2579)"/>
<path d="M62.5417 219.435V246.227C62.5417 251.364 66.7066 255.529 71.8443 255.529H199.847C204.985 255.529 209.15 251.364 209.15 246.227V219.435C209.15 214.298 204.985 210.133 199.847 210.133H71.8443C66.7066 210.133 62.5417 214.298 62.5417 219.435Z" fill="#7D97F4"/>
<path opacity="0.2" d="M202.621 219.282C201.489 218.112 199.939 217.44 198.311 217.414L78.5366 215.511C75.3344 215.46 72.6328 217.882 72.3342 221.07L69.8455 247.643C69.6416 249.818 73.221 251.65 77.7845 251.706L195.54 253.133C200.096 253.188 203.863 251.45 203.9 249.275L204.345 223.651C204.373 222.024 203.753 220.452 202.621 219.282Z" fill="white"/>
<path d="M94.5424 282.693C94.5424 287.419 90.7107 291.251 85.9842 291.251H75.5654C70.8387 291.251 67.0071 287.419 67.0071 282.693C67.0071 277.966 70.8388 274.134 75.5654 274.134H85.9842C90.7107 274.134 94.5424 277.966 94.5424 282.693Z" fill="url(#paint16_linear_491_2579)"/>
<path d="M133.241 282.693C133.241 287.419 129.409 291.251 124.683 291.251H114.264C109.537 291.251 105.706 287.419 105.706 282.693C105.706 277.966 109.537 274.134 114.264 274.134H124.683C129.409 274.134 133.241 277.966 133.241 282.693Z" fill="url(#paint17_linear_491_2579)"/>
<path d="M170.451 282.693C170.451 287.419 166.62 291.251 161.893 291.251H151.474C146.747 291.251 142.916 287.419 142.916 282.693C142.916 277.966 146.747 274.134 151.474 274.134H161.893C166.62 274.134 170.451 277.966 170.451 282.693Z" fill="url(#paint18_linear_491_2579)"/>
<path d="M208.171 283.949C208.171 288.753 204.278 292.646 199.474 292.646H189.404C184.601 292.646 180.707 288.752 180.707 283.949C180.707 279.146 184.601 275.252 189.404 275.252H199.474C204.278 275.252 208.171 279.146 208.171 283.949Z" fill="url(#paint19_linear_491_2579)"/>
<path d="M94.5424 309.483C94.5424 314.21 90.7107 318.041 85.9842 318.041H75.5654C70.8387 318.041 67.0071 314.21 67.0071 309.483C67.0071 304.757 70.8388 300.925 75.5654 300.925H85.9842C90.7107 300.925 94.5424 304.757 94.5424 309.483Z" fill="url(#paint20_linear_491_2579)"/>
<path d="M133.241 309.483C133.241 314.21 129.409 318.041 124.683 318.041H114.264C109.537 318.041 105.706 314.21 105.706 309.483C105.706 304.757 109.537 300.925 114.264 300.925H124.683C129.409 300.925 133.241 304.757 133.241 309.483Z" fill="url(#paint21_linear_491_2579)"/>
<path d="M170.451 309.483C170.451 314.21 166.62 318.041 161.893 318.041H151.474C146.747 318.041 142.916 314.21 142.916 309.483C142.916 304.757 146.748 300.925 151.474 300.925H161.893C166.62 300.925 170.451 304.757 170.451 309.483Z" fill="url(#paint22_linear_491_2579)"/>
<path d="M209.15 309.483C209.15 314.21 205.318 318.041 200.592 318.041H190.173C185.446 318.041 181.615 314.21 181.615 309.483C181.615 304.757 185.446 300.925 190.173 300.925H200.592C205.318 300.925 209.15 304.757 209.15 309.483Z" fill="url(#paint23_linear_491_2579)"/>
<path opacity="0.63" d="M94.5424 333.211C94.5424 337.937 90.7107 341.769 85.9842 341.769H75.5654C70.8387 341.769 67.0071 337.937 67.0071 333.211C67.0071 328.484 70.8388 324.652 75.5654 324.652H85.9842C90.7107 324.652 94.5424 328.484 94.5424 333.211Z" fill="url(#paint24_linear_491_2579)"/>
<path opacity="0.63" d="M133.241 333.211C133.241 337.937 129.409 341.769 124.683 341.769H114.264C109.537 341.769 105.706 337.937 105.706 333.211C105.706 328.484 109.537 324.652 114.264 324.652H124.683C129.409 324.652 133.241 328.484 133.241 333.211Z" fill="url(#paint25_linear_491_2579)"/>
<path opacity="0.63" d="M170.451 333.211C170.451 337.937 166.62 341.769 161.893 341.769H151.474C146.747 341.769 142.916 337.937 142.916 333.211C142.916 328.484 146.747 324.652 151.474 324.652H161.893C166.62 324.652 170.451 328.484 170.451 333.211Z" fill="url(#paint26_linear_491_2579)"/>
<path opacity="0.63" d="M94.5426 359.258C94.5426 363.984 90.7108 367.816 85.9843 367.816H75.5655C70.8388 367.816 67.0072 363.984 67.0072 359.258C67.0072 354.531 70.8389 350.699 75.5655 350.699H85.9843C90.7108 350.699 94.5426 354.531 94.5426 359.258Z" fill="url(#paint27_linear_491_2579)"/>
<path opacity="0.63" d="M133.241 359.258C133.241 363.984 129.409 367.816 124.683 367.816H114.264C109.537 367.816 105.706 363.984 105.706 359.258C105.706 354.531 109.538 350.699 114.264 350.699H124.683C129.41 350.699 133.241 354.531 133.241 359.258Z" fill="url(#paint28_linear_491_2579)"/>
<path opacity="0.63" d="M170.452 359.258C170.452 363.984 166.62 367.816 161.893 367.816H151.474C146.748 367.816 142.916 363.984 142.916 359.258C142.916 354.531 146.748 350.699 151.474 350.699H161.893C166.62 350.699 170.452 354.531 170.452 359.258Z" fill="url(#paint29_linear_491_2579)"/>
<path d="M205.429 358.559C205.429 364.542 200.579 369.392 194.596 369.392H193.936C187.953 369.392 183.103 364.542 183.103 358.559V337.806C183.103 331.823 187.953 326.973 193.936 326.973H194.596C200.579 326.973 205.429 331.823 205.429 337.806V358.559Z" fill="#7D97F4"/>
<path d="M302.678 281.473C306.216 281.778 312.355 282.275 317.196 282.488C320.105 282.616 321.78 282.331 322.745 281.945C322.743 282.054 322.74 282.157 322.736 282.252C322.713 282.761 322.299 283.169 321.785 283.198C312.639 283.708 305.365 283.374 302.776 283.217C302.24 283.184 301.921 282.602 302.195 282.146C302.332 281.918 302.498 281.694 302.678 281.473Z" fill="url(#paint30_linear_491_2579)"/>
<path d="M317.196 282.488C312.355 282.275 306.216 281.778 302.678 281.472C306.156 277.205 317.196 274.329 317.196 274.329H320.314C322.458 277.42 322.768 280.363 322.745 281.945C321.78 282.331 320.105 282.616 317.196 282.488Z" fill="url(#paint31_linear_491_2579)"/>
<path d="M320.838 269.239L320.547 275.013C320.515 275.638 320.047 276.163 319.421 276.253C318.798 276.342 317.963 276.353 317.079 276.059C316.534 275.878 316.13 275.419 316.03 274.859L315.022 269.239H320.838Z" fill="url(#paint32_linear_491_2579)"/>
<path d="M361.335 282.445C362.87 282.232 363.564 281.435 363.855 280.583C363.857 280.59 363.859 280.598 363.861 280.606C364.086 281.504 363.563 282.436 362.517 282.879C361.252 283.414 359.87 283.505 358.797 283.461C357.646 283.414 356.589 282.937 356.008 282.175L355.999 282.163C357.155 282.735 358.777 282.802 361.335 282.445Z" fill="url(#paint33_linear_491_2579)"/>
<path d="M354.103 269.203H356.674C360.59 269.123 363.05 277.383 363.855 280.582C363.564 281.434 362.87 282.231 361.336 282.445C358.777 282.802 357.155 282.735 355.999 282.163C353.883 279.379 352.834 275.301 352.33 272.921C351.756 270.214 354.103 269.203 354.103 269.203Z" fill="url(#paint34_linear_491_2579)"/>
<path d="M356.343 263.844L357.771 269.522C357.946 270.219 357.613 270.939 356.969 271.269C356.17 271.679 355.046 272.11 354.012 271.985C353.526 271.927 353.123 271.584 352.962 271.127L350.866 265.152L356.343 263.844Z" fill="url(#paint35_linear_491_2579)"/>
<path d="M358.046 265.486C356.27 267.061 350.492 267.269 350.492 267.269C329.679 217.316 321.165 210.219 321.165 210.219C324.17 229.074 321.65 270.816 321.65 270.816C318.215 272.331 313.787 270.816 313.787 270.816C313.508 239.948 308.764 213.029 303.159 191.806C317.226 191.49 324.707 186.676 327.149 184.744C338.875 203.649 358.046 265.486 358.046 265.486Z" fill="url(#paint36_linear_491_2579)"/>
<path d="M323.577 127.297C326.239 140.578 325.285 164.349 324.658 175.192C324.482 178.239 326.61 182.464 328.329 185.346C328.599 185.798 328.432 186.377 327.964 186.618C325.085 188.097 315.332 192.683 304.029 193.253C303.275 193.291 302.602 192.778 302.407 192.049C294.022 160.742 284.284 140.737 284.284 140.737C295.036 123.567 323.577 127.297 323.577 127.297Z" fill="url(#paint37_linear_491_2579)"/>
<path d="M319.745 209.038C319.863 209.038 319.983 209.006 320.091 208.94C320.405 208.748 320.505 208.338 320.314 208.025C320.202 207.84 317.509 203.489 312.061 200.86C311.73 200.702 311.332 200.839 311.171 201.171C311.011 201.502 311.15 201.901 311.482 202.061C316.561 204.512 319.149 208.676 319.175 208.718C319.301 208.924 319.52 209.038 319.745 209.038Z" fill="url(#paint38_linear_491_2579)"/>
<path d="M340.278 165.414C339.423 171.601 336.896 178.349 331.841 185.518L329.919 183.951C329.919 183.951 332.137 174.951 330.876 164.737C333.995 164.129 337.677 164.756 340.278 165.414Z" fill="url(#paint39_linear_491_2579)"/>
<path d="M320.603 143.684L323.577 127.297C323.577 127.297 343.447 142.486 340.278 165.414C337.677 164.756 333.995 164.129 330.876 164.737C329.968 157.38 327.254 149.392 320.603 143.684Z" fill="url(#paint40_linear_491_2579)"/>
<path d="M284.284 140.736L291.953 157.254C290.713 167.227 285.356 171.539 279.58 173.193C279.22 168.648 278.07 164.976 277.004 162.436C284.385 154.815 284.284 140.736 284.284 140.736Z" fill="url(#paint41_linear_491_2579)"/>
<path d="M277.004 162.436C278.07 164.975 279.219 168.647 279.58 173.192C264.169 179.172 260.091 167.575 260.091 167.575L262.939 167.073C269.371 167.751 273.864 165.677 277.004 162.436Z" fill="url(#paint42_linear_491_2579)"/>
<path d="M291.35 120.343L295.053 133.955C295.469 135.485 297.123 136.306 298.594 135.717C300.182 135.083 302.197 134.216 303.931 133.28C305.783 132.28 306.362 129.899 305.19 128.152L297.491 116.673L291.35 120.343Z" fill="url(#paint43_linear_491_2579)"/>
<path d="M253.027 158.467L347.909 193C351.888 194.448 353.79 198.979 352.037 202.834L351.749 203.467C350.198 206.878 346.167 208.374 342.766 206.801L250.638 164.181L253.027 158.467Z" fill="url(#paint44_linear_491_2579)"/>
<g opacity="0.15">
<path d="M209.416 183.687C235.284 183.687 256.254 163.095 256.254 137.694C256.254 112.293 235.284 91.7012 209.416 91.7012C183.548 91.7012 162.578 112.293 162.578 137.694C162.578 163.095 183.548 183.687 209.416 183.687Z" fill="#7D97F4"/>
</g>
<path d="M157.298 137.694C157.298 165.959 180.632 188.872 209.416 188.872C238.2 188.872 261.534 165.959 261.534 137.694C261.534 109.43 238.2 86.5166 209.416 86.5166C180.632 86.5166 157.298 109.43 157.298 137.694ZM164.954 137.694C164.954 113.582 184.861 94.0343 209.416 94.0343C233.972 94.0343 253.878 113.582 253.878 137.694C253.878 161.807 233.972 181.354 209.416 181.354C184.861 181.354 164.954 161.807 164.954 137.694Z" fill="url(#paint45_linear_491_2579)"/>
<path d="M257.572 143.923C257.562 143.923 257.551 143.923 257.541 143.922C257.41 143.905 257.317 143.785 257.334 143.653C257.487 142.453 257.594 141.234 257.654 140.03C257.66 139.897 257.782 139.786 257.905 139.802C258.037 139.809 258.139 139.921 258.132 140.053C258.073 141.27 257.964 142.502 257.809 143.714C257.794 143.835 257.691 143.923 257.572 143.923ZM257.214 129.613C257.1 129.613 256.999 129.532 256.978 129.416C256.395 126.166 255.461 122.969 254.202 119.914V119.913C246.779 101.909 229.2 90.2745 209.416 90.2745C200.19 90.2745 191.222 92.8372 183.48 97.686C183.368 97.7563 183.22 97.7225 183.149 97.6101C183.079 97.4977 183.113 97.3497 183.225 97.2795C191.043 92.3831 200.1 89.7949 209.416 89.7949C229.395 89.7949 247.148 101.545 254.645 119.731C255.917 122.818 256.861 126.048 257.45 129.331C257.474 129.462 257.387 129.586 257.256 129.609C257.242 129.612 257.228 129.613 257.214 129.613Z" fill="#BDD0FB"/>
<path d="M283.249 110.001C283.215 110.234 286.338 125.534 286.338 125.534L295.036 123.566L294.231 108.625C294.231 108.625 283.814 106.087 283.249 110.001Z" fill="url(#paint46_linear_491_2579)"/>
<path d="M292.274 111.955L293.314 119.787C293.327 119.887 293.327 119.986 293.313 120.087C293.225 120.7 292.768 122.791 290.658 122.193C288.744 121.651 286.989 121.184 285.777 121.555C285.232 121.721 284.904 122.273 285.018 122.831C285.302 124.221 286 127.341 287.02 129.959C287.227 130.491 287.809 130.77 288.356 130.61C290.006 130.129 293.457 129.018 296.023 127.473C296.371 127.264 296.578 126.885 296.561 126.48C296.478 124.503 296.246 118.493 296.441 116.808C296.624 115.227 298.564 114.279 299.408 113.94C299.684 113.828 299.901 113.61 300.011 113.334C300.402 112.355 300.94 110.091 298.087 109.163C297.489 108.969 297.175 108.325 297.387 107.734C297.81 106.558 297.988 104.762 295.78 103.773C293.537 102.767 291.861 103.963 290.956 104.935C290.591 105.328 290.004 105.388 289.55 105.101C289.291 104.938 288.958 104.885 288.556 105.135C288.014 105.473 287.297 105.243 287.017 104.669C286.479 103.566 285.384 102.385 283.188 102.761C279.29 103.428 278.849 107.747 279.877 110.278C280.905 112.809 285.09 111.845 287.189 110.569C288.785 109.599 290.856 110.616 291.757 111.159C292.042 111.331 292.231 111.624 292.274 111.955Z" fill="url(#paint47_linear_491_2579)"/>
<path d="M296.791 119.664C296.791 119.664 295.189 115.177 296.835 114.078C298.481 112.979 300.919 113.55 300.382 116.8C299.715 120.843 296.791 119.664 296.791 119.664Z" fill="url(#paint48_linear_491_2579)"/>
<path d="M330.711 183.678L321.742 182.947L317.857 186.528C317.857 186.528 318.776 187.798 321.65 187.068C324.523 186.338 328.458 186.159 328.458 186.159C328.458 186.159 332.425 187.947 332.473 184.601L330.711 183.678Z" fill="url(#paint49_linear_491_2579)"/>
<path d="M261.233 169.697C260.458 170.303 257.8 169.038 256.174 168.163C255.381 167.737 254.997 166.81 255.269 165.952C255.661 164.718 256.313 163.125 257.116 162.924C258.449 162.591 264.43 167.2 261.233 169.697Z" fill="url(#paint50_linear_491_2579)"/>
<path d="M346.037 205.363C345.938 205.363 345.844 205.301 345.81 205.201C345.767 205.076 345.833 204.94 345.959 204.897C348.683 203.955 350.11 202.424 350.2 200.346C350.291 198.243 348.963 196.289 346.895 195.482L335.502 191.04C335.379 190.992 335.318 190.853 335.366 190.73C335.414 190.607 335.553 190.544 335.676 190.594L347.069 195.036C349.328 195.917 350.779 198.059 350.68 200.366C350.579 202.661 349.044 204.337 346.115 205.35C346.089 205.359 346.063 205.363 346.037 205.363Z" fill="#BDD0FB"/>
<path d="M332.079 189.687C332.05 189.687 332.02 189.682 331.992 189.671L330.515 189.096C330.392 189.047 330.331 188.909 330.379 188.785C330.427 188.662 330.566 188.601 330.689 188.649L332.166 189.224C332.289 189.273 332.35 189.411 332.302 189.535C332.265 189.629 332.175 189.687 332.079 189.687Z" fill="#BDD0FB"/>
<path d="M44.0379 385.955C44.0379 385.955 43.3543 389.824 43.0192 393.655C42.8882 395.152 44.0424 396.452 45.5438 396.514C50.645 396.726 61.5563 397.139 65.4716 396.965C66.0601 396.939 66.4449 396.336 66.2272 395.789C66.0446 395.33 65.6925 394.959 65.244 394.753L47.2205 386.469L44.0379 385.955Z" fill="url(#paint51_linear_491_2579)"/>
<path d="M43.4779 383.681L44.027 388.31C44.027 388.31 47.1843 389.779 49.3405 388.124L48.033 382.966L43.4779 383.681Z" fill="url(#paint52_linear_491_2579)"/>
<path d="M43.8907 296.664C43.6535 297.872 42.6174 356.981 48.9356 383.47C49.0389 383.902 48.8197 384.347 48.4083 384.516C47.4393 384.911 45.5394 385.485 43.2626 385.561C42.5575 385.585 41.9253 385.127 41.7264 384.45C39.9205 378.304 31.266 347.512 30.1371 318.097C28.8756 285.229 30.1371 316.978 30.1371 316.978L30.8769 296.661L43.8907 296.664Z" fill="url(#paint53_linear_491_2579)"/>
<path d="M23.3049 387.974C23.3049 387.974 22.2168 389.927 21.1634 395.118C20.9732 396.056 21.6282 396.953 22.5802 397.046C24.2646 397.212 26.8577 397.425 28.9348 397.411C29.8923 397.404 30.6395 396.57 30.5242 395.62C30.2941 393.725 29.5772 390.616 27.363 388.194L23.3049 387.974Z" fill="url(#paint54_linear_491_2579)"/>
<path d="M22.3494 382.02L23.6326 389.02C23.6326 389.02 24.9014 389.964 27.4112 389.28L26.7988 381.749L22.3494 382.02Z" fill="url(#paint55_linear_491_2579)"/>
<path d="M18.8826 298.477C13.7151 329.663 20.0036 375.557 22.1245 384.539C22.2543 385.089 22.6981 385.51 23.2556 385.603C24.2022 385.76 25.7607 385.888 27.2974 385.441C27.8268 385.288 28.1987 384.81 28.2205 384.259C28.505 376.997 27.9928 332.416 32.8077 314.797C33.0517 313.904 33.5969 313.125 34.3514 312.589L43.697 305.945L44.4135 295.206L18.8826 298.477Z" fill="url(#paint56_linear_491_2579)"/>
<path d="M51.8103 239.384C36.3241 239.129 19.2371 243.45 19.2371 243.45C14.6211 270.385 18.4299 301.452 18.4299 301.452C30.4189 304.596 43.9431 299.53 43.9431 299.53C45.9356 288.272 55.2329 256.588 55.2329 256.588C62.7994 255.649 69.0325 253.466 74.1655 250.58C70.2501 246.042 68.4043 240.267 67.6025 236.853C62.1272 238.554 56.5868 239.463 51.8103 239.384Z" fill="url(#paint57_linear_491_2579)"/>
<path d="M97.5533 216.575C96.0322 214.737 94.1066 215.606 94.1066 215.606C91.8277 225.233 79.8786 233.038 67.6024 236.853C68.404 240.267 70.2499 246.042 74.1653 250.58C94.5387 239.125 97.5533 216.575 97.5533 216.575Z" fill="url(#paint58_linear_491_2579)"/>
<path d="M97.184 217.042C97.3433 217.548 95.4999 218.319 94.4146 216.249C94.3768 215.257 93.7735 211.008 94.3662 210.2C97.523 205.896 103.643 200.501 103.643 200.501C104.678 201.522 103.825 202.524 103.825 202.524L100.856 205.617C101.477 206.739 102.235 207.687 102.59 209.044C102.859 210.072 102.694 211.171 102.175 212.106C101.654 213.045 100.943 214.266 100.271 215.221C98.9984 217.029 97.184 217.042 97.184 217.042Z" fill="url(#paint59_linear_491_2579)"/>
<path d="M99.5578 207.624L96.8522 209.918L96.0028 212.201L98.4151 214.877C98.4151 214.877 99.2263 210.346 99.829 209.366C100.432 208.385 100.119 207.911 99.5578 207.624Z" fill="url(#paint60_linear_491_2579)"/>
<path d="M25.1768 258.446L19.2371 243.451C19.2371 243.451 4.77219 253.28 2.39343 265.741C5.12663 265.942 10.1001 266.653 14.968 269.111C16.0378 263.227 25.1768 258.446 25.1768 258.446Z" fill="url(#paint61_linear_491_2579)"/>
<path d="M37.8176 272.557C37.8176 272.557 21.5771 281.735 16.0975 273.898C14.9598 272.27 14.6877 270.653 14.968 269.111C10.1 266.653 5.12667 265.943 2.39348 265.741C1.67623 269.498 2.05539 273.493 4.26282 277.531C13.8617 295.09 39.9669 276.561 39.9669 276.561L37.8176 272.557Z" fill="url(#paint62_linear_491_2579)"/>
<path d="M35.8663 284.168L44.7297 253.215C44.8303 252.864 45.13 252.608 45.493 252.565C47.099 252.378 51.7521 251.852 57.1248 251.398C62.9495 250.905 69.6197 250.496 74.1694 250.695C75.4901 250.752 76.3176 252.142 75.7287 253.326C72.4091 259.999 62.9329 278.731 58.0239 285.156C57.8496 285.384 57.58 285.517 57.293 285.515L36.7286 285.323C36.1303 285.318 35.7017 284.744 35.8663 284.168Z" fill="url(#paint63_linear_491_2579)"/>
<path d="M58.0444 248.714L64.4705 247.643C64.8127 247.586 65.0931 247.913 64.9842 248.243L64.348 250.17C64.2926 250.338 64.1463 250.46 63.9712 250.483L57.7872 251.309C57.4673 251.352 57.2035 251.061 57.2772 250.747L57.671 249.064C57.7134 248.882 57.8605 248.745 58.0444 248.714Z" fill="url(#paint64_linear_491_2579)"/>
<path d="M53.2326 254.155L53.7619 251.397C53.815 251.121 54.0433 250.912 54.3234 250.883L67.3028 249.566C67.7397 249.522 68.0896 249.922 67.987 250.349L67.1618 253.785C67.0959 254.06 66.8565 254.259 66.5741 254.273L53.8907 254.911C53.4779 254.932 53.1547 254.561 53.2326 254.155Z" fill="url(#paint65_linear_491_2579)"/>
<path d="M38.0078 276.69C38.0078 276.69 36.7732 271.613 37.2712 269.812C37.7693 268.01 38.7343 265.695 41.9507 266.209C45.1671 266.724 48.9612 268.079 48.9612 268.079C48.9612 268.079 48.7695 270.425 46.325 269.668L47.8407 270.841C47.8407 270.841 47.6241 272.719 45.5593 271.716L46.9692 273.271C46.9692 273.271 46.0825 274.814 44.5633 273.825C43.0443 272.835 42.316 277.301 38.0078 276.69Z" fill="url(#paint66_linear_491_2579)"/>
<path d="M36.1243 226.813L31.1968 241.063C31.1152 241.299 31.2121 241.56 31.4309 241.681C32.774 242.424 37.6132 244.57 43.4447 240.873C44.0523 240.488 44.4658 239.86 44.558 239.146L46.1536 226.813H36.1243Z" fill="url(#paint67_linear_491_2579)"/>
<path d="M46.8454 213.616C46.8454 213.616 52.2562 223.802 51.5627 227.916C50.8692 232.03 44.1632 231.735 38.3074 228.393L34.2156 217.395L46.8454 213.616Z" fill="url(#paint68_linear_491_2579)"/>
<path d="M38.5663 222.993C38.8043 222.888 38.8922 222.596 38.7496 222.379C38.316 221.716 37.5034 220.365 37.2443 219.182C37.2443 219.182 36.2716 218.559 39.72 217.734C43.1684 216.909 48.3108 215.628 49.3917 212.692C50.4456 209.831 47.6766 202.634 43.2591 208.368C43.091 208.586 42.7617 208.591 42.5938 208.373C41.8696 207.43 39.9656 205.474 37.3222 206.66C34.8487 207.77 34.5699 209.582 34.6039 210.496C34.6138 210.765 34.3736 210.974 34.1094 210.923C32.8587 210.685 29.8575 210.48 28.4566 213.559C27.3028 216.094 28.0527 217.53 28.7358 218.232C28.9571 218.46 28.8601 218.834 28.5566 218.927C27.7347 219.179 26.6732 219.876 26.7795 221.801C26.9262 224.464 29.9029 224.229 30.7503 224.108C30.8892 224.088 31.029 224.136 31.1231 224.24C31.8497 225.044 35.1237 228.458 38.6669 228.87C38.9737 228.905 39.2115 228.602 39.1111 228.31L37.5776 223.853C37.5064 223.646 37.6054 223.419 37.8056 223.33L38.5663 222.993Z" fill="url(#paint69_linear_491_2579)"/>
<path d="M39.1828 223.626C39.1828 223.626 35.3302 220.983 35.0488 223.208C34.7673 225.435 38.518 226.433 40.3759 225.603L39.1828 223.626Z" fill="url(#paint70_linear_491_2579)"/>
<path d="M293.007 392.964C293.691 392.964 294.245 392.564 294.245 392.071V285.411C294.245 284.918 293.691 284.519 293.007 284.519C292.324 284.519 291.77 284.918 291.77 285.411V392.071C291.77 392.564 292.324 392.964 293.007 392.964Z" fill="url(#paint71_linear_491_2579)"/>
<path d="M315.602 392.963C316.286 392.963 316.84 392.561 316.84 392.065V284.631C316.84 284.134 316.286 283.732 315.602 283.732C314.919 283.732 314.365 284.134 314.365 284.631V392.065C314.365 392.561 314.919 392.963 315.602 392.963Z" fill="url(#paint72_linear_491_2579)"/>
<path d="M398 393.801C398.161 393.801 398.325 393.773 398.483 393.713C399.112 393.474 399.405 392.825 399.138 392.262L347.608 283.93C347.608 283.93 344.651 283.368 344.918 283.93L396.86 393.128C397.06 393.549 397.518 393.801 398 393.801Z" fill="url(#paint73_linear_491_2579)"/>
<path d="M358.908 393.802C359.07 393.802 359.234 393.774 359.392 393.713C360.021 393.474 360.314 392.825 360.047 392.263L308.761 284.444C308.493 283.882 305.752 283.773 306.019 284.335L357.769 393.128C357.969 393.549 358.427 393.802 358.908 393.802Z" fill="url(#paint74_linear_491_2579)"/>
<path d="M290.451 286.527H365.585C365.805 286.527 365.983 286.349 365.983 286.129V283.807C365.983 283.587 365.805 283.409 365.585 283.409H290.451C290.231 283.409 290.052 283.587 290.052 283.807V286.129C290.052 286.349 290.231 286.527 290.451 286.527Z" fill="url(#paint75_linear_491_2579)"/>
<path d="M356.42 304.049H317.213V306.261H356.42V304.049Z" fill="url(#paint76_linear_491_2579)"/>
<path d="M368.066 329.211H328.859V331.424H368.066V329.211Z" fill="url(#paint77_linear_491_2579)"/>
<path d="M341.072 356.586H380.279C380.963 356.586 381.517 356.091 381.517 355.48C381.517 354.869 380.963 354.374 380.279 354.374H341.072C340.389 354.374 339.835 354.869 339.835 355.48C339.835 356.091 340.389 356.586 341.072 356.586Z" fill="url(#paint78_linear_491_2579)"/>
<path d="M352.88 381.749H392.087C392.771 381.749 393.325 381.254 393.325 380.643C393.325 380.032 392.771 379.537 392.087 379.537H352.88C352.197 379.537 351.643 380.032 351.643 380.643C351.643 381.254 352.197 381.749 352.88 381.749Z" fill="url(#paint79_linear_491_2579)"/>
<path d="M282.544 29.8488L296.881 17.9446C298.263 16.7968 300.004 16.1685 301.8 16.1685H371.218C375.471 16.1685 378.919 19.6162 378.919 23.8697V47.678C378.919 51.9312 375.471 55.3791 371.218 55.3791H301.8C300.004 55.3791 298.263 54.7508 296.881 53.603L282.544 41.6987C278.835 38.6194 278.835 32.9283 282.544 29.8488Z" fill="url(#paint80_linear_491_2579)"/>
<path d="M350.152 22.9233H362.534C365.787 22.9233 368.424 25.5605 368.424 28.8136V41.1955C368.424 44.4487 365.787 47.0858 362.534 47.0858H350.152C346.899 47.0858 344.262 44.4487 344.262 41.1955V28.8136C344.262 25.5604 346.899 22.9233 350.152 22.9233Z" fill="white"/>
<path d="M349.607 31.9214L356.088 43.7108L363.078 26.2969L355.45 35.4744L349.607 31.9214Z" fill="url(#paint81_linear_491_2579)"/>
<path d="M72.093 187.311C81.0135 187.311 88.245 180.08 88.245 171.159C88.245 162.239 81.0135 155.007 72.093 155.007C63.1725 155.007 55.941 162.239 55.941 171.159C55.941 180.08 63.1725 187.311 72.093 187.311Z" fill="url(#paint82_linear_491_2579)"/>
<path d="M72.0929 186.774C80.7167 186.774 87.7077 179.783 87.7077 171.159C87.7077 162.535 80.7167 155.544 72.0929 155.544C63.469 155.544 56.478 162.535 56.478 171.159C56.478 179.783 63.469 186.774 72.0929 186.774Z" fill="url(#paint83_linear_491_2579)"/>
<path opacity="0.78" d="M59.5394 164.542C59.4604 164.538 59.3811 164.516 59.3077 164.474C59.0571 164.331 58.9701 164.012 59.1132 163.762C61.9272 158.833 67.1941 155.951 72.8587 156.242C73.7628 156.289 74.6637 156.417 75.5368 156.622C75.8173 156.688 75.9912 156.969 75.9253 157.25C75.8592 157.531 75.5794 157.707 75.2973 157.638C74.4853 157.447 73.6467 157.328 72.8051 157.285C67.5366 157.015 62.6378 159.695 60.0201 164.279C59.9191 164.457 59.73 164.552 59.5394 164.542Z" fill="white"/>
<path opacity="0.78" d="M81.7579 180.861C86.9191 175.699 86.9191 167.332 81.758 162.17C76.5968 157.009 68.2289 157.009 63.0677 162.17C57.9065 167.332 57.9065 175.7 63.0676 180.861C68.2288 186.022 76.5967 186.022 81.7579 180.861Z" fill="white"/>
<path d="M70.6163 181.263L70.69 179.827C69.1962 179.69 67.7337 179.261 66.7057 178.746C66.3387 178.563 66.1689 178.132 66.297 177.742L66.7305 176.423C66.8894 175.939 67.4361 175.713 67.895 175.933C68.9157 176.424 70.186 176.836 71.5749 176.907C73.0168 176.982 74.117 176.548 74.1685 175.546C74.2149 174.642 73.4116 174.062 71.4353 173.421C68.6163 172.492 66.6275 171.141 66.7566 168.624C66.8732 166.351 68.6241 164.701 71.5316 164.385L71.6053 162.949C71.629 162.487 72.0228 162.131 72.4849 162.155L73.3286 162.198C73.7906 162.222 74.146 162.616 74.1223 163.078L74.0561 164.367C75.4385 164.494 76.4346 164.782 77.2203 165.105C77.6229 165.27 77.8242 165.723 77.6889 166.136L77.29 167.356C77.1362 167.826 76.613 168.062 76.1597 167.863C75.4373 167.547 74.4105 167.203 73.0566 167.134C71.3459 167.046 70.8209 167.729 70.7882 168.365C70.7481 169.147 71.7468 169.737 73.9355 170.536C77.0635 171.652 78.3153 173.039 78.1937 175.41C78.082 177.585 76.3688 179.457 73.2157 179.785L73.1331 181.392C73.1094 181.854 72.7156 182.209 72.2535 182.186L71.4097 182.142C70.948 182.119 70.5926 181.725 70.6163 181.263Z" fill="url(#paint84_linear_491_2579)"/>
<path d="M86.307 140.589C100.865 140.589 112.667 128.787 112.667 114.229C112.667 99.6704 100.865 87.8687 86.307 87.8687C71.7488 87.8687 59.947 99.6704 59.947 114.229C59.947 128.787 71.7488 140.589 86.307 140.589Z" fill="url(#paint85_linear_491_2579)"/>
<path d="M86.307 139.713C100.381 139.713 111.79 128.304 111.79 114.23C111.79 100.155 100.381 88.7461 86.307 88.7461C72.2328 88.7461 60.8235 100.155 60.8235 114.23C60.8235 128.304 72.2328 139.713 86.307 139.713Z" fill="url(#paint86_linear_491_2579)"/>
<path opacity="0.78" d="M65.8384 103.069C65.7644 103.065 65.6901 103.044 65.6212 103.005C65.3864 102.871 65.3047 102.572 65.4388 102.337C69.9632 94.4121 78.4311 89.7792 87.5382 90.2467C88.9914 90.3213 90.4403 90.5268 91.8441 90.8584C92.1073 90.9202 92.2704 91.1837 92.2083 91.4472C92.1462 91.7101 91.8828 91.8762 91.6195 91.8109C90.2728 91.4934 88.8826 91.296 87.488 91.2244C78.7522 90.776 70.6293 95.2202 66.289 102.822C66.1943 102.988 66.0171 103.078 65.8384 103.069Z" fill="white"/>
<path opacity="0.78" d="M102.082 130.063C110.505 121.64 110.505 107.984 102.082 99.5608C93.659 91.1378 80.0027 91.1378 71.5797 99.5608C63.1567 107.984 63.1567 121.64 71.5797 130.063C80.0027 138.486 93.659 138.486 102.082 130.063Z" fill="white"/>
<path d="M83.8969 130.717L84.0172 128.373C81.5792 128.15 79.1925 127.45 77.5148 126.61C76.9157 126.31 76.6386 125.607 76.8478 124.97L77.5551 122.818C77.8147 122.028 78.7068 121.659 79.4559 122.019C81.1216 122.82 83.1948 123.493 85.4615 123.609C87.8145 123.73 89.6103 123.022 89.6942 121.387C89.77 119.911 88.459 118.964 85.2338 117.919C80.6332 116.403 77.3873 114.197 77.5983 110.09C77.7887 106.38 80.6462 103.688 85.391 103.172L85.5113 100.828C85.5501 100.074 86.1928 99.4943 86.9468 99.5331L88.3238 99.6037C89.078 99.6425 89.6579 100.285 89.6192 101.039L89.5113 103.143C91.7671 103.35 93.3929 103.821 94.6752 104.347C95.3322 104.616 95.6608 105.356 95.44 106.031L94.7889 108.022C94.5378 108.789 93.6839 109.173 92.9441 108.849C91.7652 108.333 90.0894 107.772 87.8799 107.659C85.088 107.515 84.2313 108.631 84.178 109.668C84.1125 110.944 85.7425 111.907 89.3142 113.21C94.4192 115.032 96.4622 117.296 96.2634 121.165C96.0813 124.714 93.2853 127.77 88.1394 128.305L88.0047 130.928C87.966 131.682 87.3233 132.262 86.5693 132.223L85.1922 132.153C84.4381 132.114 83.8582 131.471 83.8969 130.717Z" fill="url(#paint87_linear_491_2579)"/>
<path d="M121.77 190.401C136.75 190.401 148.894 178.257 148.894 163.276C148.894 148.296 136.75 136.152 121.77 136.152C106.79 136.152 94.6458 148.296 94.6458 163.276C94.6458 178.257 106.79 190.401 121.77 190.401Z" fill="url(#paint88_linear_491_2579)"/>
<path d="M121.77 189.499C136.252 189.499 147.992 177.758 147.992 163.276C147.992 148.794 136.252 137.054 121.77 137.054C107.288 137.054 95.5479 148.794 95.5479 163.276C95.5479 177.758 107.288 189.499 121.77 189.499Z" fill="url(#paint89_linear_491_2579)"/>
<path opacity="0.78" d="M100.709 151.778C100.635 151.775 100.56 151.754 100.492 151.715C100.257 151.58 100.175 151.281 100.309 151.047C104.962 142.897 113.67 138.133 123.036 138.613C124.53 138.69 126.02 138.902 127.464 139.242C127.727 139.304 127.891 139.568 127.828 139.831C127.766 140.094 127.505 140.259 127.24 140.195C125.853 139.868 124.421 139.665 122.986 139.591C113.991 139.129 105.628 143.705 101.159 151.532C101.065 151.698 100.888 151.787 100.709 151.778Z" fill="white"/>
<path opacity="0.78" d="M143.525 170.359C147.108 158.637 140.51 146.231 128.789 142.648C117.067 139.065 104.66 145.663 101.077 157.384C97.4944 169.106 104.092 181.513 115.814 185.096C127.536 188.679 139.943 182.081 143.525 170.359Z" fill="white"/>
<path d="M119.29 180.243L119.414 177.831C116.905 177.602 114.449 176.881 112.723 176.017C112.107 175.709 111.821 174.984 112.037 174.329L112.765 172.115C113.032 171.302 113.95 170.922 114.72 171.293C116.435 172.117 118.568 172.809 120.9 172.929C123.321 173.053 125.169 172.325 125.256 170.642C125.334 169.124 123.985 168.15 120.666 167.074C115.932 165.514 112.592 163.244 112.809 159.017C113.005 155.201 115.945 152.43 120.828 151.899L120.951 149.488C120.991 148.712 121.652 148.115 122.429 148.155L123.845 148.227C124.621 148.267 125.218 148.929 125.178 149.705L125.067 151.87C127.388 152.082 129.061 152.567 130.381 153.108C131.057 153.385 131.395 154.146 131.168 154.841L130.498 156.889C130.239 157.679 129.361 158.074 128.599 157.741C127.386 157.209 125.662 156.632 123.388 156.516C120.516 156.368 119.634 157.516 119.579 158.583C119.512 159.896 121.189 160.888 124.864 162.229C130.117 164.103 132.219 166.433 132.015 170.413C131.827 174.066 128.951 177.21 123.656 177.761L123.517 180.46C123.477 181.236 122.816 181.832 122.04 181.793L120.623 181.72C119.847 181.68 119.251 181.019 119.29 180.243Z" fill="url(#paint90_linear_491_2579)"/>
<path d="M144.893 129.499C156.874 129.499 166.586 119.787 166.586 107.806C166.586 95.8255 156.874 86.1133 144.893 86.1133C132.913 86.1133 123.2 95.8255 123.2 107.806C123.2 119.787 132.913 129.499 144.893 129.499Z" fill="url(#paint91_linear_491_2579)"/>
<path d="M144.893 128.777C156.476 128.777 165.865 119.388 165.865 107.806C165.865 96.2233 156.476 86.834 144.893 86.834C133.311 86.834 123.922 96.2233 123.922 107.806C123.922 119.388 133.311 128.777 144.893 128.777Z" fill="url(#paint92_linear_491_2579)"/>
<path opacity="0.78" d="M128.042 98.7527C127.961 98.7486 127.88 98.7261 127.805 98.6831C127.549 98.5366 127.459 98.2102 127.606 97.9543C131.354 91.389 138.369 87.5511 145.913 87.9384C147.116 88 148.316 88.1704 149.48 88.445C149.767 88.5124 149.946 88.8001 149.878 89.0872C149.81 89.3743 149.525 89.5566 149.235 89.4848C148.133 89.2254 146.997 89.0642 145.858 89.0058C138.719 88.6393 132.081 92.2713 128.534 98.4839C128.43 98.665 128.237 98.7626 128.042 98.7527Z" fill="white"/>
<path opacity="0.78" d="M157.875 120.838C164.806 113.906 164.806 102.667 157.875 95.7357C150.943 88.804 139.705 88.804 132.773 95.7357C125.841 102.667 125.841 113.906 132.773 120.838C139.705 127.769 150.943 127.769 157.875 120.838Z" fill="white"/>
<path d="M142.91 121.375L143.009 119.446C141.003 119.262 139.039 118.686 137.658 117.995C137.165 117.748 136.937 117.169 137.109 116.645L137.691 114.874C137.905 114.224 138.639 113.92 139.255 114.217C140.626 114.876 142.332 115.429 144.198 115.525C146.134 115.625 147.612 115.042 147.681 113.697C147.743 112.482 146.665 111.703 144.01 110.843C140.224 109.596 137.553 107.78 137.727 104.4C137.883 101.347 140.235 99.1316 144.14 98.707L144.239 96.7781C144.27 96.1574 144.799 95.6801 145.42 95.712L146.553 95.77C147.174 95.8019 147.651 96.3309 147.619 96.9515L147.53 98.6832C149.387 98.8533 150.725 99.2408 151.78 99.6737C152.321 99.8954 152.591 100.504 152.409 101.059L151.874 102.697C151.667 103.329 150.964 103.645 150.355 103.378C149.385 102.953 148.006 102.492 146.188 102.399C143.89 102.281 143.185 103.199 143.141 104.052C143.087 105.103 144.429 105.895 147.368 106.968C151.569 108.467 153.251 110.33 153.087 113.514C152.937 116.435 150.636 118.949 146.401 119.39L146.291 121.548C146.259 122.169 145.73 122.646 145.109 122.614L143.976 122.556C143.356 122.524 142.878 121.995 142.91 121.375Z" fill="url(#paint93_linear_491_2579)"/>
</g>
<defs>
<linearGradient id="paint0_linear_491_2579" x1="433.198" y1="404.913" x2="134.82" y2="143.832" gradientUnits="userSpaceOnUse">
<stop stop-color="#DAE3FE"/>
<stop offset="1" stop-color="#E9EFFD"/>
</linearGradient>
<linearGradient id="paint1_linear_491_2579" x1="-5.41709" y1="71.0213" x2="441.515" y2="390.553" gradientUnits="userSpaceOnUse">
<stop stop-color="#DAE3FE"/>
<stop offset="1" stop-color="#E9EFFD"/>
</linearGradient>
<linearGradient id="paint2_linear_491_2579" x1="336.284" y1="76.7444" x2="8.77006" y2="425.853" gradientUnits="userSpaceOnUse">
<stop stop-color="#4F52FF"/>
<stop offset="1" stop-color="#4042E2"/>
</linearGradient>
<linearGradient id="paint3_linear_491_2579" x1="192" y1="165.898" x2="200.067" y2="165.898" gradientUnits="userSpaceOnUse">
<stop stop-color="#DAE3FE"/>
<stop offset="1" stop-color="#E9EFFD"/>
</linearGradient>
<linearGradient id="paint4_linear_491_2579" x1="205.48" y1="171.802" x2="213.547" y2="171.802" gradientUnits="userSpaceOnUse">
<stop stop-color="#DAE3FE"/>
<stop offset="1" stop-color="#E9EFFD"/>
</linearGradient>
<linearGradient id="paint5_linear_491_2579" x1="218.96" y1="157.21" x2="227.027" y2="157.21" gradientUnits="userSpaceOnUse">
<stop stop-color="#DAE3FE"/>
<stop offset="1" stop-color="#E9EFFD"/>
</linearGradient>
<linearGradient id="paint6_linear_491_2579" x1="232.44" y1="176.864" x2="240.508" y2="176.864" gradientUnits="userSpaceOnUse">
<stop stop-color="#DAE3FE"/>
<stop offset="1" stop-color="#E9EFFD"/>
</linearGradient>
<linearGradient id="paint7_linear_491_2579" x1="245.92" y1="160.667" x2="253.988" y2="160.667" gradientUnits="userSpaceOnUse">
<stop stop-color="#DAE3FE"/>
<stop offset="1" stop-color="#E9EFFD"/>
</linearGradient>
<linearGradient id="paint8_linear_491_2579" x1="259.4" y1="164.548" x2="267.468" y2="164.548" gradientUnits="userSpaceOnUse">
<stop stop-color="#DAE3FE"/>
<stop offset="1" stop-color="#E9EFFD"/>
</linearGradient>
<linearGradient id="paint9_linear_491_2579" x1="272.88" y1="168.766" x2="280.948" y2="168.766" gradientUnits="userSpaceOnUse">
<stop stop-color="#DAE3FE"/>
<stop offset="1" stop-color="#E9EFFD"/>
</linearGradient>
<linearGradient id="paint10_linear_491_2579" x1="286.36" y1="151.979" x2="294.428" y2="151.979" gradientUnits="userSpaceOnUse">
<stop stop-color="#DAE3FE"/>
<stop offset="1" stop-color="#E9EFFD"/>
</linearGradient>
<linearGradient id="paint11_linear_491_2579" x1="299.84" y1="155.269" x2="307.908" y2="155.269" gradientUnits="userSpaceOnUse">
<stop stop-color="#DAE3FE"/>
<stop offset="1" stop-color="#E9EFFD"/>
</linearGradient>
<linearGradient id="paint12_linear_491_2579" x1="313.32" y1="160.246" x2="321.388" y2="160.246" gradientUnits="userSpaceOnUse">
<stop stop-color="#DAE3FE"/>
<stop offset="1" stop-color="#E9EFFD"/>
</linearGradient>
<linearGradient id="paint13_linear_491_2579" x1="326.8" y1="177.44" x2="334.868" y2="177.44" gradientUnits="userSpaceOnUse">
<stop stop-color="#DAE3FE"/>
<stop offset="1" stop-color="#E9EFFD"/>
</linearGradient>
<linearGradient id="paint14_linear_491_2579" x1="340.28" y1="166.488" x2="348.348" y2="166.488" gradientUnits="userSpaceOnUse">
<stop stop-color="#DAE3FE"/>
<stop offset="1" stop-color="#E9EFFD"/>
</linearGradient>
<linearGradient id="paint15_linear_491_2579" x1="53.2229" y1="294.593" x2="221.359" y2="294.593" gradientUnits="userSpaceOnUse">
<stop stop-color="#09005D"/>
<stop offset="1" stop-color="#1A0F91"/>
</linearGradient>
<linearGradient id="paint16_linear_491_2579" x1="38.3438" y1="323.542" x2="151.086" y2="215.002" gradientUnits="userSpaceOnUse">
<stop stop-color="#4F52FF"/>
<stop offset="1" stop-color="#4042E2"/>
</linearGradient>
<linearGradient id="paint17_linear_491_2579" x1="56.9585" y1="342.878" x2="169.7" y2="234.337" gradientUnits="userSpaceOnUse">
<stop stop-color="#4F52FF"/>
<stop offset="1" stop-color="#4042E2"/>
</linearGradient>
<linearGradient id="paint18_linear_491_2579" x1="74.8572" y1="361.469" x2="187.599" y2="252.929" gradientUnits="userSpaceOnUse">
<stop stop-color="#4F52FF"/>
<stop offset="1" stop-color="#4042E2"/>
</linearGradient>
<linearGradient id="paint19_linear_491_2579" x1="264.357" y1="201.508" x2="203.021" y2="273.83" gradientUnits="userSpaceOnUse">
<stop stop-color="#FF928E"/>
<stop offset="1" stop-color="#FE7062"/>
</linearGradient>
<linearGradient id="paint20_linear_491_2579" x1="51.7297" y1="337.446" x2="164.472" y2="228.905" gradientUnits="userSpaceOnUse">
<stop stop-color="#4F52FF"/>
<stop offset="1" stop-color="#4042E2"/>
</linearGradient>
<linearGradient id="paint21_linear_491_2579" x1="70.3446" y1="356.781" x2="183.087" y2="248.241" gradientUnits="userSpaceOnUse">
<stop stop-color="#4F52FF"/>
<stop offset="1" stop-color="#4042E2"/>
</linearGradient>
<linearGradient id="paint22_linear_491_2579" x1="88.2434" y1="375.373" x2="200.985" y2="266.832" gradientUnits="userSpaceOnUse">
<stop stop-color="#4F52FF"/>
<stop offset="1" stop-color="#4042E2"/>
</linearGradient>
<linearGradient id="paint23_linear_491_2579" x1="106.858" y1="394.708" x2="219.6" y2="286.168" gradientUnits="userSpaceOnUse">
<stop stop-color="#4F52FF"/>
<stop offset="1" stop-color="#4042E2"/>
</linearGradient>
<linearGradient id="paint24_linear_491_2579" x1="63.5848" y1="349.76" x2="176.327" y2="241.219" gradientUnits="userSpaceOnUse">
<stop stop-color="#4F52FF"/>
<stop offset="1" stop-color="#4042E2"/>
</linearGradient>
<linearGradient id="paint25_linear_491_2579" x1="82.1995" y1="369.095" x2="194.942" y2="260.555" gradientUnits="userSpaceOnUse">
<stop stop-color="#4F52FF"/>
<stop offset="1" stop-color="#4042E2"/>
</linearGradient>
<linearGradient id="paint26_linear_491_2579" x1="100.098" y1="387.687" x2="212.84" y2="279.146" gradientUnits="userSpaceOnUse">
<stop stop-color="#4F52FF"/>
<stop offset="1" stop-color="#4042E2"/>
</linearGradient>
<linearGradient id="paint27_linear_491_2579" x1="76.5992" y1="363.278" x2="189.341" y2="254.737" gradientUnits="userSpaceOnUse">
<stop stop-color="#4F52FF"/>
<stop offset="1" stop-color="#4042E2"/>
</linearGradient>
<linearGradient id="paint28_linear_491_2579" x1="95.214" y1="382.613" x2="207.956" y2="274.073" gradientUnits="userSpaceOnUse">
<stop stop-color="#4F52FF"/>
<stop offset="1" stop-color="#4042E2"/>
</linearGradient>
<linearGradient id="paint29_linear_491_2579" x1="113.113" y1="401.205" x2="225.855" y2="292.664" gradientUnits="userSpaceOnUse">
<stop stop-color="#4F52FF"/>
<stop offset="1" stop-color="#4042E2"/>
</linearGradient>
<linearGradient id="paint30_linear_491_2579" x1="328.909" y1="245.405" x2="311.82" y2="283.722" gradientUnits="userSpaceOnUse">
<stop stop-color="#4F52FF"/>
<stop offset="1" stop-color="#4042E2"/>
</linearGradient>
<linearGradient id="paint31_linear_491_2579" x1="322.746" y1="278.424" x2="302.678" y2="278.424" gradientUnits="userSpaceOnUse">
<stop stop-color="#09005D"/>
<stop offset="1" stop-color="#1A0F91"/>
</linearGradient>
<linearGradient id="paint32_linear_491_2579" x1="320.838" y1="272.773" x2="315.022" y2="272.773" gradientUnits="userSpaceOnUse">
<stop stop-color="#FEBBBA"/>
<stop offset="1" stop-color="#FF928E"/>
</linearGradient>
<linearGradient id="paint33_linear_491_2579" x1="373.578" y1="242.271" x2="359.292" y2="283.658" gradientUnits="userSpaceOnUse">
<stop stop-color="#4F52FF"/>
<stop offset="1" stop-color="#4042E2"/>
</linearGradient>
<linearGradient id="paint34_linear_491_2579" x1="363.855" y1="275.933" x2="352.239" y2="275.933" gradientUnits="userSpaceOnUse">
<stop stop-color="#09005D"/>
<stop offset="1" stop-color="#1A0F91"/>
</linearGradient>
<linearGradient id="paint35_linear_491_2579" x1="357.817" y1="267.925" x2="350.866" y2="267.925" gradientUnits="userSpaceOnUse">
<stop stop-color="#FEBBBA"/>
<stop offset="1" stop-color="#FF928E"/>
</linearGradient>
<linearGradient id="paint36_linear_491_2579" x1="408.311" y1="77.8783" x2="314.593" y2="259.707" gradientUnits="userSpaceOnUse">
<stop stop-color="#4F52FF"/>
<stop offset="1" stop-color="#4042E2"/>
</linearGradient>
<linearGradient id="paint37_linear_491_2579" x1="-209.275" y1="-1092.09" x2="-179.067" y2="-1019.69" gradientUnits="userSpaceOnUse">
<stop stop-color="#FF928E"/>
<stop offset="1" stop-color="#FE7062"/>
</linearGradient>
<linearGradient id="paint38_linear_491_2579" x1="358.918" y1="121.172" x2="326.792" y2="183.506" gradientUnits="userSpaceOnUse">
<stop stop-color="#09005D"/>
<stop offset="1" stop-color="#1A0F91"/>
</linearGradient>
<linearGradient id="paint39_linear_491_2579" x1="325.969" y1="166.598" x2="350.716" y2="188.512" gradientUnits="userSpaceOnUse">
<stop stop-color="#FEBBBA"/>
<stop offset="1" stop-color="#FF928E"/>
</linearGradient>
<linearGradient id="paint40_linear_491_2579" x1="-190.261" y1="-1100.02" x2="-160.053" y2="-1027.62" gradientUnits="userSpaceOnUse">
<stop stop-color="#FF928E"/>
<stop offset="1" stop-color="#FE7062"/>
</linearGradient>
<linearGradient id="paint41_linear_491_2579" x1="-234.429" y1="-1081.6" x2="-204.221" y2="-1009.19" gradientUnits="userSpaceOnUse">
<stop stop-color="#FF928E"/>
<stop offset="1" stop-color="#FE7062"/>
</linearGradient>
<linearGradient id="paint42_linear_491_2579" x1="279.58" y1="168.67" x2="260.091" y2="168.67" gradientUnits="userSpaceOnUse">
<stop stop-color="#FEBBBA"/>
<stop offset="1" stop-color="#FF928E"/>
</linearGradient>
<linearGradient id="paint43_linear_491_2579" x1="298.523" y1="116.591" x2="298.736" y2="152.984" gradientUnits="userSpaceOnUse">
<stop stop-color="#FEBBBA"/>
<stop offset="1" stop-color="#FF928E"/>
</linearGradient>
<linearGradient id="paint44_linear_491_2579" x1="253.521" y1="156.662" x2="355.652" y2="205.57" gradientUnits="userSpaceOnUse">
<stop stop-color="#09005D"/>
<stop offset="1" stop-color="#1A0F91"/>
</linearGradient>
<linearGradient id="paint45_linear_491_2579" x1="173.87" y1="85.8025" x2="239.56" y2="181.7" gradientUnits="userSpaceOnUse">
<stop stop-color="#09005D"/>
<stop offset="1" stop-color="#1A0F91"/>
</linearGradient>
<linearGradient id="paint46_linear_491_2579" x1="286.714" y1="110.605" x2="301.059" y2="136.619" gradientUnits="userSpaceOnUse">
<stop stop-color="#FEBBBA"/>
<stop offset="1" stop-color="#FF928E"/>
</linearGradient>
<linearGradient id="paint47_linear_491_2579" x1="303.047" y1="114.506" x2="240.891" y2="122.365" gradientUnits="userSpaceOnUse">
<stop stop-color="#09005D"/>
<stop offset="1" stop-color="#1A0F91"/>
</linearGradient>
<linearGradient id="paint48_linear_491_2579" x1="310.001" y1="132.928" x2="297.885" y2="116.285" gradientUnits="userSpaceOnUse">
<stop stop-color="#FEBBBA"/>
<stop offset="1" stop-color="#FF928E"/>
</linearGradient>
<linearGradient id="paint49_linear_491_2579" x1="316.197" y1="177.633" x2="340.943" y2="199.547" gradientUnits="userSpaceOnUse">
<stop stop-color="#FEBBBA"/>
<stop offset="1" stop-color="#FF928E"/>
</linearGradient>
<linearGradient id="paint50_linear_491_2579" x1="262.161" y1="166.381" x2="255.182" y2="166.381" gradientUnits="userSpaceOnUse">
<stop stop-color="#FEBBBA"/>
<stop offset="1" stop-color="#FF928E"/>
</linearGradient>
<linearGradient id="paint51_linear_491_2579" x1="72.7948" y1="342.62" x2="61.2871" y2="374.266" gradientUnits="userSpaceOnUse">
<stop stop-color="#09005D"/>
<stop offset="1" stop-color="#1A0F91"/>
</linearGradient>
<linearGradient id="paint52_linear_491_2579" x1="43.4779" y1="385.939" x2="49.3405" y2="385.939" gradientUnits="userSpaceOnUse">
<stop stop-color="#FEBBBA"/>
<stop offset="1" stop-color="#FF928E"/>
</linearGradient>
<linearGradient id="paint53_linear_491_2579" x1="17.5295" y1="368.002" x2="112.229" y2="250.975" gradientUnits="userSpaceOnUse">
<stop stop-color="#09005D"/>
<stop offset="1" stop-color="#1A0F91"/>
</linearGradient>
<linearGradient id="paint54_linear_491_2579" x1="50.0945" y1="366.995" x2="-15.9065" y2="438.786" gradientUnits="userSpaceOnUse">
<stop stop-color="#09005D"/>
<stop offset="1" stop-color="#1A0F91"/>
</linearGradient>
<linearGradient id="paint55_linear_491_2579" x1="22.3493" y1="385.638" x2="27.4111" y2="385.638" gradientUnits="userSpaceOnUse">
<stop stop-color="#FEBBBA"/>
<stop offset="1" stop-color="#FF928E"/>
</linearGradient>
<linearGradient id="paint56_linear_491_2579" x1="8.24385" y1="360.488" x2="102.943" y2="243.461" gradientUnits="userSpaceOnUse">
<stop stop-color="#09005D"/>
<stop offset="1" stop-color="#1A0F91"/>
</linearGradient>
<linearGradient id="paint57_linear_491_2579" x1="96.8663" y1="176.397" x2="38.6112" y2="261.262" gradientUnits="userSpaceOnUse">
<stop stop-color="#FF928E"/>
<stop offset="1" stop-color="#FE7062"/>
</linearGradient>
<linearGradient id="paint58_linear_491_2579" x1="67.6025" y1="232.991" x2="97.5534" y2="232.991" gradientUnits="userSpaceOnUse">
<stop stop-color="#FEBBBA"/>
<stop offset="1" stop-color="#FF928E"/>
</linearGradient>
<linearGradient id="paint59_linear_491_2579" x1="90.8812" y1="227.971" x2="70.7834" y2="273.698" gradientUnits="userSpaceOnUse">
<stop stop-color="#FEBBBA"/>
<stop offset="1" stop-color="#FF928E"/>
</linearGradient>
<linearGradient id="paint60_linear_491_2579" x1="97.4096" y1="212.742" x2="105.795" y2="199.848" gradientUnits="userSpaceOnUse">
<stop stop-color="#FEBBBA"/>
<stop offset="1" stop-color="#FF928E"/>
</linearGradient>
<linearGradient id="paint61_linear_491_2579" x1="79.5655" y1="164.521" x2="21.3104" y2="249.387" gradientUnits="userSpaceOnUse">
<stop stop-color="#FF928E"/>
<stop offset="1" stop-color="#FE7062"/>
</linearGradient>
<linearGradient id="paint62_linear_491_2579" x1="2.06375" y1="275.416" x2="39.9668" y2="275.416" gradientUnits="userSpaceOnUse">
<stop stop-color="#FEBBBA"/>
<stop offset="1" stop-color="#FF928E"/>
</linearGradient>
<linearGradient id="paint63_linear_491_2579" x1="35.8308" y1="268.079" x2="75.9218" y2="268.079" gradientUnits="userSpaceOnUse">
<stop stop-color="#4F52FF"/>
<stop offset="1" stop-color="#4042E2"/>
</linearGradient>
<linearGradient id="paint64_linear_491_2579" x1="56.9869" y1="200.718" x2="59.8638" y2="234.521" gradientUnits="userSpaceOnUse">
<stop stop-color="#09005D"/>
<stop offset="1" stop-color="#1A0F91"/>
</linearGradient>
<linearGradient id="paint65_linear_491_2579" x1="56.2339" y1="200.784" x2="59.1107" y2="234.586" gradientUnits="userSpaceOnUse">
<stop stop-color="#09005D"/>
<stop offset="1" stop-color="#1A0F91"/>
</linearGradient>
<linearGradient id="paint66_linear_491_2579" x1="37.1528" y1="271.442" x2="48.9612" y2="271.442" gradientUnits="userSpaceOnUse">
<stop stop-color="#FEBBBA"/>
<stop offset="1" stop-color="#FF928E"/>
</linearGradient>
<linearGradient id="paint67_linear_491_2579" x1="31.1681" y1="234.895" x2="46.1537" y2="234.895" gradientUnits="userSpaceOnUse">
<stop stop-color="#FEBBBA"/>
<stop offset="1" stop-color="#FF928E"/>
</linearGradient>
<linearGradient id="paint68_linear_491_2579" x1="49.7178" y1="225.36" x2="33.241" y2="215.311" gradientUnits="userSpaceOnUse">
<stop stop-color="#FEBBBA"/>
<stop offset="1" stop-color="#FF928E"/>
</linearGradient>
<linearGradient id="paint69_linear_491_2579" x1="24.5193" y1="204.718" x2="45.8054" y2="221.531" gradientUnits="userSpaceOnUse">
<stop stop-color="#09005D"/>
<stop offset="1" stop-color="#1A0F91"/>
</linearGradient>
<linearGradient id="paint70_linear_491_2579" x1="45.3903" y1="229.109" x2="30.5656" y2="220.067" gradientUnits="userSpaceOnUse">
<stop stop-color="#FEBBBA"/>
<stop offset="1" stop-color="#FF928E"/>
</linearGradient>
<linearGradient id="paint71_linear_491_2579" x1="522.293" y1="98.4065" x2="402.906" y2="223.548" gradientUnits="userSpaceOnUse">
<stop stop-color="#09005D"/>
<stop offset="1" stop-color="#1A0F91"/>
</linearGradient>
<linearGradient id="paint72_linear_491_2579" x1="533.922" y1="109.504" x2="414.535" y2="234.644" gradientUnits="userSpaceOnUse">
<stop stop-color="#09005D"/>
<stop offset="1" stop-color="#1A0F91"/>
</linearGradient>
<linearGradient id="paint73_linear_491_2579" x1="563.543" y1="137.76" x2="444.156" y2="262.901" gradientUnits="userSpaceOnUse">
<stop stop-color="#09005D"/>
<stop offset="1" stop-color="#1A0F91"/>
</linearGradient>
<linearGradient id="paint74_linear_491_2579" x1="543.224" y1="118.376" x2="423.837" y2="243.517" gradientUnits="userSpaceOnUse">
<stop stop-color="#09005D"/>
<stop offset="1" stop-color="#1A0F91"/>
</linearGradient>
<linearGradient id="paint75_linear_491_2579" x1="516.479" y1="87.4236" x2="395.347" y2="214.393" gradientUnits="userSpaceOnUse">
<stop stop-color="#09005D"/>
<stop offset="1" stop-color="#1A0F91"/>
</linearGradient>
<linearGradient id="paint76_linear_491_2579" x1="528.453" y1="104.283" x2="409.066" y2="229.424" gradientUnits="userSpaceOnUse">
<stop stop-color="#09005D"/>
<stop offset="1" stop-color="#1A0F91"/>
</linearGradient>
<linearGradient id="paint77_linear_491_2579" x1="547.117" y1="122.089" x2="427.73" y2="247.23" gradientUnits="userSpaceOnUse">
<stop stop-color="#09005D"/>
<stop offset="1" stop-color="#1A0F91"/>
</linearGradient>
<linearGradient id="paint78_linear_491_2579" x1="566.078" y1="140.182" x2="446.693" y2="265.322" gradientUnits="userSpaceOnUse">
<stop stop-color="#09005D"/>
<stop offset="1" stop-color="#1A0F91"/>
</linearGradient>
<linearGradient id="paint79_linear_491_2579" x1="584.827" y1="158.065" x2="465.44" y2="283.206" gradientUnits="userSpaceOnUse">
<stop stop-color="#09005D"/>
<stop offset="1" stop-color="#1A0F91"/>
</linearGradient>
<linearGradient id="paint80_linear_491_2579" x1="373.803" y1="-49.4473" x2="278.864" y2="145.226" gradientUnits="userSpaceOnUse">
<stop stop-color="#FF928E"/>
<stop offset="1" stop-color="#FE7062"/>
</linearGradient>
<linearGradient id="paint81_linear_491_2579" x1="401.524" y1="-64.0641" x2="339.673" y2="65.3917" gradientUnits="userSpaceOnUse">
<stop stop-color="#FF928E"/>
<stop offset="1" stop-color="#FE7062"/>
</linearGradient>
<linearGradient id="paint82_linear_491_2579" x1="48.7036" y1="195.646" x2="71.63" y2="171.644" gradientUnits="userSpaceOnUse">
<stop stop-color="#FF928E"/>
<stop offset="1" stop-color="#FE7062"/>
</linearGradient>
<linearGradient id="paint83_linear_491_2579" x1="84.7967" y1="153.955" x2="15.8525" y2="247.323" gradientUnits="userSpaceOnUse">
<stop stop-color="#FF928E"/>
<stop offset="1" stop-color="#FE7062"/>
</linearGradient>
<linearGradient id="paint84_linear_491_2579" x1="85.6818" y1="160.557" x2="37.8428" y2="202.29" gradientUnits="userSpaceOnUse">
<stop stop-color="#FF928E"/>
<stop offset="1" stop-color="#FE7062"/>
</linearGradient>
<linearGradient id="paint85_linear_491_2579" x1="48.1355" y1="154.191" x2="85.5513" y2="115.02" gradientUnits="userSpaceOnUse">
<stop stop-color="#FF928E"/>
<stop offset="1" stop-color="#FE7062"/>
</linearGradient>
<linearGradient id="paint86_linear_491_2579" x1="107.04" y1="86.1525" x2="-5.47725" y2="238.529" gradientUnits="userSpaceOnUse">
<stop stop-color="#FF928E"/>
<stop offset="1" stop-color="#FE7062"/>
</linearGradient>
<linearGradient id="paint87_linear_491_2579" x1="108.484" y1="96.9255" x2="30.4106" y2="165.033" gradientUnits="userSpaceOnUse">
<stop stop-color="#FF928E"/>
<stop offset="1" stop-color="#FE7062"/>
</linearGradient>
<linearGradient id="paint88_linear_491_2579" x1="82.4918" y1="204.398" x2="120.992" y2="164.091" gradientUnits="userSpaceOnUse">
<stop stop-color="#FF928E"/>
<stop offset="1" stop-color="#FE7062"/>
</linearGradient>
<linearGradient id="paint89_linear_491_2579" x1="143.104" y1="134.385" x2="27.3251" y2="291.179" gradientUnits="userSpaceOnUse">
<stop stop-color="#FF928E"/>
<stop offset="1" stop-color="#FE7062"/>
</linearGradient>
<linearGradient id="paint90_linear_491_2579" x1="144.59" y1="145.472" x2="64.2537" y2="215.554" gradientUnits="userSpaceOnUse">
<stop stop-color="#FF928E"/>
<stop offset="1" stop-color="#FE7062"/>
</linearGradient>
<linearGradient id="paint91_linear_491_2579" x1="113.48" y1="140.694" x2="144.271" y2="108.457" gradientUnits="userSpaceOnUse">
<stop stop-color="#FF928E"/>
<stop offset="1" stop-color="#FE7062"/>
</linearGradient>
<linearGradient id="paint92_linear_491_2579" x1="161.955" y1="84.6996" x2="69.3597" y2="210.098" gradientUnits="userSpaceOnUse">
<stop stop-color="#FF928E"/>
<stop offset="1" stop-color="#FE7062"/>
</linearGradient>
<linearGradient id="paint93_linear_491_2579" x1="163.144" y1="93.5662" x2="98.8938" y2="149.615" gradientUnits="userSpaceOnUse">
<stop stop-color="#FF928E"/>
<stop offset="1" stop-color="#FE7062"/>
</linearGradient>
</defs>
</svg>
