<svg width="501" height="443" viewBox="0 0 501 443" fill="none" xmlns="http://www.w3.org/2000/svg">
<g opacity="0.1">
<path d="M219.499 369.292C324.731 369.292 410.039 286.717 410.039 184.855C410.039 82.9936 324.731 0.418457 219.499 0.418457C114.267 0.418457 28.96 82.9936 28.96 184.855C28.96 286.717 114.267 369.292 219.499 369.292Z" fill="#A6E2E2"/>
<path d="M247.007 253.068C247.007 253.068 193.894 315.459 175.108 313.834C156.323 312.208 143.45 281.797 143.45 281.797C143.45 281.797 144.094 281.463 145.187 280.828C150.686 277.688 167.596 267.288 171.554 256.186C175.385 250.162 203.247 206.433 211.725 195.276C220.847 183.283 231.581 182.815 231.581 182.815C237.631 192.447 245.27 199.774 254.738 201.155C256.038 201.344 257.303 201.467 258.511 201.523C259.086 205.442 262.894 225.441 281.449 235.675C281.449 235.675 282.163 221.744 291.676 220.508C291.676 220.508 301.754 215.163 310.071 222.98C310.071 222.98 323.254 209.284 310.071 170.822L300.661 162.582L300.649 162.571L296.335 152.638C296.335 152.638 344.479 150.311 355.614 160.3C366.75 170.277 437.981 261.52 437.981 261.52L334.367 339.389C334.367 339.389 271.545 279.08 247.007 253.068Z" fill="white"/>
<path d="M310.071 170.822C323.254 209.284 310.071 222.98 310.071 222.98C301.754 215.163 291.676 220.508 291.676 220.508L305.113 172.827L300.661 162.582L310.071 170.822Z" fill="#D7F2ED"/>
<path d="M277.745 211.611L291.676 220.508C282.163 221.744 281.449 235.674 281.449 235.674C262.894 225.441 259.086 205.442 258.511 201.522C259.684 201.578 260.823 201.567 261.904 201.5L277.745 211.611Z" fill="#D7F2ED"/>
<path d="M246.685 252.567C240.889 245.643 235.094 238.719 229.297 231.794C228.831 231.237 228.021 232.029 228.484 232.581C234.279 239.505 240.075 246.429 245.872 253.354C246.338 253.911 247.147 253.118 246.685 252.567Z" fill="#2E303D"/>
<path d="M241.606 253.93C237.503 252.225 233.4 250.52 229.297 248.816C228.624 248.536 228.037 249.495 228.716 249.777C232.82 251.481 236.922 253.186 241.025 254.891C241.698 255.172 242.285 254.213 241.606 253.93Z" fill="#2E303D"/>
<path d="M333.195 285.689C327.978 277.335 322.761 268.983 317.544 260.629C312.352 252.315 307.159 244.002 301.968 235.688C299.025 230.977 296.083 226.266 293.141 221.555C292.758 220.943 291.763 221.502 292.148 222.117C297.365 230.471 302.582 238.824 307.799 247.178C312.992 255.491 318.183 263.805 323.375 272.118C326.318 276.83 329.259 281.54 332.202 286.251C332.584 286.864 333.579 286.305 333.195 285.689Z" fill="#2E303D"/>
<path d="M172.394 252.077C172.336 253.447 172.048 254.816 171.554 256.186C167.597 267.288 150.686 277.688 145.187 280.828L143.45 274.671C143.45 274.671 134.535 276.608 128.012 271.141C127.839 271.464 127.563 271.753 127.241 271.954C126.321 272.499 125.159 272.499 124.078 272.41C119.189 271.987 114.426 270.172 110.549 267.243C108.26 265.517 106.201 263.279 105.568 260.54C104.958 257.945 105.982 254.861 108.364 253.591C108.272 253.179 108.214 252.756 108.191 252.333C108.087 249.917 109.399 247.601 111.182 245.908C112.827 244.327 114.863 243.202 116.899 242.133C116.922 242.033 116.945 241.944 116.968 241.855C117.463 240.14 118.728 238.715 120.201 237.657C121.535 236.699 123.054 236.009 124.572 235.341C117.198 231.666 110.124 227.59 110.837 225.764C112.275 222.056 127.379 223.37 142.656 228.548C157.922 233.737 162.914 241.465 162.914 241.465C167.666 239.427 172.865 239.828 172.394 252.077Z" fill="#FF9971"/>
<path d="M166.796 254.162C163.237 255.64 159.676 257.118 156.117 258.597C154.315 259.345 152.513 260.093 150.711 260.842C149.23 261.456 147.427 262.459 145.765 261.961C143.975 261.424 143.956 259.484 144.642 258.095C145.327 256.705 146.4 255.437 147.39 254.241C149.347 251.88 151.559 249.716 153.973 247.792C156.773 245.56 159.857 243.673 163.124 242.15C163.791 241.839 163.208 240.878 162.543 241.189C156.228 244.134 150.618 248.474 146.285 253.809C144.595 255.89 141.408 259.56 143.947 262.167C145.104 263.355 146.967 263.361 148.47 262.91C150.339 262.349 152.135 261.453 153.929 260.708C158.412 258.846 162.894 256.984 167.377 255.123C168.054 254.842 167.47 253.882 166.796 254.162Z" fill="#2E303D"/>
<path d="M138.735 243.044C134.271 240.465 129.809 237.885 125.345 235.306C124.708 234.938 124.129 235.901 124.764 236.268L138.154 244.006C138.791 244.375 139.37 243.412 138.735 243.044Z" fill="#2E303D"/>
<path d="M140.817 263.905C140.694 262.851 140.201 261.878 139.784 260.912C139.325 259.848 138.866 258.785 138.406 257.72C136.294 252.827 134.18 247.934 132.068 243.042C131.788 242.39 130.674 242.676 130.959 243.338C132.668 247.294 134.376 251.252 136.084 255.208C136.948 257.208 137.811 259.208 138.674 261.208C139.197 262.422 140.81 265.614 138.484 266.131C136.853 266.493 134.949 264.915 133.711 264.072C132.281 263.098 130.92 262.032 129.633 260.888C127.074 258.617 124.807 256.042 122.901 253.234C120.745 250.059 119.057 246.608 117.899 242.978C117.682 242.296 116.57 242.586 116.79 243.274C119.031 250.299 123.222 256.706 128.82 261.676C130.179 262.883 131.622 264.006 133.13 265.034C134.562 266.009 136.277 267.31 138.122 267.282C140.004 267.252 141.012 265.583 140.817 263.905Z" fill="#2E303D"/>
<path d="M131.15 264.488C130.71 263.924 129.71 264.478 130.157 265.051C130.936 266.049 131.015 267.406 130.101 268.358C129.195 269.302 127.85 269.311 126.691 268.817C125.511 268.313 124.48 267.464 123.475 266.699C122.427 265.902 121.399 265.082 120.39 264.239C116.384 260.895 112.702 257.199 109.378 253.216C108.913 252.658 108.104 253.451 108.565 254.003C111.618 257.662 114.974 261.08 118.607 264.203C120.376 265.726 122.207 267.187 124.103 268.56C125.769 269.767 127.945 270.917 129.993 269.832C131.981 268.78 132.508 266.228 131.15 264.488Z" fill="#2E303D"/>
<path d="M305.113 172.827L291.676 220.508L277.745 211.611C292.079 191.902 289.284 168.495 289.284 168.495C289.284 168.495 287.052 200.019 261.905 201.5C260.823 201.567 259.684 201.578 258.511 201.523C257.303 201.467 256.038 201.345 254.738 201.155C245.27 199.774 237.632 192.447 231.581 182.815C219.559 163.685 213.75 135.512 212.174 126.86C226.335 125.067 240.093 119.31 253.53 114.121C257.683 112.518 262.066 110.926 266.518 111.404C271.073 111.883 275.157 114.511 278.217 117.818C280.897 120.725 282.899 124.132 284.786 127.573C285.315 124.433 287.512 115.012 294.874 117.729C295.726 118.041 296.485 118.542 297.141 119.177C303.249 125.145 301.006 143.675 294.081 147.449L296.335 152.639L300.649 162.571L300.661 162.582L305.113 172.827Z" fill="#FF9971"/>
<path d="M289.284 168.495C289.284 168.495 292.079 191.902 277.745 211.611L261.905 201.5C287.052 200.019 289.284 168.495 289.284 168.495Z" fill="#2E303D"/>
<path d="M295.898 102.339C295.219 98.1523 294.161 93.7984 291.274 90.6136C288.686 87.7708 284.215 86.2597 280.706 87.6594C281.712 83.9213 281.225 79.8335 279.242 76.4573C277.195 72.9742 273.683 70.3451 269.675 69.3351C259.921 66.8765 251.013 73.09 243.092 77.6254C238.859 80.0496 234.44 81.9916 229.639 83.0906C224.96 84.1618 220.106 84.4781 215.32 84.036C212.887 83.8111 210.49 83.3657 208.13 82.7532C205.775 82.1419 203.427 81.4359 200.984 81.2499C196.924 80.9404 192.789 82.4281 191.155 86.2686C189.633 89.8464 190.415 94.0222 191.896 97.4819C192.937 99.9139 194.411 102.157 196.224 104.109C191.801 103.663 187.127 105.852 184.911 109.609C182.403 113.863 183.289 119.72 186.947 123.105C190.111 126.034 194.689 126.969 199.049 127.281C203.466 127.604 207.838 127.415 212.175 126.858C226.336 125.065 240.095 119.308 253.531 114.119C257.684 112.516 262.067 110.923 266.519 111.402C271.074 111.881 275.158 114.509 278.218 117.816C280.898 120.722 282.9 124.13 284.787 127.571C285.316 124.431 287.513 115.01 294.875 117.727C295.727 118.039 296.486 118.54 297.142 119.175C297.221 113.554 296.807 107.907 295.898 102.339ZM271.476 75.0253C265.977 73.11 259.811 74.3572 254.45 76.6065C249.089 78.8447 244.189 82.0294 238.805 84.2008C228.969 88.1427 217.649 88.4879 207.595 85.1362C203.868 83.889 199.796 82.1519 196.172 83.644C193.363 84.801 191.8 87.6528 191.5 90.646C191.499 89.9745 191.534 89.303 191.65 88.6405C191.962 86.8588 192.773 85.1573 194.242 83.9982C195.833 82.7421 197.965 82.31 199.975 82.3223C202.346 82.3368 204.651 82.986 206.92 83.5895C209.13 84.1774 211.349 84.6674 213.622 84.9614C222.442 86.1016 231.572 84.6485 239.534 80.7967C247.697 76.847 255.163 70.2326 264.73 69.9376C269.008 69.8062 273.126 71.2493 276.114 74.2558C279.128 77.2891 280.53 81.5584 279.946 85.7264C279.925 85.87 279.884 86.0103 279.858 86.1528C280.072 81.4036 276.246 76.7001 271.476 75.0253Z" fill="#2E303D"/>
<path d="M271.694 168.874C271.694 168.874 278.09 180.187 268.335 186.757C258.58 193.338 251.701 183.995 251.701 183.995L271.694 168.874Z" fill="white"/>
<path d="M238.437 148.374L251.701 173.918C251.701 173.918 240.91 179.797 238.437 176.39C235.952 172.983 238.437 148.374 238.437 148.374Z" fill="#F9785A"/>
<path d="M233.553 154.14C234.572 157.474 233.457 160.731 231.064 161.415C228.671 162.099 225.907 159.952 224.89 156.618C223.872 153.284 224.987 150.027 227.379 149.342C229.772 148.658 232.537 150.806 233.553 154.14Z" fill="#2E303D"/>
<path d="M261.546 145.001C262.563 148.335 261.449 151.592 259.056 152.276C256.663 152.959 253.899 150.813 252.882 147.479C251.864 144.145 252.979 140.888 255.372 140.204C257.763 139.519 260.528 141.667 261.546 145.001Z" fill="#2E303D"/>
<path d="M227.737 140.651C225.557 141.155 223.452 141.979 221.494 143.03C220.44 143.596 220.077 145.139 220.754 146.098C221.487 147.134 222.795 147.419 223.924 146.814C224.409 146.553 224.908 146.32 225.411 146.094C226.587 145.609 227.797 145.211 229.041 144.924C230.213 144.653 230.986 143.254 230.595 142.157C230.171 140.964 228.993 140.361 227.737 140.651Z" fill="#2E303D"/>
<path d="M260.523 133.162C260.041 132.76 259.535 132.616 258.904 132.557C256.118 132.296 253.211 132.715 250.622 133.741C250.039 133.971 249.563 134.26 249.253 134.812C248.983 135.292 248.88 135.982 249.067 136.507C249.44 137.553 250.733 138.483 251.926 138.011C252.997 137.587 254.109 137.291 255.247 137.092C256.49 136.933 257.74 136.894 258.989 137.01C259.544 137.062 260.259 136.684 260.624 136.308C261.003 135.919 261.284 135.285 261.249 134.742C261.21 134.16 260.994 133.555 260.523 133.162Z" fill="#2E303D"/>
<path d="M280.397 68.9298C280.105 68.274 279.113 68.8396 279.404 69.4922C281.543 74.2859 282.602 79.4783 282.547 84.6963C282.539 85.4135 283.689 85.4135 283.697 84.6963C283.754 79.2701 282.618 73.9095 280.397 68.9298Z" fill="#2E303D"/>
<path d="M285.666 78.5316C285.174 80.4892 284.684 82.4479 284.193 84.4055C284.018 85.1014 285.127 85.3988 285.302 84.7017C285.793 82.7441 286.283 80.7854 286.775 78.8278C286.949 78.1318 285.84 77.8345 285.666 78.5316Z" fill="#2E303D"/>
<path d="M277.848 408.325V415.44H175.211L96.9738 374.273V367.87L176.706 408.325H277.848Z" fill="#8E8E8E"/>
<path d="M277.848 408.325H176.706L96.9738 367.87H198.115L277.848 408.325Z" fill="#B7B7B7"/>
<path d="M187.411 405.214H174.956L165.137 400.232H177.592L187.411 405.214Z" fill="#8E8E8E"/>
<path d="M174.248 398.557H161.793L151.974 393.576H164.43L174.248 398.557Z" fill="#8E8E8E"/>
<path d="M163.111 392.162H150.656L140.838 387.18H153.293L163.111 392.162Z" fill="#8E8E8E"/>
<path d="M149.949 385.505H137.493L127.675 380.523H140.13L149.949 385.505Z" fill="#8E8E8E"/>
<path d="M202.443 404.246H189.987L180.168 399.264H192.623L202.443 404.246Z" fill="#8E8E8E"/>
<path d="M191.305 397.851H178.85L169.031 392.869H181.486L191.305 397.851Z" fill="#8E8E8E"/>
<path d="M178.143 391.194H165.688L155.87 386.212H168.324L178.143 391.194Z" fill="#8E8E8E"/>
<path d="M205.16 396.664H192.705L182.886 391.682H195.341L205.16 396.664Z" fill="#8E8E8E"/>
<path d="M194.023 390.268H181.568L171.749 385.286H184.205L194.023 390.268Z" fill="#8E8E8E"/>
<path d="M180.862 383.612H168.406L158.587 378.63H171.042L180.862 383.612Z" fill="#8E8E8E"/>
<path d="M251.04 405.815H238.585L228.767 400.834H241.222L251.04 405.815Z" fill="#8E8E8E"/>
<path d="M237.878 399.16H225.423L215.604 394.178H228.059L237.878 399.16Z" fill="#8E8E8E"/>
<path d="M226.741 392.763H214.286L204.467 387.781H216.922L226.741 392.763Z" fill="#8E8E8E"/>
<path d="M213.579 386.107H201.124L191.305 381.125H203.76L213.579 386.107Z" fill="#8E8E8E"/>
<path d="M266.072 404.848H253.617L243.799 399.867H256.254L266.072 404.848Z" fill="#8E8E8E"/>
<path d="M254.935 398.452H242.48L232.662 393.47H245.117L254.935 398.452Z" fill="#8E8E8E"/>
<path d="M241.773 391.795H229.318L219.499 386.813H231.955L241.773 391.795Z" fill="#8E8E8E"/>
<path d="M342.463 442.515H241.322L189.68 416.26H290.822L342.463 442.515Z" fill="#D5E0E0"/>
<path d="M272.319 439.362H242.883L227.853 431.721H257.289L272.319 439.362Z" fill="#27C8CC"/>
<path d="M281.509 438.881C281.33 438.881 281.147 438.84 280.975 438.755L246.072 421.009C245.509 420.723 245.292 420.05 245.588 419.505C245.884 418.96 246.578 418.753 247.142 419.036L282.045 436.78C282.608 437.066 282.825 437.739 282.53 438.285C282.323 438.665 281.922 438.881 281.509 438.881Z" fill="#B7B7B7"/>
<path d="M293.251 438.228C293.072 438.228 292.889 438.186 292.717 438.101L257.814 420.355C257.251 420.069 257.034 419.397 257.329 418.851C257.626 418.307 258.32 418.099 258.884 418.382L293.787 436.128C294.35 436.414 294.567 437.086 294.272 437.632C294.065 438.011 293.664 438.228 293.251 438.228Z" fill="#B7B7B7"/>
<path d="M309.216 439.208C309.037 439.208 308.854 439.167 308.682 439.082L273.779 421.337C273.216 421.051 272.999 420.379 273.294 419.833C273.591 419.288 274.285 419.081 274.847 419.364L309.751 437.109C310.314 437.396 310.531 438.068 310.235 438.614C310.029 438.992 309.629 439.208 309.216 439.208Z" fill="#B7B7B7"/>
<path d="M320.958 438.554C320.779 438.554 320.596 438.513 320.424 438.427L285.521 420.683C284.958 420.397 284.741 419.724 285.036 419.179C285.333 418.634 286.027 418.427 286.591 418.71L321.494 436.455C322.057 436.741 322.274 437.414 321.978 437.958C321.771 438.338 321.371 438.554 320.958 438.554Z" fill="#B7B7B7"/>
<path d="M426.414 143.118L446.098 133.197C453.947 135.188 462.473 135.077 470.757 132.427C493.627 125.113 506.042 101.238 498.487 79.0997C490.931 56.9616 466.266 44.9443 443.395 52.258C420.537 59.5684 408.122 83.4436 415.678 105.582C417.864 111.985 421.49 117.55 426.084 122.038L426.414 143.118Z" fill="#A6E2E2"/>
<path d="M469.371 121.64V124.403H466.909H450.288H447.73V116.503L469.371 121.64Z" fill="#8E8E8E"/>
<path d="M450.288 124.404H466.909C466.909 124.404 466.516 127.732 458.546 127.732C450.585 127.732 450.288 124.404 450.288 124.404Z" fill="#B7B7B7"/>
<path d="M469.371 114.121V121.64L447.73 116.504V114.121H449.279H468.31H469.371Z" fill="#B7B7B7"/>
<path d="M484.315 80.9881C484.315 90.0901 479.232 98.053 471.653 102.337L468.31 114.12H449.28L445.948 102.337C438.37 98.053 433.275 90.0912 433.275 80.9881C433.275 67.3451 444.706 56.291 458.801 56.291C472.894 56.2899 484.315 67.3451 484.315 80.9881Z" fill="#27C8CC"/>
<path d="M448.552 86.7159C448.457 86.1268 447.532 86.3762 447.626 86.9631C449.051 95.8145 450.478 104.666 451.903 113.519C451.999 114.108 452.924 113.858 452.829 113.271C451.404 104.42 449.977 95.5685 448.552 86.7159Z" fill="white"/>
<path d="M468.791 85.8171C467.252 95.1351 465.713 104.454 464.174 113.772C464.078 114.358 465.004 114.61 465.1 114.02C466.64 104.702 468.178 95.3824 469.717 86.0643C469.813 85.4786 468.889 85.2269 468.791 85.8171Z" fill="white"/>
<path d="M471.388 92.549C470.667 94.4755 468.435 95.7772 466.335 95.3874C464.56 95.0578 463.205 93.784 462.278 92.3163C463.145 91.1104 463.757 89.7084 464.086 88.41C464.433 87.0404 464.522 85.6106 464.318 84.212C464.163 83.1475 463.646 81.789 462.377 81.6231C460.895 81.4293 460.133 82.8747 459.893 84.0584C459.582 85.5861 459.584 87.1595 459.866 88.6918C460.082 89.8699 460.497 91.0881 461.1 92.2061C460.974 92.3575 460.85 92.5101 460.714 92.6526C459.891 93.5234 458.846 94.3318 457.578 94.3986C456.366 94.4632 455.521 93.7305 454.901 92.8219C455.542 91.9288 455.987 90.8732 456.217 89.8231C456.554 88.2786 456.696 86.5605 456.588 84.9859C456.504 83.761 455.627 82.3224 454.143 82.7344C452.618 83.1586 452.362 84.9581 452.262 86.252C452.148 87.7319 452.338 89.2474 452.806 90.6605C453.04 91.3676 453.348 92.1103 453.744 92.7985C453.121 93.4956 452.312 94.0078 451.264 94.1759C448.373 94.6414 447.283 91.7774 446.721 89.6004C446.571 89.0203 445.644 89.2664 445.795 89.8476C446.419 92.2618 447.633 95.1625 450.677 95.1514C452.142 95.1458 453.34 94.5222 454.257 93.588C454.49 93.8942 454.746 94.1793 455.032 94.4265C456.14 95.3808 457.636 95.5522 458.998 95.02C460.013 94.6236 460.897 93.9399 461.64 93.1058C462.527 94.4109 463.72 95.4888 465.236 96.0455C468.071 97.0856 471.297 95.5055 472.313 92.7918C472.526 92.2328 471.598 91.9901 471.388 92.549ZM453.295 85.5939C453.384 84.9993 453.503 84.2877 453.988 83.8657C454.574 83.3546 455.237 83.6887 455.494 84.3234C455.731 84.9102 455.636 85.6206 455.617 86.2353C455.596 86.8901 455.569 87.5448 455.504 88.1962C455.381 89.4256 455.044 90.8019 454.379 91.931C453.37 89.9924 452.976 87.7408 453.295 85.5939ZM461.66 91.2006C460.624 88.9813 460.287 86.3077 460.904 83.9325C461.043 83.3936 461.302 82.7544 461.907 82.5762C462.496 82.4036 462.893 82.8891 463.107 83.3568C463.544 84.3167 463.519 85.5282 463.433 86.5527C463.293 88.2508 462.703 89.9256 461.742 91.3609C461.716 91.3063 461.685 91.254 461.66 91.2006Z" fill="white"/>
<path d="M180.234 149.359L159.756 152.433C154.987 158.133 148.51 162.612 140.763 165.054C119.376 171.795 96.394 160.478 89.4308 139.776C82.4675 119.074 94.1588 96.8293 115.545 90.088C136.921 83.3511 159.902 94.668 166.866 115.37C168.88 121.357 169.331 127.486 168.439 133.322L180.234 149.359Z" fill="white"/>
<path d="M160.514 114.924L122.382 151.835L101.651 131.755L111.702 122.027L122.382 132.363L150.45 105.194L160.514 114.924Z" fill="#27C8CC"/>
<path d="M398.926 237.102L372.951 265.319L366.313 282.657L364.955 266.399L362.229 246.59L362.505 242.926L364.058 222.225C359.744 222.615 355.545 222.504 351.6 221.813C336.069 219.141 324.221 207.66 322.737 182.817C321.828 167.685 323.76 156.282 326.372 148.064C330.202 135.993 335.529 130.815 335.529 130.815C335.529 130.815 354.959 162.317 380.704 165.803C380.704 165.803 385.421 155.035 392.772 158.208C400.134 161.382 400.134 182.806 388.469 185.612C386.939 200.434 389.171 215.622 394.923 229.441C396.027 232.08 397.304 234.73 398.926 237.102Z" fill="#FF9971"/>
<path d="M373.526 194.933C379.276 194.933 383.937 190.421 383.937 184.855C383.937 179.29 379.276 174.778 373.526 174.778C367.776 174.778 363.115 179.29 363.115 184.855C363.115 190.421 367.776 194.933 373.526 194.933Z" fill="#F9785A"/>
<path d="M377.023 219.742L363.241 233.06L364.058 222.225C368.291 221.858 372.651 221 377.023 219.742Z" fill="#2E303D"/>
<path d="M363.241 233.06L362.505 242.926C362.505 242.926 347.573 249.407 340.728 264.718C339.244 260.063 339.406 254.975 340.475 250.197C341.683 244.852 343.961 239.808 346.262 234.831C348.229 230.566 350.231 226.279 351.6 221.813C355.545 222.504 359.744 222.615 364.058 222.225L363.241 233.06Z" fill="#2E303D"/>
<path d="M338.566 170.591L344.49 194.743C344.49 194.743 334.171 197.761 332.814 195.356C331.456 192.962 338.566 170.591 338.566 170.591Z" fill="#F9785A"/>
<path d="M483.761 242.363C480.676 230.15 473.189 219.583 464.659 210.308C457.754 202.8 450.08 196.008 442.801 188.848C440.523 185.254 438.389 181.578 436.486 177.773C429.354 163.531 425.615 147.864 418.275 133.733C410.925 119.591 398.604 106.429 382.453 103.99C358.732 100.405 336.092 120.76 312.498 116.473C311.566 128.087 316.513 140.024 325.486 147.797L326.372 148.064C329.658 137.708 334.036 132.438 335.216 131.146C336.635 137.984 341.542 143.609 346.395 148.576C352.071 154.386 358.46 159.785 366.221 162.783C369.57 164.077 373.129 164.877 376.726 165.019C378.035 165.345 379.358 165.62 380.704 165.803C380.704 165.803 385.421 155.035 392.772 158.208C400.134 161.382 400.134 182.806 388.469 185.612C386.939 200.434 389.171 215.622 394.923 229.441C396.027 232.08 397.304 234.73 398.926 237.102C399.927 238.583 401.066 239.953 402.389 241.155V241.167C402.86 241.59 403.355 242.002 403.884 242.391C413.996 249.863 428.893 245.387 440.8 249.719C451.82 253.727 458.654 264.952 460.448 276.221C462.254 287.49 459.908 298.948 457.584 310.128L457.791 310.195C458.021 309.526 458.24 308.847 458.458 308.179C473.913 302.883 483.069 286.663 483.803 270.705C486.027 261.42 486.102 251.629 483.761 242.363ZM357.411 156.728C354.176 154.447 351.227 151.801 348.437 149.028C345.705 146.314 343.02 143.5 340.776 140.385C339.086 138.04 337.662 135.486 336.808 132.757C340.777 138.573 353.692 155.93 370.746 163.03C365.95 161.84 361.425 159.559 357.411 156.728ZM483.708 265.102C482.59 248.97 474.525 233.915 465.223 220.41C458.887 211.22 451.879 202.415 445.645 193.176C450.08 197.423 454.585 201.606 458.908 205.948C468.042 215.121 476.692 225.364 481.089 237.544C484.269 246.353 485.055 255.88 483.708 265.102Z" fill="#2E303D"/>
<path d="M334.227 170.802C334.227 174.278 332.204 177.095 329.709 177.095C327.214 177.095 325.192 174.277 325.192 170.802C325.192 167.326 327.214 164.508 329.709 164.508C332.204 164.508 334.227 167.325 334.227 170.802Z" fill="#2E303D"/>
<path d="M357.638 169.898C357.638 173.375 355.615 176.193 353.12 176.193C350.625 176.193 348.603 173.375 348.603 169.898C348.603 166.422 350.625 163.604 353.12 163.604C355.615 163.604 357.638 166.422 357.638 169.898Z" fill="#2E303D"/>
<path d="M332.596 156.269C330.359 156.155 328.098 156.366 325.913 156.838C324.737 157.092 323.936 158.473 324.306 159.578C324.705 160.773 325.876 161.405 327.136 161.133C327.677 161.016 328.225 160.93 328.773 160.85C330.041 160.708 331.318 160.658 332.595 160.724C333.8 160.786 334.95 159.655 334.896 158.496C334.839 157.236 333.886 156.335 332.596 156.269Z" fill="#2E303D"/>
<path d="M360.123 158.264C359.778 157.746 359.335 157.47 358.748 157.241C356.153 156.227 353.242 155.831 350.458 156.104C349.833 156.165 349.291 156.311 348.832 156.756C348.433 157.143 348.132 157.776 348.158 158.331C348.208 159.437 349.176 160.684 350.458 160.558C351.61 160.446 352.764 160.466 353.913 160.588C355.151 160.775 356.362 161.081 357.525 161.536C358.042 161.737 358.839 161.571 359.298 161.311C359.775 161.04 360.23 160.51 360.355 159.98C360.489 159.41 360.46 158.77 360.123 158.264Z" fill="#2E303D"/>
<path d="M361.867 202.917C363.535 206.906 361.967 211.284 358.364 212.695C354.762 214.105 350.489 212.015 348.821 208.025C347.153 204.036 348.721 199.658 352.324 198.248C355.927 196.837 360.2 198.928 361.867 202.917Z" fill="#E56B45"/>
<path d="M363.115 197.371C363.115 197.371 366.554 206.892 356.638 210.065C348.563 212.649 345.169 207.515 344.26 205.756L363.115 197.371Z" fill="white"/>
<path d="M457.584 310.128L457.791 310.195C454.593 319.805 450.958 329.448 447.288 338.546V338.557C435.945 366.662 424.257 389.59 423.901 390.269C412.696 375.292 391.828 365.348 385.052 362.397C383.66 361.796 382.867 361.484 382.867 361.484L378.599 373.867C378.955 374.19 379.324 374.513 379.669 374.824L340.981 379.813V364.379C340.981 364.379 340.027 362.375 338.612 359.19C336.679 354.848 333.884 348.3 331.548 341.708C328.983 334.47 326.97 327.176 327.211 322.689C327.856 311.13 354.015 266.556 354.015 266.556C354.05 272.981 355.522 278.17 355.522 278.17C355.637 277.479 355.902 276.744 356.293 275.998C356.408 276.477 360.112 291.265 367.026 302.467L381.751 278.17C382.361 279.695 382.959 281.399 383.499 283.27C383.499 283.27 399.835 257.703 402.389 241.167C402.86 241.59 403.355 242.002 403.884 242.392C413.996 249.864 428.893 245.387 440.8 249.719C451.82 253.728 458.654 264.952 460.448 276.221C462.254 287.49 459.908 298.948 457.584 310.128Z" fill="#27C8CC"/>
<path d="M447.288 338.557L454.179 397.184H423.141L425.718 392.853C425.155 391.973 424.545 391.115 423.901 390.269C424.257 389.59 435.945 366.662 447.288 338.557Z" fill="#27C8CC"/>
<path d="M423.901 390.269C424.545 391.115 425.155 391.973 425.718 392.853L423.142 397.184L410.154 419.065C410.154 419.065 405.587 398.276 379.669 374.824C379.324 374.513 378.955 374.19 378.599 373.867L382.867 361.484C382.867 361.484 383.661 361.796 385.052 362.397C391.828 365.348 412.696 375.292 423.901 390.269Z" fill="#0CBCBC"/>
<path d="M410.154 419.065C410.154 419.065 380.439 419.577 297.371 414.934C297.371 414.934 277.964 427.94 270.084 427.116C262.192 426.292 246.627 412.15 242.785 406.27C238.954 400.391 248.974 391.616 248.974 391.616C248.974 391.616 249.078 387.184 255.37 384.601C258.177 383.454 265.873 383.61 273.558 384.133C283.129 384.801 292.677 386.049 292.677 386.049L315.788 383.064L340.981 379.813L379.669 374.824C405.587 398.275 410.154 419.065 410.154 419.065Z" fill="#FF9971"/>
<path d="M402.389 241.156V241.167C399.835 257.703 383.499 283.27 383.499 283.27C382.959 281.399 382.361 279.695 381.751 278.17C377.805 268.281 372.95 265.319 372.95 265.319L398.926 237.103C399.927 238.584 401.066 239.953 402.389 241.156Z" fill="white"/>
<path d="M381.751 278.17L367.026 302.467C360.112 291.265 356.408 276.477 356.293 275.998C356.293 275.987 356.293 275.987 356.293 275.987C358.605 271.466 364.955 266.399 364.955 266.399L366.313 282.657L372.95 265.319C372.95 265.319 377.805 268.281 381.751 278.17Z" fill="#D7F2ED"/>
<path d="M353.969 336.83H363.023H371.915L372.628 372.419H346.089L345.548 336.83H353.969ZM366.301 356.963V340.249H351.876V356.963H366.301Z" fill="white"/>
<path d="M366.301 340.249H351.876V356.963H366.301V340.249Z" fill="#27C8CC"/>
<path d="M362.229 246.59L364.955 266.4C364.955 266.4 358.605 271.466 356.293 275.987C356.293 275.987 356.293 275.987 356.293 275.998C355.902 276.744 355.637 277.479 355.522 278.17C355.522 278.17 354.05 272.981 354.015 266.556C353.981 259.73 355.557 251.489 362.229 246.59Z" fill="white"/>
<path d="M358.594 331.408L363.023 336.831H353.969L358.594 331.408Z" fill="#B7B7B7"/>
<path d="M340.728 264.718C347.573 249.407 362.505 242.926 362.505 242.926L362.229 246.59C355.557 251.489 353.981 259.729 354.015 266.555C354.015 266.555 327.856 311.13 327.212 322.689C326.97 327.176 328.983 334.47 331.548 341.708L329.984 342.086L318.756 336.808L319.113 336.107C319.113 336.107 333.401 287.089 339.152 268.827C339.601 267.391 340.13 266.021 340.728 264.718Z" fill="#27C8CC"/>
<path d="M340.982 364.379V379.813L315.788 383.064L239.113 382.911C226.137 388.311 219.427 388.601 214.411 386.185C212.364 386.318 204.685 387.14 202.637 387.262C202.442 389.4 201.763 391.305 199.934 391.305C195.781 391.305 191.145 382.329 191.145 382.329C191.145 382.329 189.868 391.305 185.704 389.144C181.551 386.973 182.667 374.691 182.667 374.691C182.667 374.691 173.233 383.643 171.957 380.269C170.68 376.884 176.915 360.816 192.422 359.424C207.929 358.032 242.946 364.067 242.946 364.067L312.395 352.821L338.612 359.19C340.027 362.375 340.982 364.379 340.982 364.379Z" fill="#FF9971"/>
<path d="M338.612 359.19L312.395 352.82C310.784 340.338 315.064 335.071 315.064 335.071L318.756 336.808L331.548 341.707C333.884 348.3 336.679 354.847 338.612 359.19Z" fill="#0CBCBC"/>
<path d="M285.838 359.06C287.483 360.151 287.932 362.334 286.931 364.004C278.821 362.991 276.888 359.416 276.888 359.416C277.555 358.325 278.878 357.033 280.178 356.967C281.766 356.9 283.836 357.735 285.838 359.06Z" fill="#ED694F"/>
<path d="M286.931 364.004L282.03 372.189C275.577 371.287 272.126 367.156 272.126 367.156L276.888 359.417C276.888 359.417 278.821 362.991 286.931 364.004Z" fill="#FF9076"/>
<path d="M282.03 372.189L274.392 384.95L261.347 384.683L272.126 367.156C272.126 367.156 275.577 371.287 282.03 372.189Z" fill="#27C8CC"/>
<path d="M407.719 284.3C404.562 293.924 401.405 303.548 398.248 313.171C395.106 322.751 391.963 332.331 388.82 341.909C387.039 347.339 385.257 352.769 383.476 358.199C383.252 358.884 384.362 359.177 384.585 358.495C387.743 348.872 390.9 339.248 394.056 329.625C397.199 320.045 400.342 310.466 403.485 300.887C405.266 295.457 407.048 290.026 408.828 284.597C409.054 283.912 407.943 283.619 407.719 284.3Z" fill="#2E303D"/>
<path d="M446.717 340.138C440.104 352.87 434.026 365.861 428.507 379.072C426.95 382.798 425.439 386.543 423.971 390.302C423.709 390.974 424.82 391.263 425.08 390.598C430.25 377.358 435.973 364.322 442.241 351.534C444.021 347.903 445.845 344.292 447.71 340.701C448.042 340.062 447.05 339.497 446.717 340.138Z" fill="#2E303D"/>
<path d="M352.448 267.846C346.977 277.663 341.374 287.423 336.064 297.322C331.272 306.253 327.041 315.835 327.078 326.076C327.098 331.4 328.295 336.725 331.024 341.377C331.39 342.001 332.384 341.44 332.018 340.815C327.052 332.35 327.5 322.036 330.361 312.983C331.905 308.1 334.111 303.447 336.511 298.908C339.018 294.168 341.685 289.506 344.297 284.819C347.345 279.348 350.394 273.877 353.442 268.407C353.793 267.778 352.8 267.215 352.448 267.846Z" fill="#2E303D"/>
<path d="M381.696 279.469C375.48 293.078 369.265 306.687 363.049 320.296C361.535 323.612 360.02 326.927 358.506 330.242C356.179 316.679 355.183 302.907 355.569 289.162C355.684 285.082 355.921 281.007 356.275 276.94C356.337 276.227 355.185 276.23 355.124 276.94C353.87 291.402 354.119 305.978 355.887 320.389C356.37 324.333 356.968 328.263 357.672 332.176C357.668 332.279 357.693 332.372 357.738 332.458C357.8 332.638 357.931 332.737 358.089 332.765C358.32 332.853 358.583 332.81 358.715 332.522C358.719 332.513 358.723 332.503 358.727 332.495C358.763 332.441 358.794 332.382 358.809 332.316C364.993 318.776 371.177 305.236 377.361 291.696C379.137 287.807 380.912 283.919 382.688 280.032C382.985 279.382 381.995 278.814 381.696 279.469Z" fill="#2E303D"/>
<path d="M340.169 380.078C332.014 380.852 323.859 381.626 315.705 382.4C314.975 382.469 314.968 383.584 315.705 383.514C323.861 382.74 332.016 381.966 340.169 381.192C340.9 381.123 340.908 380.009 340.169 380.078Z" fill="#2E303D"/>
<path d="M226.415 382.146C219.556 384.248 212.472 385.646 205.304 386.263C204.481 386.334 203.659 386.394 202.835 386.445C202.144 386.487 201.428 386.567 200.742 386.43C200.218 386.324 199.632 386.082 199.668 385.47C199.713 384.71 200.711 384 201.228 383.525C203.587 381.361 206.117 379.376 208.795 377.593C211.823 375.575 215.03 373.82 218.37 372.334C219.041 372.035 218.457 371.075 217.789 371.372C211.293 374.263 205.302 378.197 200.142 382.99C199.174 383.888 197.908 385.219 198.836 386.572C199.502 387.542 200.922 387.652 202.01 387.609C205.901 387.453 209.803 386.965 213.637 386.322C218.066 385.578 222.436 384.537 226.721 383.223C227.424 383.004 227.124 381.929 226.415 382.146Z" fill="#2E303D"/>
<path d="M191.729 382.188C190.216 377.271 190.196 372.038 191.674 367.111C191.881 366.422 190.771 366.127 190.565 366.815C189.033 371.925 189.051 377.385 190.62 382.485C190.831 383.17 191.941 382.879 191.729 382.188Z" fill="#2E303D"/>
<path d="M187.399 365.311C187.105 365.141 186.8 365.274 186.612 365.511C184.47 368.219 183.009 371.405 182.365 374.759C182.231 375.459 183.34 375.76 183.474 375.055C184.103 371.781 185.515 368.717 187.605 366.073C187.796 365.833 187.643 365.453 187.399 365.311Z" fill="#2E303D"/>
<path d="M364.487 266.364C361.165 269.549 358.045 272.926 355.145 276.477C354.691 277.034 355.499 277.827 355.958 277.264C358.858 273.713 361.978 270.336 365.301 267.151C365.827 266.647 365.014 265.859 364.487 266.364Z" fill="#2E303D"/>
<path d="M383.678 282.125C381.727 275.768 378.335 269.894 373.773 264.949C373.278 264.413 372.467 265.202 372.96 265.736C377.389 270.537 380.675 276.252 382.569 282.421C382.778 283.106 383.889 282.814 383.678 282.125Z" fill="#2E303D"/>
<path d="M367.231 283.585C367.2 282.871 366.048 282.867 366.08 283.585C366.298 288.521 366.516 293.457 366.735 298.394C366.766 299.107 367.918 299.112 367.885 298.394C367.667 293.457 367.448 288.521 367.231 283.585Z" fill="#2E303D"/>
<path d="M371.394 286.425C371.076 285.791 370.218 285.445 369.537 285.703C369.331 285.781 369.147 285.902 368.985 286.046C368.966 286.062 368.94 286.069 368.923 286.089C368.89 286.125 368.875 286.173 368.845 286.212C368.791 286.277 368.722 286.329 368.681 286.404C368.66 286.444 368.66 286.49 368.641 286.531C368.625 286.567 368.618 286.605 368.605 286.643C368.559 286.78 368.527 286.916 368.523 287.06C368.523 287.075 368.513 287.09 368.513 287.105C368.513 287.145 368.533 287.181 368.535 287.221C368.543 287.312 368.532 287.404 368.558 287.493C368.569 287.528 368.595 287.556 368.608 287.591C368.632 287.657 368.669 287.714 368.701 287.777C368.754 287.876 368.807 287.971 368.882 288.056C368.898 288.075 368.905 288.1 368.922 288.119C368.961 288.16 369.017 288.182 369.062 288.218C369.12 288.266 369.163 288.328 369.229 288.367C369.254 288.383 369.288 288.383 369.314 288.397C369.388 288.434 369.468 288.452 369.546 288.477C369.642 288.507 369.731 288.548 369.832 288.56C370.195 288.611 370.574 288.547 370.872 288.34C371.175 288.129 371.401 287.839 371.502 287.487C371.607 287.126 371.561 286.758 371.394 286.425Z" fill="#2E303D"/>
<path d="M77.9936 384.991L74.577 412.25L133.419 408.743V420.101L47.7157 429.388L24.478 412.25L50.9827 351.529L60.5079 329.704L84.1711 335.695L81.2032 359.424L77.9936 384.991Z" fill="#8E8E8E"/>
<path d="M109.433 178.954L149.202 379.546H132.142L92.1663 178.954H109.433Z" fill="#8E8E8E"/>
<path d="M133.419 408.742L74.577 412.25L77.9936 384.99L133.419 408.742Z" fill="#B7B7B7"/>
<path d="M92.1664 178.954L132.142 379.546L81.2032 359.424L84.1712 335.695L60.508 329.704L50.9828 351.529L46.761 349.792L0.699829 178.954H92.1664Z" fill="#B7B7B7"/>
<path d="M123.748 334.973C121.542 322.414 119.278 309.865 116.957 297.326C114.624 284.724 112.232 272.133 109.782 259.552C107.344 247.033 104.849 234.525 102.295 222.029C99.7426 209.532 97.1313 197.046 94.4635 184.572C94.1299 183.013 93.7952 181.453 93.4604 179.895C93.3097 179.194 92.2007 179.491 92.3514 180.191C95.033 192.663 97.6593 205.146 100.227 217.639C102.795 230.133 105.305 242.638 107.756 255.154C110.22 267.733 112.627 280.321 114.974 292.921C117.31 305.457 119.588 318.005 121.808 330.561C124.028 343.117 126.191 355.683 128.295 368.257C128.558 369.829 128.82 371.401 129.082 372.973C129.199 373.679 130.308 373.379 130.191 372.677C128.101 360.099 125.954 347.531 123.748 334.973Z" fill="#2E303D"/>
<path d="M77.0665 335.218C73.567 347.293 69.9272 359.33 66.1436 371.325C62.3739 383.277 58.4637 395.186 54.4144 407.052C52.1228 413.764 49.7864 420.461 47.4074 427.144C47.1659 427.824 48.2771 428.115 48.5164 427.441C52.7383 415.584 56.8221 403.681 60.7645 391.734C64.6919 379.83 68.4789 367.883 72.1245 355.896C74.1871 349.115 76.2037 342.321 78.1754 335.515C78.3756 334.822 77.2666 334.527 77.0665 335.218Z" fill="#2E303D"/>
</g>
</svg>
