<svg width="438" height="490" viewBox="0 0 438 490" fill="none" xmlns="http://www.w3.org/2000/svg">
<g filter="url(#filter0_f_59_661)">
<path d="M160.974 173.704C168.644 174.611 175.614 177.432 182.541 180.259C189.511 183.104 197.777 185.208 201.952 190.428C206.14 195.663 202.873 202.533 205.077 208.432C207.339 214.487 213.594 219.318 215.057 225.507C216.74 232.623 219.732 241.229 214.161 246.848C208.445 252.612 195.538 249.432 187.565 253.231C179.712 256.973 177.504 266.565 168.62 268.55C159.979 270.48 149.926 267.445 142.437 263.31C135.168 259.297 133.364 251.575 127.908 246.073C123.619 241.748 118.622 238.111 113.637 234.267C106.694 228.912 92.9434 226.316 92.5298 218.789C92.1135 211.215 107.076 209.062 111.897 202.595C115.818 197.334 113.159 189.946 117.707 185.013C122.349 179.978 129.852 176.895 137.412 174.919C144.913 172.958 153.06 172.767 160.974 173.704Z" fill="#F40427" fill-opacity="0.8"/>
</g>
<defs>
<filter id="filter0_f_59_661" x="-127.479" y="-46.8403" width="564.862" height="535.985" filterUnits="userSpaceOnUse" color-interpolation-filters="sRGB">
<feFlood flood-opacity="0" result="BackgroundImageFix"/>
<feBlend mode="normal" in="SourceGraphic" in2="BackgroundImageFix" result="shape"/>
<feGaussianBlur stdDeviation="110" result="effect1_foregroundBlur_59_661"/>
</filter>
</defs>
</svg>
