<svg width="355" height="537" viewBox="0 0 355 537" fill="none" xmlns="http://www.w3.org/2000/svg">
<g filter="url(#filter0_f_817_1798)">
<path d="M288.974 220.704C296.644 221.611 303.614 224.432 310.541 227.259C317.511 230.104 325.777 232.208 329.952 237.428C334.14 242.663 330.873 249.533 333.077 255.432C335.339 261.487 341.594 266.318 343.057 272.507C344.74 279.623 347.732 288.229 342.161 293.848C336.445 299.612 323.538 296.432 315.565 300.231C307.712 303.973 305.504 313.565 296.62 315.55C287.979 317.48 277.926 314.445 270.437 310.31C263.168 306.297 261.364 298.575 255.908 293.073C251.619 288.748 246.622 285.111 241.637 281.267C234.694 275.912 220.943 273.316 220.53 265.789C220.113 258.215 235.076 256.062 239.897 249.595C243.818 244.334 241.159 236.946 245.707 232.013C250.349 226.978 257.852 223.895 265.412 221.919C272.913 219.958 281.06 219.767 288.974 220.704Z" fill="#5642F3"/>
</g>
<defs>
<filter id="filter0_f_817_1798" x="0.52124" y="0.159668" width="564.862" height="535.985" filterUnits="userSpaceOnUse" color-interpolation-filters="sRGB">
<feFlood flood-opacity="0" result="BackgroundImageFix"/>
<feBlend mode="normal" in="SourceGraphic" in2="BackgroundImageFix" result="shape"/>
<feGaussianBlur stdDeviation="110" result="effect1_foregroundBlur_817_1798"/>
</filter>
</defs>
</svg>
