<svg width="180" height="48" viewBox="0 0 180 48" fill="none" xmlns="http://www.w3.org/2000/svg">
<path fill-rule="evenodd" clip-rule="evenodd" d="M12.0162 30.9963L23.6679 23.3162C26.6427 21.3554 29.8543 21.3554 32.8291 23.3162L44.4808 30.9963L33.2852 19.8008C30.515 17.0306 25.982 17.0306 23.2118 19.8008L12.0162 30.9963Z" fill="#061EC9"/>
<path fill-rule="evenodd" clip-rule="evenodd" d="M24.5462 36.1794L14.9886 29.8662L22.7263 37.6038C25.7635 40.641 30.7335 40.641 33.7707 37.6038L41.5084 29.8662L31.9509 36.1794C29.548 37.7666 26.949 37.7666 24.5462 36.1794V36.1794Z" fill="#F40427"/>
<path fill-rule="evenodd" clip-rule="evenodd" d="M28.1828 9.13425C30.6016 9.13425 32.5625 11.0951 32.5625 13.5138C32.5625 15.9326 30.6016 17.8935 28.1828 17.8935C25.764 17.8935 23.8032 15.9326 23.8032 13.5138C23.8032 11.0951 25.764 9.13425 28.1828 9.13425Z" fill="#061EC9"/>
<path fill-rule="evenodd" clip-rule="evenodd" d="M28.1829 30.2219C30.1949 30.2219 31.826 31.853 31.826 33.865C31.826 35.877 30.1949 37.5081 28.1829 37.5081C26.1708 37.5081 24.5398 35.877 24.5398 33.865C24.5398 31.8529 26.1708 30.2219 28.1829 30.2219Z" fill="#F40427"/>
<path fill-rule="evenodd" clip-rule="evenodd" d="M28.7349 46.5942C28.7349 46.5942 41.1706 34.3903 54.7988 35.0946L54.7989 37.4414C54.7989 37.4414 43.4418 36.8545 28.7349 46.5941V46.5942Z" fill="#F40427"/>
<path fill-rule="evenodd" clip-rule="evenodd" d="M28.7349 45.6557C28.7349 45.6557 38.5894 31.9286 53.3533 30.9898L53.3534 33.3367C53.3534 33.3367 41.6888 33.2171 28.7349 45.6557Z" fill="#061EC9"/>
<path fill-rule="evenodd" clip-rule="evenodd" d="M28.735 47.3341C28.735 47.3341 42.6162 38.416 56.2445 39.1202V41.4667C56.2445 41.4667 44.7768 40.4556 28.735 47.3341V47.3341Z" fill="#061EC9"/>
<path fill-rule="evenodd" clip-rule="evenodd" d="M27.6445 46.5942C27.6445 46.5942 15.2088 34.3903 1.5802 35.0946V37.4414C1.5802 37.4414 12.9372 36.8545 27.6445 46.5941V46.5942Z" fill="#F40427"/>
<path fill-rule="evenodd" clip-rule="evenodd" d="M27.6445 45.6557C27.6445 45.6557 17.7898 31.9286 3.02563 30.9898V33.3367C3.02563 33.3367 14.6905 33.2171 27.6445 45.6557Z" fill="#061EC9"/>
<path fill-rule="evenodd" clip-rule="evenodd" d="M27.6446 47.3341C27.6446 47.3341 13.7633 38.416 0.134766 39.1202L0.134851 41.4667C0.134851 41.4667 11.6025 40.4556 27.6446 47.3341V47.3341Z" fill="#061EC9"/>
<path d="M75.4579 18.8983C76.6388 19.15 77.5874 19.7404 78.3036 20.6696C79.0199 21.5795 79.378 22.6248 79.378 23.8057C79.378 25.5092 78.7779 26.8643 77.5777 27.871C76.3968 28.8582 74.7417 29.3519 72.6123 29.3519H63.117V8.96749H72.2929C74.3642 8.96749 75.9806 9.44177 77.1421 10.3903C78.323 11.3389 78.9134 12.6262 78.9134 14.2523C78.9134 15.4525 78.594 16.4495 77.9552 17.2432C77.3357 18.0369 76.5033 18.5886 75.4579 18.8983ZM68.0824 17.2142H71.3346C72.1477 17.2142 72.7671 17.0399 73.193 16.6915C73.6383 16.3237 73.8609 15.7913 73.8609 15.0944C73.8609 14.3975 73.6383 13.8652 73.193 13.4974C72.7671 13.1295 72.1477 12.9456 71.3346 12.9456H68.0824V17.2142ZM71.7411 25.3447C72.5736 25.3447 73.2124 25.1608 73.6576 24.793C74.1222 24.4058 74.3545 23.8541 74.3545 23.1378C74.3545 22.4216 74.1125 21.8602 73.6286 21.4536C73.164 21.0471 72.5155 20.8439 71.6831 20.8439H68.0824V25.3447H71.7411ZM98.6932 20.989C98.6932 21.4536 98.6642 21.9376 98.6061 22.4409H87.3686C87.446 23.4476 87.7654 24.2219 88.3268 24.7639C88.9076 25.2866 89.6141 25.5479 90.4466 25.5479C91.6855 25.5479 92.5469 25.0253 93.0309 23.9799H98.3157C98.0447 25.0446 97.5511 26.0029 96.8348 26.8546C96.1379 27.7064 95.2571 28.3743 94.1924 28.8582C93.1277 29.3422 91.9372 29.5842 90.6208 29.5842C89.0334 29.5842 87.6202 29.2454 86.3813 28.5679C85.1424 27.8903 84.1744 26.9224 83.4775 25.6641C82.7806 24.4058 82.4322 22.9346 82.4322 21.2504C82.4322 19.5662 82.771 18.095 83.4485 16.8367C84.1454 15.5784 85.1133 14.6105 86.3523 13.9329C87.5912 13.2554 89.014 12.9166 90.6208 12.9166C92.1888 12.9166 93.5826 13.2457 94.8022 13.9039C96.0218 14.5621 96.9703 15.5009 97.6479 16.7205C98.3448 17.9401 98.6932 19.3629 98.6932 20.989ZM93.6117 19.6824C93.6117 18.8306 93.3213 18.153 92.7405 17.6497C92.1598 17.1464 91.4338 16.8947 90.5627 16.8947C89.7303 16.8947 89.0237 17.1367 88.443 17.6207C87.8816 18.1046 87.5331 18.7919 87.3976 19.6824H93.6117ZM130.525 8.96749L125.211 29.3519H119.2L115.948 15.9365L112.579 29.3519H106.569L101.4 8.96749H106.714L109.647 23.8057L113.276 8.96749H118.735L122.22 23.8057L125.182 8.96749H130.525ZM136.673 11.4647C135.802 11.4647 135.086 11.2131 134.525 10.7097C133.983 10.1871 133.712 9.54824 133.712 8.79326C133.712 8.01893 133.983 7.3801 134.525 6.87678C135.086 6.35411 135.802 6.09277 136.673 6.09277C137.525 6.09277 138.222 6.35411 138.764 6.87678C139.326 7.3801 139.606 8.01893 139.606 8.79326C139.606 9.54824 139.326 10.1871 138.764 10.7097C138.222 11.2131 137.525 11.4647 136.673 11.4647ZM139.142 13.1489V29.3519H134.176V13.1489H139.142ZM150.493 29.5842C149.08 29.5842 147.822 29.3422 146.718 28.8582C145.615 28.3743 144.744 27.7161 144.105 26.8837C143.466 26.0319 143.108 25.0833 143.03 24.038H147.938C147.996 24.5994 148.257 25.0543 148.722 25.4028C149.186 25.7512 149.757 25.9254 150.435 25.9254C151.054 25.9254 151.529 25.8093 151.858 25.577C152.206 25.3253 152.381 25.0059 152.381 24.6187C152.381 24.1541 152.139 23.8154 151.655 23.6024C151.171 23.3701 150.387 23.1185 149.303 22.8475C148.141 22.5764 147.173 22.2957 146.399 22.0054C145.624 21.6956 144.957 21.2213 144.395 20.5825C143.834 19.9243 143.553 19.0435 143.553 17.9401C143.553 17.0109 143.805 16.1688 144.308 15.4138C144.831 14.6395 145.586 14.0297 146.573 13.5845C147.58 13.1392 148.77 12.9166 150.145 12.9166C152.177 12.9166 153.774 13.4199 154.936 14.4266C156.117 15.4332 156.794 16.7689 156.968 18.4337H152.381C152.303 17.8723 152.051 17.4271 151.626 17.098C151.219 16.7689 150.677 16.6044 149.999 16.6044C149.419 16.6044 148.973 16.7205 148.664 16.9528C148.354 17.1658 148.199 17.4658 148.199 17.853C148.199 18.3176 148.441 18.666 148.925 18.8983C149.428 19.1306 150.203 19.3629 151.248 19.5952C152.448 19.905 153.426 20.2147 154.181 20.5244C154.936 20.8148 155.594 21.2988 156.155 21.9763C156.736 22.6345 157.036 23.525 157.056 24.6478C157.056 25.5963 156.785 26.4481 156.243 27.2031C155.72 27.9387 154.955 28.5195 153.949 28.9453C152.961 29.3712 151.809 29.5842 150.493 29.5842ZM176.529 20.989C176.529 21.4536 176.5 21.9376 176.442 22.4409H165.204C165.281 23.4476 165.601 24.2219 166.162 24.7639C166.743 25.2866 167.45 25.5479 168.282 25.5479C169.521 25.5479 170.382 25.0253 170.866 23.9799H176.151C175.88 25.0446 175.387 26.0029 174.67 26.8546C173.973 27.7064 173.093 28.3743 172.028 28.8582C170.963 29.3422 169.773 29.5842 168.456 29.5842C166.869 29.5842 165.456 29.2454 164.217 28.5679C162.978 27.8903 162.01 26.9224 161.313 25.6641C160.616 24.4058 160.268 22.9346 160.268 21.2504C160.268 19.5662 160.606 18.095 161.284 16.8367C161.981 15.5784 162.949 14.6105 164.188 13.9329C165.427 13.2554 166.849 12.9166 168.456 12.9166C170.024 12.9166 171.418 13.2457 172.638 13.9039C173.857 14.5621 174.806 15.5009 175.483 16.7205C176.18 17.9401 176.529 19.3629 176.529 20.989ZM171.447 19.6824C171.447 18.8306 171.157 18.153 170.576 17.6497C169.995 17.1464 169.269 16.8947 168.398 16.8947C167.566 16.8947 166.859 17.1367 166.278 17.6207C165.717 18.1046 165.369 18.7919 165.233 19.6824H171.447Z" fill="black"/>
<path d="M64.6336 34.9859V37.354H67.215V38.1162H64.6336V40.5553H67.5199V41.3176H63.7087V34.2237H67.5199V34.9859H64.6336ZM71.4398 35.6465C72.1173 35.6465 72.6661 35.8532 73.0862 36.2665C73.5063 36.673 73.7163 37.2625 73.7163 38.0349V41.3176H72.8016V38.167C72.8016 37.6114 72.6627 37.188 72.3849 36.8966C72.1071 36.5985 71.7277 36.4494 71.2467 36.4494C70.7588 36.4494 70.3693 36.6019 70.0779 36.9068C69.7933 37.2117 69.6511 37.6555 69.6511 38.2381V41.3176H68.7262V35.7482H69.6511V36.5409C69.834 36.2563 70.0813 36.0361 70.393 35.8803C70.7114 35.7245 71.0603 35.6465 71.4398 35.6465ZM74.6884 38.5126C74.6884 37.9434 74.8036 37.4454 75.034 37.0186C75.2643 36.5849 75.5794 36.2496 75.9791 36.0124C76.3856 35.7753 76.8362 35.6567 77.3308 35.6567C77.8187 35.6567 78.2421 35.7617 78.6012 35.9718C78.9603 36.1818 79.2279 36.446 79.4041 36.7645V35.7482H80.3391V41.3176H79.4041V40.2809C79.2212 40.6062 78.9468 40.8772 78.5809 41.094C78.2218 41.304 77.8017 41.409 77.3207 41.409C76.8261 41.409 76.3789 41.2871 75.9791 41.0432C75.5794 40.7993 75.2643 40.4571 75.034 40.0167C74.8036 39.5763 74.6884 39.0749 74.6884 38.5126ZM79.4041 38.5227C79.4041 38.1026 79.3194 37.7368 79.15 37.4251C78.9806 37.1134 78.7503 36.8763 78.4589 36.7137C78.1744 36.5443 77.8593 36.4596 77.5138 36.4596C77.1682 36.4596 76.8532 36.5409 76.5686 36.7035C76.284 36.8661 76.057 37.1033 75.8877 37.4149C75.7183 37.7266 75.6336 38.0925 75.6336 38.5126C75.6336 38.9394 75.7183 39.3121 75.8877 39.6305C76.057 39.9422 76.284 40.1827 76.5686 40.3521C76.8532 40.5147 77.1682 40.596 77.5138 40.596C77.8593 40.596 78.1744 40.5147 78.4589 40.3521C78.7503 40.1827 78.9806 39.9422 79.15 39.6305C79.3194 39.3121 79.4041 38.9428 79.4041 38.5227ZM82.6338 36.7848C82.8235 36.4528 83.1013 36.1818 83.4671 35.9718C83.833 35.7617 84.2497 35.6567 84.7172 35.6567C85.2186 35.6567 85.6692 35.7753 86.0689 36.0124C86.4687 36.2496 86.7837 36.5849 87.0141 37.0186C87.2444 37.4454 87.3596 37.9434 87.3596 38.5126C87.3596 39.0749 87.2444 39.5763 87.0141 40.0167C86.7837 40.4571 86.4653 40.7993 86.0587 41.0432C85.659 41.2871 85.2118 41.409 84.7172 41.409C84.2362 41.409 83.8127 41.304 83.4468 41.094C83.0877 40.884 82.8167 40.6163 82.6338 40.2911V41.3176H81.7089V33.7969H82.6338V36.7848ZM86.4145 38.5126C86.4145 38.0925 86.3298 37.7266 86.1604 37.4149C85.991 37.1033 85.7606 36.8661 85.4693 36.7035C85.1847 36.5409 84.8697 36.4596 84.5241 36.4596C84.1853 36.4596 83.8703 36.5443 83.5789 36.7137C83.2944 36.8763 83.064 37.1168 82.8878 37.4353C82.7185 37.7469 82.6338 38.1094 82.6338 38.5227C82.6338 38.9428 82.7185 39.3121 82.8878 39.6305C83.064 39.9422 83.2944 40.1827 83.5789 40.3521C83.8703 40.5147 84.1853 40.596 84.5241 40.596C84.8697 40.596 85.1847 40.5147 85.4693 40.3521C85.7606 40.1827 85.991 39.9422 86.1604 39.6305C86.3298 39.3121 86.4145 38.9394 86.4145 38.5126ZM89.3087 33.7969V41.3176H88.3839V33.7969H89.3087ZM91.1695 34.8437C90.9934 34.8437 90.8443 34.7827 90.7224 34.6607C90.6004 34.5388 90.5394 34.3897 90.5394 34.2135C90.5394 34.0374 90.6004 33.8883 90.7224 33.7664C90.8443 33.6444 90.9934 33.5834 91.1695 33.5834C91.3389 33.5834 91.4812 33.6444 91.5964 33.7664C91.7183 33.8883 91.7793 34.0374 91.7793 34.2135C91.7793 34.3897 91.7183 34.5388 91.5964 34.6607C91.4812 34.7827 91.3389 34.8437 91.1695 34.8437ZM91.6167 35.7482V41.3176H90.6919V35.7482H91.6167ZM95.7134 35.6465C96.391 35.6465 96.9398 35.8532 97.3598 36.2665C97.7799 36.673 97.99 37.2625 97.99 38.0349V41.3176H97.0753V38.167C97.0753 37.6114 96.9364 37.188 96.6586 36.8966C96.3808 36.5985 96.0014 36.4494 95.5203 36.4494C95.0325 36.4494 94.6429 36.6019 94.3516 36.9068C94.067 37.2117 93.9247 37.6555 93.9247 38.2381V41.3176H92.9999V35.7482H93.9247V36.5409C94.1076 36.2563 94.3549 36.0361 94.6666 35.8803C94.9851 35.7245 95.334 35.6465 95.7134 35.6465ZM101.604 35.6567C102.086 35.6567 102.506 35.7617 102.865 35.9718C103.231 36.1818 103.502 36.446 103.678 36.7645V35.7482H104.613V41.4395C104.613 41.9477 104.504 42.3983 104.288 42.7912C104.071 43.191 103.759 43.5027 103.353 43.7262C102.953 43.9498 102.485 44.0616 101.95 44.0616C101.218 44.0616 100.608 43.8889 100.121 43.5433C99.6328 43.1978 99.3449 42.7269 99.2568 42.1306H100.171C100.273 42.4694 100.483 42.7404 100.802 42.9437C101.12 43.1537 101.503 43.2587 101.95 43.2587C102.458 43.2587 102.871 43.0995 103.19 42.7811C103.515 42.4626 103.678 42.0155 103.678 41.4395V40.2708C103.495 40.596 103.224 40.867 102.865 41.0838C102.506 41.3006 102.086 41.409 101.604 41.409C101.11 41.409 100.659 41.2871 100.253 41.0432C99.853 40.7993 99.538 40.4571 99.3076 40.0167C99.0772 39.5763 98.9621 39.0749 98.9621 38.5126C98.9621 37.9434 99.0772 37.4454 99.3076 37.0186C99.538 36.5849 99.853 36.2496 100.253 36.0124C100.659 35.7753 101.11 35.6567 101.604 35.6567ZM103.678 38.5227C103.678 38.1026 103.593 37.7368 103.424 37.4251C103.254 37.1134 103.024 36.8763 102.733 36.7137C102.448 36.5443 102.133 36.4596 101.787 36.4596C101.442 36.4596 101.127 36.5409 100.842 36.7035C100.558 36.8661 100.331 37.1033 100.161 37.4149C99.9919 37.7266 99.9072 38.0925 99.9072 38.5126C99.9072 38.9394 99.9919 39.3121 100.161 39.6305C100.331 39.9422 100.558 40.1827 100.842 40.3521C101.127 40.5147 101.442 40.596 101.787 40.596C102.133 40.596 102.448 40.5147 102.733 40.3521C103.024 40.1827 103.254 39.9422 103.424 39.6305C103.593 39.3121 103.678 38.9428 103.678 38.5227ZM109.424 40.5655H111.904V41.3176H108.499V34.2339H109.424V40.5655ZM117.774 38.3195C117.774 38.4956 117.764 38.6819 117.744 38.8784H113.292C113.326 39.4272 113.513 39.8575 113.851 40.1691C114.197 40.474 114.614 40.6265 115.101 40.6265C115.501 40.6265 115.833 40.535 116.097 40.3521C116.368 40.1624 116.558 39.9117 116.666 39.6H117.662C117.513 40.1353 117.215 40.5723 116.768 40.9111C116.321 41.2431 115.765 41.409 115.101 41.409C114.573 41.409 114.099 41.2905 113.679 41.0533C113.265 40.8162 112.94 40.4808 112.703 40.0472C112.466 39.6068 112.347 39.0986 112.347 38.5227C112.347 37.9468 112.462 37.442 112.693 37.0084C112.923 36.5748 113.245 36.2428 113.658 36.0124C114.078 35.7753 114.559 35.6567 115.101 35.6567C115.63 35.6567 116.097 35.7719 116.504 36.0023C116.91 36.2326 117.222 36.5511 117.439 36.9576C117.662 37.3573 117.774 37.8113 117.774 38.3195ZM116.819 38.1264C116.819 37.774 116.741 37.4725 116.585 37.2218C116.429 36.9644 116.216 36.7713 115.945 36.6425C115.681 36.507 115.386 36.4393 115.061 36.4393C114.593 36.4393 114.193 36.5883 113.861 36.8864C113.536 37.1846 113.35 37.5979 113.302 38.1264H116.819ZM118.456 38.5126C118.456 37.9434 118.572 37.4454 118.802 37.0186C119.032 36.5849 119.347 36.2496 119.747 36.0124C120.154 35.7753 120.604 35.6567 121.099 35.6567C121.587 35.6567 122.01 35.7617 122.369 35.9718C122.728 36.1818 122.996 36.446 123.172 36.7645V35.7482H124.107V41.3176H123.172V40.2809C122.989 40.6062 122.715 40.8772 122.349 41.094C121.99 41.304 121.57 41.409 121.089 41.409C120.594 41.409 120.147 41.2871 119.747 41.0432C119.347 40.7993 119.032 40.4571 118.802 40.0167C118.572 39.5763 118.456 39.0749 118.456 38.5126ZM123.172 38.5227C123.172 38.1026 123.087 37.7368 122.918 37.4251C122.749 37.1134 122.518 36.8763 122.227 36.7137C121.942 36.5443 121.627 36.4596 121.282 36.4596C120.936 36.4596 120.621 36.5409 120.337 36.7035C120.052 36.8661 119.825 37.1033 119.656 37.4149C119.486 37.7266 119.402 38.0925 119.402 38.5126C119.402 38.9394 119.486 39.3121 119.656 39.6305C119.825 39.9422 120.052 40.1827 120.337 40.3521C120.621 40.5147 120.936 40.596 121.282 40.596C121.627 40.596 121.942 40.5147 122.227 40.3521C122.518 40.1827 122.749 39.9422 122.918 39.6305C123.087 39.3121 123.172 38.9428 123.172 38.5227ZM126.402 36.6527C126.564 36.3343 126.795 36.0869 127.093 35.9108C127.398 35.7346 127.767 35.6465 128.201 35.6465V36.6019H127.957C126.92 36.6019 126.402 37.1642 126.402 38.289V41.3176H125.477V35.7482H126.402V36.6527ZM131.789 35.6465C132.466 35.6465 133.015 35.8532 133.435 36.2665C133.855 36.673 134.065 37.2625 134.065 38.0349V41.3176H133.151V38.167C133.151 37.6114 133.012 37.188 132.734 36.8966C132.456 36.5985 132.077 36.4494 131.596 36.4494C131.108 36.4494 130.718 36.6019 130.427 36.9068C130.142 37.2117 130 37.6555 130 38.2381V41.3176H129.075V35.7482H130V36.5409C130.183 36.2563 130.43 36.0361 130.742 35.8803C131.06 35.7245 131.409 35.6465 131.789 35.6465ZM135.861 34.8437C135.684 34.8437 135.535 34.7827 135.413 34.6607C135.291 34.5388 135.23 34.3897 135.23 34.2135C135.23 34.0374 135.291 33.8883 135.413 33.7664C135.535 33.6444 135.684 33.5834 135.861 33.5834C136.03 33.5834 136.172 33.6444 136.287 33.7664C136.409 33.8883 136.47 34.0374 136.47 34.2135C136.47 34.3897 136.409 34.5388 136.287 34.6607C136.172 34.7827 136.03 34.8437 135.861 34.8437ZM136.308 35.7482V41.3176H135.383V35.7482H136.308ZM140.404 35.6465C141.082 35.6465 141.631 35.8532 142.051 36.2665C142.471 36.673 142.681 37.2625 142.681 38.0349V41.3176H141.766V38.167C141.766 37.6114 141.627 37.188 141.35 36.8966C141.072 36.5985 140.692 36.4494 140.211 36.4494C139.724 36.4494 139.334 36.6019 139.043 36.9068C138.758 37.2117 138.616 37.6555 138.616 38.2381V41.3176H137.691V35.7482H138.616V36.5409C138.799 36.2563 139.046 36.0361 139.358 35.8803C139.676 35.7245 140.025 35.6465 140.404 35.6465ZM146.295 35.6567C146.777 35.6567 147.197 35.7617 147.556 35.9718C147.922 36.1818 148.193 36.446 148.369 36.7645V35.7482H149.304V41.4395C149.304 41.9477 149.195 42.3983 148.979 42.7912C148.762 43.191 148.45 43.5027 148.044 43.7262C147.644 43.9498 147.176 44.0616 146.641 44.0616C145.909 44.0616 145.3 43.8889 144.812 43.5433C144.324 43.1978 144.036 42.7269 143.948 42.1306H144.862C144.964 42.4694 145.174 42.7404 145.493 42.9437C145.811 43.1537 146.194 43.2587 146.641 43.2587C147.149 43.2587 147.562 43.0995 147.881 42.7811C148.206 42.4626 148.369 42.0155 148.369 41.4395V40.2708C148.186 40.596 147.915 40.867 147.556 41.0838C147.197 41.3006 146.777 41.409 146.295 41.409C145.801 41.409 145.35 41.2871 144.944 41.0432C144.544 40.7993 144.229 40.4571 143.999 40.0167C143.768 39.5763 143.653 39.0749 143.653 38.5126C143.653 37.9434 143.768 37.4454 143.999 37.0186C144.229 36.5849 144.544 36.2496 144.944 36.0124C145.35 35.7753 145.801 35.6567 146.295 35.6567ZM148.369 38.5227C148.369 38.1026 148.284 37.7368 148.115 37.4251C147.945 37.1134 147.715 36.8763 147.424 36.7137C147.139 36.5443 146.824 36.4596 146.478 36.4596C146.133 36.4596 145.818 36.5409 145.533 36.7035C145.249 36.8661 145.022 37.1033 144.852 37.4149C144.683 37.7266 144.598 38.0925 144.598 38.5126C144.598 38.9394 144.683 39.3121 144.852 39.6305C145.022 39.9422 145.249 40.1827 145.533 40.3521C145.818 40.5147 146.133 40.596 146.478 40.596C146.824 40.596 147.139 40.5147 147.424 40.3521C147.715 40.1827 147.945 39.9422 148.115 39.6305C148.284 39.3121 148.369 38.9428 148.369 38.5227ZM158.627 41.3176L157.702 40.3826C157.357 40.7417 156.988 41.0093 156.595 41.1855C156.202 41.3548 155.758 41.4395 155.263 41.4395C154.775 41.4395 154.342 41.3515 153.962 41.1753C153.59 40.9991 153.298 40.7484 153.088 40.4232C152.885 40.098 152.783 39.7186 152.783 39.285C152.783 38.7903 152.922 38.3567 153.2 37.9841C153.485 37.6046 153.901 37.3065 154.45 37.0897C154.233 36.8322 154.078 36.5951 153.983 36.3783C153.888 36.1615 153.84 35.9243 153.84 35.6669C153.84 35.3688 153.915 35.1011 154.064 34.864C154.22 34.6201 154.44 34.4304 154.725 34.2948C155.009 34.1593 155.338 34.0916 155.71 34.0916C156.076 34.0916 156.395 34.1627 156.666 34.305C156.937 34.4473 157.14 34.6472 157.276 34.9046C157.411 35.1553 157.472 35.4365 157.459 35.7482H156.534C156.54 35.4704 156.463 35.2536 156.3 35.0977C156.137 34.9351 155.927 34.8538 155.67 34.8538C155.399 34.8538 155.179 34.9317 155.009 35.0876C154.847 35.2366 154.765 35.4297 154.765 35.6669C154.765 35.8701 154.819 36.0666 154.928 36.2563C155.043 36.446 155.233 36.6798 155.497 36.9576L157.611 39.0817L157.794 38.7971L158.485 37.6385H159.481L158.648 39.0817C158.532 39.285 158.397 39.4984 158.241 39.722L159.837 41.3176H158.627ZM155.263 40.6468C155.629 40.6468 155.958 40.5757 156.249 40.4334C156.547 40.2911 156.828 40.0709 157.093 39.7728L155.009 37.6792C154.142 38.0112 153.708 38.5363 153.708 39.2545C153.708 39.6542 153.851 39.9862 154.135 40.2505C154.427 40.5147 154.803 40.6468 155.263 40.6468ZM167.031 34.2339V34.9859H163.951V37.3743H166.451V38.1264H163.951V41.3176H163.026V34.2339H167.031ZM172.894 35.7482V41.3176H171.969V40.4944C171.793 40.7789 171.546 41.0025 171.227 41.1651C170.916 41.321 170.57 41.3989 170.191 41.3989C169.757 41.3989 169.367 41.3108 169.022 41.1346C168.676 40.9517 168.402 40.6807 168.199 40.3216C168.002 39.9625 167.904 39.5255 167.904 39.0105V35.7482H168.819V38.8886C168.819 39.4374 168.957 39.8609 169.235 40.159C169.513 40.4503 169.892 40.596 170.373 40.596C170.868 40.596 171.258 40.4436 171.542 40.1387C171.827 39.8338 171.969 39.39 171.969 38.8073V35.7482H172.894ZM176.976 35.6465C177.654 35.6465 178.202 35.8532 178.622 36.2665C179.042 36.673 179.253 37.2625 179.253 38.0349V41.3176H178.338V38.167C178.338 37.6114 178.199 37.188 177.921 36.8966C177.643 36.5985 177.264 36.4494 176.783 36.4494C176.295 36.4494 175.905 36.6019 175.614 36.9068C175.33 37.2117 175.187 37.6555 175.187 38.2381V41.3176H174.262V35.7482H175.187V36.5409C175.37 36.2563 175.617 36.0361 175.929 35.8803C176.248 35.7245 176.597 35.6465 176.976 35.6465Z" fill="black"/>
</svg>
