<svg width="70" height="70" viewBox="0 0 70 70" fill="none" xmlns="http://www.w3.org/2000/svg">
<rect width="70" height="70" rx="7" fill="#C7E9FF"/>
<path d="M33.9443 15.0195C33.1968 16.5508 32.978 16.9337 32.814 16.9701C32.7046 16.9884 31.7566 17.1342 30.6992 17.28C29.6601 17.4259 28.8033 17.5717 28.785 17.59C28.7668 17.6082 29.4413 18.2827 30.2799 19.1213L31.7931 20.6344L31.4467 22.6398C31.2644 23.7519 31.1185 24.6998 31.1185 24.7545C31.1185 24.8092 31.9754 24.4082 33.0145 23.8612L34.9105 22.8586L36.7882 23.843C37.8273 24.3899 38.6842 24.8275 38.7024 24.8092C38.7206 24.791 38.593 23.843 38.3925 22.6945L38.0461 20.6162L39.5957 19.0666C40.4343 18.228 41.1088 17.517 41.0724 17.517C40.963 17.517 37.2622 16.9701 37.0434 16.9154C36.8794 16.879 36.6606 16.5144 35.9131 14.983C35.4027 13.9256 34.9652 13.087 34.9287 13.087C34.8922 13.1053 34.4547 13.9621 33.9443 15.0195Z" fill="#23ABFF"/>
<path d="M34.5824 26.6505C33.0146 30.8982 30.043 36.6044 27.1079 41.0344C23.553 46.3759 18.9407 51.8268 14.5836 55.8922L13.4897 56.8949L17.9744 56.8766L22.4591 56.8584L23.079 55.8557C26.2328 50.8606 29.569 43.7142 31.8478 36.969C32.9417 33.7239 33.4886 31.7551 34.8194 26.3953C34.9835 25.7208 34.9288 26.3588 34.6189 28.6741C33.3427 37.917 31.3009 47.014 28.7669 54.5614L27.983 56.8949H35.0199H42.0569L41.4917 55.3271C39.0853 48.6729 36.9159 39.4848 35.658 30.6065C35.2387 27.6897 35.0929 26.3224 35.1475 26.1036C35.184 25.976 35.1658 25.9031 35.0382 25.8666C34.9105 25.8302 34.8194 25.976 34.5824 26.6505Z" fill="#23ABFF"/>
<path d="M35.2022 26.2312C35.184 26.2859 35.3298 26.9969 35.5121 27.799C37.3899 36.4403 40.7261 45.2456 44.8097 52.4102C45.6665 53.9415 47.1067 56.2386 47.4531 56.6579L47.6536 56.8949L52.0836 56.8766L56.5136 56.8584L55.3651 55.8739C53.1592 53.9597 50.0965 50.7876 47.7812 47.9984C42.6403 41.8183 38.3561 34.5808 35.8403 27.7626C35.2751 26.2312 35.2022 26.0854 35.2022 26.2312Z" fill="#23ABFF"/>
</svg>
