<svg width="71" height="71" viewBox="0 0 71 71" fill="none" xmlns="http://www.w3.org/2000/svg">
<rect x="0.5" y="0.5" width="70" height="70" rx="7" fill="#FFE4A8"/>
<path d="M52.3465 48.9358L49.6666 46.256L43.213 39.8024C43.1766 39.7659 43.1583 39.7477 43.1219 39.7112C43.8693 38.3622 44.2704 36.849 44.2704 35.2994C44.2704 30.2861 40.205 26.0748 35.3922 26.0748H33.6967C32.8764 26.0748 32.2018 26.7494 32.2018 27.5697C32.2018 28.3901 32.8764 29.0646 33.6967 29.0646H35.3922C38.5278 29.0646 41.2806 31.9815 41.2806 35.3177C41.2806 38.5992 38.5825 41.3884 35.3922 41.3884C33.7879 41.3884 32.1289 40.6957 30.8163 39.4925C29.5037 38.2892 28.7563 36.7397 28.7563 35.2448C28.7563 34.4244 28.0817 33.7499 27.2614 33.7499C26.441 33.7499 25.7665 34.4244 25.7665 35.2448C25.7665 40.0211 30.3423 44.3782 35.3739 44.3782C36.723 44.3782 38.0356 44.0683 39.2206 43.4667C39.257 43.5396 39.3117 43.5943 39.3664 43.649L45.82 50.0844L48.5181 52.7825C48.7733 53.0377 49.0468 53.22 49.3567 53.3658C50.3594 53.8216 51.5808 53.6575 52.4012 52.8372C53.2216 52.0168 53.3856 50.8136 52.9299 49.7927C52.7658 49.4645 52.5835 49.1911 52.3465 48.9358Z" fill="#FFC033"/>
<path d="M55.9744 33.6041H54.6436C54.279 30.0674 52.9481 26.7494 50.7787 23.9419L52.6929 22.0277C53.1669 21.5537 52.8205 20.7516 52.3465 20.2776L50.6329 18.5457C50.1589 18.0717 49.3567 17.7253 48.8827 18.1993L46.9321 20.15C44.1793 18.1082 40.9707 16.8685 37.5434 16.5039V14.9908C37.5434 14.4256 37.1606 13.9152 36.5954 13.9152H34.5536C33.9884 13.9152 33.4415 14.4074 33.4415 14.9908V16.5039C29.9048 16.8685 26.5686 18.1993 23.7612 20.3687L21.61 18.1993C21.136 17.7253 20.3338 18.0717 19.8598 18.5457L18.1279 20.2776C17.6539 20.7516 17.3076 21.5537 17.7816 22.0277L19.9874 24.2336C17.9639 26.9682 16.706 30.195 16.3414 33.6041H14.9741C14.4089 33.6041 13.9896 34.0051 13.9896 34.5703V36.6121C13.9896 37.1772 14.4089 37.6877 14.9741 37.6877H16.3414C16.706 41.115 17.9456 44.3236 19.9874 47.0764L17.7816 49.2823C17.3076 49.7563 17.6539 50.5584 18.1279 51.0324L19.8598 52.7643C20.3338 53.2383 21.136 53.5847 21.61 53.1107L23.7794 50.9412C26.5869 53.1107 29.9231 54.4415 33.4415 54.8061V56.0458C33.4415 56.6109 33.8973 57.0849 34.4807 57.0849H36.5225C37.0876 57.0849 37.5616 56.6291 37.5616 56.0458V54.8061C39.33 54.6238 41.0436 54.1863 42.6844 53.53C43.4501 53.22 43.8147 52.345 43.523 51.5975C43.2313 50.8501 42.338 50.4672 41.5906 50.7589C39.6581 51.5428 37.6163 51.9257 35.5198 51.9257C26.5504 51.9257 19.24 44.6335 19.24 35.6459C19.24 26.6583 26.5504 19.3661 35.5198 19.3661C44.5074 19.3661 51.7996 26.6765 51.7996 35.6459C51.7996 37.8153 51.3803 39.93 50.5417 41.9172C50.2318 42.6828 50.5782 43.5579 51.3439 43.8678C52.1095 44.1777 52.9846 43.8314 53.2945 43.0657C54.0055 41.3338 54.4795 39.5472 54.6618 37.6877H55.9744C56.5395 37.6877 57.0135 37.2684 57.0135 36.685V34.625C57.0135 34.0781 56.5395 33.6041 55.9744 33.6041Z" fill="#FFC033"/>
</svg>
