<svg width="70" height="70" viewBox="0 0 70 70" fill="none" xmlns="http://www.w3.org/2000/svg">
<rect width="70" height="70" rx="7" fill="#E0F7E9"/>
<path d="M40.3656 41.0265C40.1477 41.0265 39.9117 40.9539 39.7302 40.8087C38.2599 39.7377 36.8622 39.2839 35.4826 39.4291C34.8835 39.5017 34.339 39.0661 34.2845 38.4852C34.2119 37.8862 34.6476 37.3779 35.2284 37.2872C36.6262 37.1419 38.0058 37.4142 39.4035 38.104C39.7847 36.3069 40.9283 34.4372 43.7056 33.33C42.4712 31.1698 42.4349 28.8282 43.633 26.3413C40.4382 25.5063 39.0404 23.7274 38.5322 21.9303C37.4975 22.5112 36.4628 22.8379 35.3555 22.8924C34.7565 22.9287 34.2664 22.4567 34.2119 21.8577C34.1756 21.2586 34.6476 20.7685 35.2466 20.7141C36.3902 20.6415 37.5156 20.1332 38.6229 19.1893C38.9497 18.9351 39.3672 18.8625 39.7665 19.0441C40.1477 19.2074 40.3837 19.5886 40.4019 20.0061C40.4382 21.6217 41.0009 23.8363 45.4301 24.5079C45.7931 24.5442 46.1017 24.7802 46.2469 25.1251C46.3921 25.47 46.374 25.8512 46.1743 26.1598C44.4317 28.8645 44.468 31.1154 46.1925 33.221C46.4284 33.4933 46.501 33.8927 46.3921 34.2557C46.2832 34.6006 45.9928 34.8729 45.6479 34.9637C42.6346 35.7261 41.255 37.3235 41.3639 39.9193C41.3821 40.3186 41.1461 40.718 40.7831 40.8995C40.7104 40.9902 40.5289 41.0265 40.3656 41.0265ZM30.0006 41.0265C29.8372 41.0265 29.6557 40.9902 29.4923 40.8995C29.1293 40.6998 28.9114 40.3186 28.9114 39.9193C29.0022 37.3053 27.6408 35.7442 24.6456 34.9637C24.2826 34.8729 24.0103 34.6006 23.9014 34.2557C23.7925 33.9108 23.8651 33.5296 24.1011 33.2573C25.8074 31.1335 25.8437 28.8826 24.1374 26.1598C23.9377 25.8512 23.9195 25.47 24.0648 25.1251C24.21 24.7983 24.5367 24.5624 24.8816 24.5079C29.2926 23.8726 29.8735 21.6217 29.9098 20.0061C29.928 19.6068 30.1639 19.2437 30.5451 19.0622C30.9082 18.8988 31.362 18.9533 31.6887 19.2074C32.8323 20.1695 33.9396 20.6596 35.0651 20.7322C35.6641 20.7504 36.1179 21.2768 36.0998 21.8758C36.0816 22.4748 35.5552 22.9468 34.9562 22.9105C33.8852 22.8379 32.8142 22.5293 31.7795 21.9484C31.2349 23.7455 29.8553 25.5244 26.6787 26.3776C27.8586 28.8645 27.8404 31.2243 26.6061 33.3663C29.3834 34.4735 30.527 36.3432 30.89 38.1403C32.3059 37.4324 33.7036 37.1601 35.1014 37.3235C35.7004 37.3961 36.1361 37.9225 36.0453 38.5215C35.9727 39.1205 35.4463 39.5199 34.8472 39.4654C33.4677 39.3202 32.0336 39.7922 30.5633 40.845C30.4181 40.9721 30.2184 41.0265 30.0006 41.0265ZM43.2336 49.5581C42.9069 49.5581 42.5983 49.4129 42.3986 49.1588L38.6774 44.4392C38.3143 43.9672 38.3688 43.2956 38.8408 42.9144C39.3127 42.5513 39.9844 42.6058 40.3656 43.0778L42.1808 45.365V41.6437C42.1808 41.0447 42.6709 40.5727 43.2518 40.5727C43.8327 40.5727 44.3228 41.0629 44.3228 41.6437V48.469C44.3228 48.9228 44.0142 49.3222 43.5967 49.5037C43.4878 49.54 43.3607 49.5581 43.2336 49.5581ZM27.1506 49.5581C27.0236 49.5581 26.9147 49.54 26.7876 49.4855C26.3519 49.3403 26.0615 48.9228 26.0615 48.4509V41.6256C26.0615 41.0265 26.5516 40.5546 27.1325 40.5546C27.7134 40.5546 28.2035 41.0447 28.2035 41.6256V45.3468L30.0187 43.0596C30.3818 42.5876 31.0716 42.515 31.5435 42.8962C32.0155 43.2593 32.0881 43.9491 31.7069 44.421L27.9857 49.1406C27.786 49.3948 27.4592 49.5581 27.1506 49.5581ZM34.8835 56.4379C29.0022 56.4016 23.9195 54.2778 19.7808 50.139C15.6058 45.964 13.4819 40.8632 13.4819 35C13.4819 29.1186 15.6058 24.036 19.7808 19.8791C23.9195 15.704 28.984 13.5802 34.8835 13.5802C40.7468 13.5802 45.8476 15.704 50.0226 19.8791C54.1976 24.0178 56.3215 29.0823 56.3215 34.9818C56.3215 40.845 54.1976 45.9458 50.0226 50.1209C45.8476 54.2959 40.7649 56.4016 34.8835 56.4379ZM34.8835 16.1215C29.6194 16.1215 25.2628 17.9368 21.5597 21.6761C17.8022 25.3792 15.987 29.7358 15.987 35.0181C15.987 40.2641 17.8022 44.6389 21.5416 48.3782C25.2447 52.0813 29.6012 53.8966 34.8654 53.9329C40.1114 53.8966 44.5043 52.0632 48.2255 48.3601C51.9468 44.6389 53.7801 40.246 53.7801 35C53.7801 29.7358 51.9649 25.3792 48.2255 21.6761C44.5224 17.9368 40.1477 16.1215 34.8835 16.1215Z" fill="#3BB273"/>
</svg>
