<svg width="71" height="70" viewBox="0 0 71 70" fill="none" xmlns="http://www.w3.org/2000/svg">
<rect x="0.5" width="70" height="70" rx="7" fill="#F5E6FB"/>
<path d="M30.9941 16.8394L30.9942 16.8395L30.9978 16.8316C31.1365 16.528 31.2439 16.3326 31.3769 16.1484C31.5124 15.9605 31.6855 15.769 31.9722 15.4824C32.5067 14.9478 32.754 14.7656 33.294 14.5037C33.6918 14.3136 34.235 14.1119 34.4995 14.0488C36.1069 13.7062 37.7583 14.2094 39.0312 15.4824C39.5626 16.0137 39.7283 16.2426 40.0106 16.8239L40.0138 16.8304L40.0171 16.8368C40.1693 17.1285 40.2905 17.3914 40.3792 17.5839C40.4203 17.6731 40.4544 17.7472 40.4814 17.802C40.4833 17.8098 40.4863 17.8231 40.4898 17.8432C40.4997 17.8993 40.5095 17.9806 40.518 18.0875C40.5347 18.2987 40.5437 18.579 40.5438 18.8978C40.5346 19.3843 40.5254 19.6456 40.4979 19.8534C40.4725 20.0461 40.4302 20.2006 40.3356 20.4672L40.3353 20.468C40.0333 21.3236 39.6741 21.88 39.0328 22.5217C38.0681 23.4688 37.0106 23.973 35.7961 24.0551L35.7957 24.0551C33.3976 24.2194 31.0738 22.4166 30.5395 19.9454C30.4785 19.6633 30.4461 19.1608 30.4528 18.6723C30.456 18.4329 30.4685 18.2112 30.4886 18.0366C30.4986 17.9491 30.5098 17.8799 30.5209 17.8295C30.527 17.8021 30.5317 17.7864 30.5337 17.7797C30.6137 17.6349 30.7965 17.2527 30.9657 16.8987C30.9752 16.8789 30.9847 16.8591 30.9941 16.8394ZM36.7235 14.4814L36.7235 14.4814L31.3452 19.0119H30.8452C30.8452 19.0125 30.8452 19.013 30.8452 19.0135C30.846 21.6406 32.8926 23.6867 35.5199 23.6867C38.1478 23.6867 40.1947 21.6398 40.1947 19.0119C40.1947 16.8354 38.8033 15.0319 36.7235 14.4814Z" fill="#9856A4" stroke="#9856A4"/>
<path d="M34.8684 16.6827L35.3088 16.6298V16.1862V16.0117H35.5016H35.6943V16.1862V16.6298L36.1348 16.6827L36.5905 16.7374L36.5905 16.7374L36.5961 16.738C37.1577 16.7991 37.6197 17.2317 37.74 17.801H37.5981H37.3601L37.3499 17.6169L37.3236 17.1447H36.8506H35.5016H34.1525H33.6525V17.6447V17.9546V18.2645V18.752L34.1399 18.7644L35.5767 18.8007C36.2954 18.8287 36.6191 18.8418 36.8142 18.8724C36.8981 18.8856 36.9359 18.8992 36.9612 18.9106C36.9929 18.9249 37.0294 18.9466 37.1152 19.0053L37.1221 19.01L37.1291 19.0145C37.2679 19.1028 37.489 19.3239 37.5773 19.4627L37.5773 19.4628L37.582 19.4699C38.0128 20.122 37.5696 21.1412 36.5883 21.2686L36.1348 21.323L35.6943 21.3759V21.8195V21.994H35.5016H35.3088V21.8195V21.3759L34.8684 21.323L34.4126 21.2683L34.4126 21.2683L34.4071 21.2677C33.8455 21.2067 33.3834 20.774 33.2632 20.2047H33.4051H33.6431L33.6533 20.3888L33.6795 20.861H34.1525H35.5016H36.8506H37.3506V20.361V20.0511V19.7412V19.2537L36.8633 19.2413L35.4265 19.205C34.7077 19.177 34.3841 19.1639 34.189 19.1333C34.1051 19.1201 34.0672 19.1065 34.042 19.0951C34.0103 19.0808 33.9738 19.0591 33.888 19.0004L33.8811 18.9957L33.8741 18.9912C33.7353 18.9029 33.5142 18.6818 33.4258 18.543L33.4259 18.543L33.4212 18.5358C32.9903 17.8837 33.4336 16.8645 34.4149 16.7371L34.8684 16.6827Z" fill="#9856A4" stroke="#9856A4"/>
<path d="M27.7867 18.126L27.7975 18.1264H27.8084H28.0376V18.3192V18.5119H27.8084H27.5514L27.542 18.3461C27.5419 18.346 27.5419 18.3459 27.5419 18.3457C27.5377 18.2694 27.5345 18.1934 27.5324 18.1219C27.6093 18.1209 27.695 18.122 27.7867 18.126Z" fill="#9856A4" stroke="#9856A4"/>
<path d="M43.195 18.5119H42.9658V18.3191V18.1263H43.195C43.2933 18.1263 43.3865 18.1275 43.4706 18.1297C43.4685 18.1978 43.4654 18.2709 43.4615 18.3464L43.452 18.5119H43.195Z" fill="#9856A4" stroke="#9856A4"/>
<path d="M25.0428 18.5667C25.0695 18.6297 25.0973 18.6986 25.1244 18.7694C25.1455 18.8242 25.1654 18.8783 25.1836 18.9298C25.1377 18.9489 25.0898 18.9691 25.0411 18.9899L25.2381 19.4495L25.0411 18.9899C24.9559 19.0264 24.8683 19.0631 24.788 19.0961C24.733 19.0064 24.6698 18.8947 24.5997 18.7627C24.7427 18.6939 24.9015 18.6235 25.0428 18.5667ZM24.4943 19.2129C24.4948 19.2127 24.4954 19.2125 24.496 19.2123C24.496 19.2123 24.4959 19.2123 24.4959 19.2123L24.4943 19.2129ZM24.919 19.2865C24.9218 19.2892 24.9219 19.2896 24.9194 19.2869L24.919 19.2865Z" fill="#9856A4" stroke="#9856A4"/>
<path d="M46.0307 19.0062L46.0307 19.0062L46.0287 19.0054C45.961 18.9775 45.8958 18.9495 45.835 18.9228C45.8526 18.8639 45.8723 18.7998 45.8937 18.7319C45.9185 18.6605 45.9406 18.5992 45.9603 18.5467C46.0337 18.5749 46.1136 18.6067 46.1945 18.6401C46.2662 18.6697 46.3371 18.6998 46.4035 18.729C46.3487 18.8345 46.2824 18.9536 46.2089 19.0772C46.1588 19.0584 46.0999 19.035 46.0307 19.0062ZM45.6707 18.4469C45.6706 18.4468 45.6727 18.4472 45.6772 18.4484C45.6731 18.4476 45.6708 18.447 45.6707 18.4469ZM46.398 19.1365C46.398 19.1366 46.397 19.1365 46.3948 19.1361C46.3968 19.1363 46.398 19.1365 46.398 19.1365Z" fill="#9856A4" stroke="#9856A4"/>
<path d="M22.6824 20.624L22.6764 20.6305L22.6707 20.6372C22.6218 20.6942 22.5737 20.7485 22.5284 20.7989C22.465 20.7597 22.3941 20.7159 22.3116 20.6655C22.2738 20.6416 22.2387 20.6186 22.2064 20.5969C22.2687 20.522 22.3372 20.4411 22.4073 20.3603C22.4342 20.3292 22.4602 20.2992 22.4852 20.2702C22.4997 20.2534 22.5139 20.237 22.5277 20.221C22.5631 20.2593 22.5995 20.2998 22.636 20.342L22.6414 20.3482L22.647 20.3543L22.7892 20.5079L22.6824 20.624Z" fill="#9856A4" stroke="#9856A4"/>
<path d="M48.3066 20.3499L48.3066 20.3499C48.3599 20.2966 48.4112 20.2461 48.4591 20.2C48.4637 20.2051 48.4683 20.2102 48.473 20.2154C48.5864 20.3408 48.6999 20.4764 48.7853 20.5882C48.715 20.6453 48.6371 20.7073 48.5597 20.7668L48.5519 20.7728L48.5444 20.779L48.4774 20.8349L48.3253 20.6653L48.3253 20.6653L48.1674 20.4891L48.3066 20.3499Z" fill="#9856A4" stroke="#9856A4"/>
<path d="M22.394 22.0199C22.0658 22.0746 21.6283 22.1658 21.446 22.2205C21.2272 22.2751 21.0449 22.2934 20.8809 22.2205C20.6986 22.1475 20.6621 22.1658 20.6256 22.2934C20.6074 22.4028 20.3522 22.5668 19.9511 22.7309C19.0396 23.132 17.8364 23.9341 17.0889 24.6451C12.9324 28.5829 12.9324 35.5834 17.0707 39.5759C17.3988 39.8858 18.1281 40.5238 18.675 40.9796C19.2219 41.4354 19.6777 41.8547 19.6777 41.8911C19.6777 41.9276 19.623 42.1828 19.55 42.4745C19.313 43.5319 19.6047 44.5892 20.334 45.2638C20.8809 45.7742 21.4278 46.0294 22.1752 46.0841L22.7586 46.1388L22.7951 46.704C22.8862 48.3447 23.9436 49.4568 25.4567 49.5662L26.1312 49.6026L26.1677 50.3136C26.2224 51.1704 26.4594 51.7173 27.0245 52.2825C27.5168 52.7747 28.2095 53.0664 28.9387 53.0664H29.4492L29.4856 53.7409C29.5403 54.5795 29.832 55.2541 30.3789 55.801C31.3634 56.7672 33.1864 56.8219 34.4261 55.9468L34.7907 55.6916L35.1736 55.9468C35.7022 56.2932 36.3221 56.4208 37.0878 56.3661C38.6373 56.2567 39.7312 55.1994 39.8223 53.668L39.8588 53.0846L40.5333 53.0482C41.6818 52.9752 42.5387 52.4466 43.0309 51.4986C43.2314 51.0975 43.432 50.0948 43.359 49.8761C43.3408 49.8214 43.5596 49.7667 44.0153 49.7302C45.6014 49.6208 46.5676 48.7093 46.8228 47.105L46.9322 46.4487H47.2968C47.8073 46.4487 48.6459 46.2117 49.0287 45.9565C49.5392 45.6284 49.7762 45.3367 50.0678 44.7168C50.3048 44.2429 50.3413 44.0605 50.3413 43.4225V42.6933L52.219 41.1072C54.1332 39.4847 54.5343 39.0836 55.2088 38.0992C57.0319 35.4922 57.5241 31.8644 56.485 28.7652C55.6099 26.1218 53.641 23.9523 51.1252 22.8221C50.7241 22.6398 50.3778 22.421 50.3413 22.3298C50.3048 22.2204 50.2502 22.2022 50.1043 22.2569C49.9767 22.2934 49.685 22.2569 49.211 22.1475C48.6276 22.0017 48.263 21.9652 46.8228 21.9652C45.2732 21.9652 45.0545 21.9835 44.2888 22.184C43.195 22.4757 42.3199 22.8585 41.4448 23.3872C40.9162 23.7153 37.5982 26.3952 35.6475 28.0724C35.5017 28.1818 35.2647 28.0177 32.9494 26.0671C31.5457 24.9003 30.1602 23.7883 29.8685 23.5877C28.7564 22.8403 27.3709 22.2934 25.9672 22.0381C25.0556 21.8558 23.2508 21.8558 22.394 22.0199ZM26.2771 23.4054C27.1339 23.6242 28.4283 24.1893 29.1028 24.6633C29.3216 24.8092 30.4701 25.7389 31.6368 26.7416C32.8218 27.7261 35.3559 29.859 37.2701 31.4451C39.1843 33.0493 40.9526 34.5442 41.1714 34.7448C41.6636 35.2005 41.8277 35.5469 41.8277 36.0574C41.8277 37.0054 40.6792 38.0263 39.8588 37.8257C39.3848 37.7163 39.0931 37.4976 36.6138 35.4922C33.624 33.0858 33.5875 33.0493 33.2958 33.1223C33.1682 33.1587 32.8401 33.4322 32.5301 33.7421C29.9049 36.4038 25.3473 34.8177 24.9645 31.1351L24.9098 30.5518H24.2353C23.5607 30.5518 23.5425 30.5518 23.5425 30.7705C23.5425 30.8982 23.5972 31.2992 23.6884 31.6638C23.9618 33.0311 24.9098 34.5078 25.9854 35.2735C26.3865 35.5652 26.4776 35.6563 26.4047 35.7475C26.35 35.8021 24.9827 36.9324 23.3967 38.2633C20.7533 40.4691 20.4798 40.6697 20.3522 40.5603C20.2793 40.4874 19.7323 40.0316 19.1672 39.5576C17.4718 38.1539 16.7243 37.2424 16.068 35.8204C15.4846 34.5807 15.2841 33.6145 15.2841 32.1378C15.2841 31.044 15.3206 30.7523 15.5211 30.0049C16.0863 27.8172 17.4535 25.8848 19.3313 24.6269C21.446 23.2231 23.8524 22.8038 26.2771 23.4054ZM47.7708 23.1867C49.8309 23.4419 51.5445 24.2805 53.0394 25.7572C55.8469 28.5464 56.5397 32.6118 54.8078 36.1121C54.1332 37.4794 53.3858 38.2997 51.0888 40.2322L49.7397 41.3624L49.3751 41.0525C49.1746 40.8702 48.5912 40.3233 48.0443 39.8493C46.9869 38.8831 46.6587 38.6826 45.8931 38.5185C44.9998 38.3362 43.9242 38.5914 43.2497 39.1748C42.7392 39.6123 42.3564 40.4509 42.3017 41.1984L42.2652 41.7817H41.7183C40.114 41.8 38.8926 42.9485 38.8014 44.5345L38.765 45.1179H38.218C36.632 45.1179 35.4288 46.23 35.3194 47.7796L35.2829 48.4176L34.5719 48.4541C33.7151 48.5088 33.0953 48.7822 32.5119 49.3838C32.0015 49.949 30.2149 51.4074 29.832 51.608C29.1393 51.9726 28.1548 51.6627 27.6808 50.9699C27.2433 50.2954 27.298 49.5844 27.8449 48.9828C28.0272 48.7822 29.7956 47.2509 31.7462 45.6284L35.3194 42.6568L34.8819 42.1464C34.6449 41.8729 34.3896 41.6724 34.3532 41.6906C34.2985 41.727 32.5848 43.149 30.5066 44.8809C28.4465 46.6128 26.6417 48.0713 26.4959 48.1442C25.9489 48.4176 25.1468 48.2718 24.6181 47.7796C24.1077 47.3238 23.9254 46.4487 24.217 45.8654C24.3993 45.519 24.3447 45.5554 28.3918 42.1646C30.2696 40.615 31.8556 39.2659 31.9285 39.193C32.0744 39.0654 32.0561 39.0107 31.6186 38.5367L31.1629 38.0263L27.2798 41.2713C25.1468 43.0579 23.2508 44.5892 23.0503 44.6804C22.6128 44.8809 22.2664 44.8809 21.8289 44.6804C20.8444 44.2429 20.4616 43.0214 21.0267 42.1646C21.1543 41.9823 22.7221 40.615 24.527 39.0836C27.7355 36.4038 27.8267 36.3491 28.1731 36.3673C29.595 36.422 30.2331 36.4038 30.7618 36.2761C31.5092 36.0756 32.439 35.6198 33.0224 35.1459L33.4964 34.763L35.921 36.7137C37.2701 37.7893 38.528 38.7555 38.765 38.8649C39.0931 39.0107 39.3301 39.0472 40.0411 39.0472C40.8615 39.0472 40.9526 39.0289 41.4995 38.7555C42.5387 38.245 43.0856 37.3153 43.0856 36.0391C43.0856 35.3646 42.9215 34.7812 42.5751 34.2343C42.4657 34.0703 41.1167 32.867 39.5489 31.5544C37.9993 30.2419 36.6867 29.1298 36.6502 29.0933C36.5955 29.0022 40.9344 25.3379 41.8459 24.6816C43.2314 23.7153 44.9633 23.1502 46.6952 23.0773C46.914 23.1137 47.3697 23.1502 47.7708 23.1867ZM46.203 40.0498C46.8957 40.5603 48.8464 42.4563 48.9558 42.748C49.5209 44.0788 47.9531 45.6284 46.6952 44.9721C46.3124 44.7715 43.9606 42.6203 43.7419 42.2375C43.5231 41.8729 43.5049 41.1801 43.7054 40.7973C43.8877 40.4691 44.2706 40.0681 44.6534 39.8675C45.0909 39.6488 45.7472 39.7217 46.203 40.0498ZM42.3928 43.2037C42.8486 43.4043 45.2368 45.6284 45.4373 46.0294C45.6378 46.4305 45.6378 46.9045 45.4373 47.3603C45.2732 47.7431 44.7628 48.2353 44.4164 48.3629C44.1247 48.4723 43.5231 48.4541 43.2497 48.3265C43.122 48.2718 42.4111 47.6702 41.7001 46.9957C40.351 45.7742 40.0593 45.3731 40.0593 44.8445C40.0593 44.2611 40.6062 43.4954 41.2261 43.2037C41.6454 43.0032 41.9735 43.0032 42.3928 43.2037ZM38.7467 46.4305C39.166 46.5581 41.6636 48.8005 41.9371 49.3109C42.2834 49.9672 42.1194 50.7329 41.4813 51.2798C41.0802 51.6444 40.8432 51.7356 40.3145 51.7356C39.7494 51.7356 39.5124 51.5715 38.0904 50.2224C36.869 49.0739 36.5591 48.6546 36.5591 48.1442C36.5591 47.5608 37.106 46.7951 37.7258 46.5034C38.1269 46.3394 38.291 46.3211 38.7467 46.4305ZM35.3923 49.8396C35.7752 50.0219 37.981 51.9908 38.3457 52.5013C38.765 53.0846 38.6738 53.8503 38.1269 54.4701C37.7258 54.9077 37.3794 55.0718 36.9054 55.09C36.3221 55.09 36.0304 54.8894 34.6449 53.6315C33.3687 52.4648 33.0771 52.0637 33.0771 51.4803C33.0771 50.8241 33.6787 50.0219 34.3532 49.7849C34.7907 49.6208 34.9548 49.6391 35.3923 49.8396ZM31.9285 52.3372C32.0926 52.9753 32.3843 53.4128 33.1135 54.0873L33.7698 54.6889L33.4781 54.9077C32.9494 55.3088 32.2567 55.3634 31.7098 55.0718C31.4181 54.9077 30.9805 54.4155 30.8529 54.0873C30.6706 53.6862 30.6706 53.3945 30.8529 52.9935C30.9805 52.7018 31.6368 51.9361 31.7827 51.9361C31.8009 51.9179 31.8738 52.1002 31.9285 52.3372Z" fill="#9856A4" stroke="#9856A4"/>
</svg>
