<svg width="71" height="71" viewBox="0 0 71 71" fill="none" xmlns="http://www.w3.org/2000/svg">
<rect x="0.5" y="0.5" width="70" height="70" rx="7" fill="#FFCBCC"/>
<path d="M51.0859 13.6249C50.1563 13.789 49.1354 14.2629 48.4245 14.9009C46.638 16.5051 46.2005 19.0937 47.349 21.2447L47.6406 21.7733L44.5781 24.8358L41.5156 27.9166L40.9505 27.6067C38.7813 26.4218 36.2656 26.4582 34.1693 27.6978L33.4948 28.0989L31.3438 25.9478L29.1745 23.7603L29.4297 23.1223C29.6484 22.5572 29.6849 22.3749 29.6484 21.5364C29.612 20.7525 29.5573 20.4973 29.3203 20.0051C28.9557 19.2577 28.2083 18.4921 27.4427 18.1275C26.8958 17.8541 26.7682 17.8358 25.7656 17.8358C24.7448 17.8358 24.6354 17.8541 24.0339 18.1457C21.9193 19.1848 21.1354 21.7551 22.3203 23.7603C22.6667 24.3437 23.4505 25.0546 24.125 25.3645C24.6172 25.6015 24.7995 25.6379 25.7292 25.6379C26.6042 25.6379 26.8411 25.6015 27.2969 25.4009L27.8255 25.164L29.9948 27.3332L32.1458 29.4843L31.7083 30.3775C31.4531 30.8697 31.1797 31.5989 31.0885 31.9817L30.9245 32.6926L27.5885 32.6744L24.2526 32.6379L24.0339 31.9999C22.9948 28.9374 19.7135 27.5884 16.7786 28.9921C16.0495 29.3384 14.9193 30.4869 14.5729 31.1978C13.1146 34.2239 14.5911 37.5963 17.7448 38.5442C18.3646 38.7265 19.7318 38.7447 20.4245 38.5989C22.0286 38.2343 23.4688 36.9036 24.0339 35.2629L24.2526 34.6067L27.625 34.5702C30.2682 34.552 30.9974 34.5702 31.0156 34.6614C31.5625 36.5207 31.9271 37.1588 32.9479 38.1978C33.8047 39.0546 34.8438 39.6379 35.9922 39.9296L36.7031 40.1119V43.6301V47.1483L36.2474 47.2577C35.4635 47.4582 34.6068 47.9504 33.9688 48.5884C31.4714 51.1041 32.1458 55.2603 35.3359 56.828C38.6172 58.4322 42.2995 56.3723 42.737 52.6718C43.0104 50.4296 41.4063 48.0416 39.1823 47.3124L38.6537 47.1483V43.6119V40.0754L38.9271 40.0207C40.2943 39.7108 41.388 39.1275 42.4089 38.1067C43.7031 36.8124 44.3229 35.2812 44.3229 33.4218C44.3229 31.9634 43.9948 30.815 43.1927 29.6666L42.9193 29.2655L46.0182 26.1848C49.0625 23.1405 49.1172 23.1041 49.3359 23.2499C49.7917 23.5416 50.7396 23.8332 51.4688 23.8879C55.5339 24.1796 58.3047 19.8957 56.3906 16.2864C55.9714 15.4843 55.0234 14.5546 54.2396 14.1718C53.2734 13.6796 51.9974 13.4608 51.0859 13.6249ZM38.8542 28.9009C40.2396 29.3202 41.2787 30.177 41.8802 31.4713C42.2083 32.1457 42.2448 32.328 42.2813 33.2213C42.3177 34.0598 42.2995 34.315 42.099 34.8619C41.5703 36.4478 40.2943 37.6327 38.7083 38.0338C38.4349 38.1067 37.888 38.1249 37.3229 38.1067C36.5208 38.0702 36.3021 38.0155 35.6458 37.7056C33.5677 36.7213 32.5104 34.4608 33.0755 32.2551C33.4948 30.6509 34.8073 29.3384 36.3932 28.9009C37.1224 28.7187 38.1979 28.7187 38.8542 28.9009Z" fill="#EB5D60"/>
</svg>
