<svg width="1440" height="726" viewBox="0 0 1440 726" fill="none" xmlns="http://www.w3.org/2000/svg">
<g opacity="0.15" clip-path="url(#clip0_1_3143)">
<mask id="mask0_1_3143" style="mask-type:luminance" maskUnits="userSpaceOnUse" x="0" y="0" width="1440" height="709">
<path d="M0 -6.10352e-05L0 709L1440 709V-6.10352e-05L0 -6.10352e-05Z" fill="white"/>
</mask>
<g mask="url(#mask0_1_3143)">
<path d="M576 283.6L720 354.5L864 283.6L720 212.699L576 283.6Z" fill="url(#paint0_linear_1_3143)"/>
<path d="M720 354.499L864 425.399L1008 354.499L864 283.599L720 354.499Z" fill="url(#paint1_linear_1_3143)"/>
<path d="M576 425.4L720 496.3L864 425.4L720 354.5L576 425.4Z" fill="url(#paint2_linear_1_3143)"/>
<path d="M720 496.3L864 567.2L1008 496.3L864 425.4L720 496.3Z" fill="url(#paint3_linear_1_3143)"/>
<path d="M576 567.2L720 638.1L864 567.2L720 496.3L576 567.2Z" fill="url(#paint4_linear_1_3143)"/>
<path d="M720 638.1L864 709L1008 638.1L864 567.2L720 638.1Z" fill="url(#paint5_linear_1_3143)"/>
<path d="M576 709L720 779.9L864 709L720 638.1L576 709Z" fill="url(#paint6_linear_1_3143)"/>
<path d="M576 141.8L720 212.7L864 141.8L720 70.8997L576 141.8Z" fill="url(#paint7_linear_1_3143)"/>
<path d="M720 212.7L864 283.6L1008 212.7L864 141.8L720 212.7Z" fill="url(#paint8_linear_1_3143)"/>
<path d="M576 -0.000595093L720 70.8994L864 -0.000595093L720 -70.9006L576 -0.000595093Z" fill="url(#paint9_linear_1_3143)"/>
<path d="M720 70.8998L864 141.8L1008 70.8998L864 -0.000213623L720 70.8998Z" fill="url(#paint10_linear_1_3143)"/>
<path d="M288 283.6L432 354.5L576 283.6L432 212.699L288 283.6Z" fill="url(#paint11_linear_1_3143)"/>
<path d="M432 354.499L576 425.399L720 354.499L576 283.599L432 354.499Z" fill="url(#paint12_linear_1_3143)"/>
<path d="M288 425.4L432 496.3L576 425.4L432 354.5L288 425.4Z" fill="url(#paint13_linear_1_3143)"/>
<path d="M432 496.3L576 567.2L720 496.3L576 425.4L432 496.3Z" fill="url(#paint14_linear_1_3143)"/>
<path d="M288 567.2L432 638.1L576 567.2L432 496.3L288 567.2Z" fill="url(#paint15_linear_1_3143)"/>
<path d="M432 638.1L576 709L720 638.1L576 567.2L432 638.1Z" fill="url(#paint16_linear_1_3143)"/>
<path d="M288 709L432 779.9L576 709L432 638.1L288 709Z" fill="url(#paint17_linear_1_3143)"/>
<path d="M288 141.8L432 212.7L576 141.8L432 70.8997L288 141.8Z" fill="url(#paint18_linear_1_3143)"/>
<path d="M432 212.7L576 283.6L720 212.7L576 141.8L432 212.7Z" fill="url(#paint19_linear_1_3143)"/>
<path d="M288 -0.000595093L432 70.8994L576 -0.000595093L432 -70.9006L288 -0.000595093Z" fill="url(#paint20_linear_1_3143)"/>
<path d="M432 70.8998L576 141.8L720 70.8998L576 -0.000213623L432 70.8998Z" fill="url(#paint21_linear_1_3143)"/>
<path d="M0 283.6L144 354.5L288 283.6L144 212.699L0 283.6Z" fill="url(#paint22_linear_1_3143)"/>
<path d="M144 354.499L288 425.399L432 354.499L288 283.599L144 354.499Z" fill="url(#paint23_linear_1_3143)"/>
<path d="M0 425.4L144 496.3L288 425.4L144 354.5L0 425.4Z" fill="url(#paint24_linear_1_3143)"/>
<path d="M144 496.3L288 567.2L432 496.3L288 425.4L144 496.3Z" fill="url(#paint25_linear_1_3143)"/>
<path d="M0 567.2L144 638.1L288 567.2L144 496.3L0 567.2Z" fill="url(#paint26_linear_1_3143)"/>
<path d="M144 638.1L288 709L432 638.1L288 567.2L144 638.1Z" fill="url(#paint27_linear_1_3143)"/>
<path d="M0 709L144 779.9L288 709L144 638.1L0 709Z" fill="url(#paint28_linear_1_3143)"/>
<path d="M0 141.8L144 212.7L288 141.8L144 70.8997L0 141.8Z" fill="url(#paint29_linear_1_3143)"/>
<path d="M144 212.7L288 283.6L432 212.7L288 141.8L144 212.7Z" fill="url(#paint30_linear_1_3143)"/>
<path d="M0 -0.000595093L144 70.8994L288 -0.000595093L144 -70.9006L0 -0.000595093Z" fill="url(#paint31_linear_1_3143)"/>
<path d="M144 70.8998L288 141.8L432 70.8998L288 -0.000213623L144 70.8998Z" fill="url(#paint32_linear_1_3143)"/>
<path d="M-144 354.499L0 425.399L144 354.499L0 283.599L-144 354.499Z" fill="url(#paint33_linear_1_3143)"/>
<path d="M-144 496.3L0 567.2L144 496.3L0 425.4L-144 496.3Z" fill="url(#paint34_linear_1_3143)"/>
<path d="M-144 638.1L0 709L144 638.1L0 567.2L-144 638.1Z" fill="url(#paint35_linear_1_3143)"/>
<path d="M-144 212.7L0 283.6L144 212.7L0 141.8L-144 212.7Z" fill="url(#paint36_linear_1_3143)"/>
<path d="M-144 70.8998L0 141.8L144 70.8998L0 -0.000213623L-144 70.8998Z" fill="url(#paint37_linear_1_3143)"/>
<path d="M864 283.6L1008 354.5L1152 283.6L1008 212.699L864 283.6Z" fill="url(#paint38_linear_1_3143)"/>
<path d="M1008 354.499L1152 425.399L1296 354.499L1152 283.599L1008 354.499Z" fill="url(#paint39_linear_1_3143)"/>
<path d="M864 425.4L1008 496.3L1152 425.4L1008 354.5L864 425.4Z" fill="url(#paint40_linear_1_3143)"/>
<path d="M1008 496.3L1152 567.2L1296 496.3L1152 425.4L1008 496.3Z" fill="url(#paint41_linear_1_3143)"/>
<path d="M864 567.2L1008 638.1L1152 567.2L1008 496.3L864 567.2Z" fill="url(#paint42_linear_1_3143)"/>
<path d="M1008 638.1L1152 709L1296 638.1L1152 567.2L1008 638.1Z" fill="url(#paint43_linear_1_3143)"/>
<path d="M864 709L1008 779.9L1152 709L1008 638.1L864 709Z" fill="url(#paint44_linear_1_3143)"/>
<path d="M864 141.8L1008 212.7L1152 141.8L1008 70.8997L864 141.8Z" fill="url(#paint45_linear_1_3143)"/>
<path d="M1008 212.7L1152 283.6L1296 212.7L1152 141.8L1008 212.7Z" fill="url(#paint46_linear_1_3143)"/>
<path d="M864 -0.000595093L1008 70.8994L1152 -0.000595093L1008 -70.9006L864 -0.000595093Z" fill="url(#paint47_linear_1_3143)"/>
<path d="M1008 70.8998L1152 141.8L1296 70.8998L1152 -0.000213623L1008 70.8998Z" fill="url(#paint48_linear_1_3143)"/>
<path d="M1152 283.6L1296 354.5L1440 283.6L1296 212.699L1152 283.6Z" fill="url(#paint49_linear_1_3143)"/>
<path d="M1296 354.499L1440 425.399L1584 354.499L1440 283.599L1296 354.499Z" fill="url(#paint50_linear_1_3143)"/>
<path d="M1152 425.4L1296 496.3L1440 425.4L1296 354.5L1152 425.4Z" fill="url(#paint51_linear_1_3143)"/>
<path d="M1296 496.3L1440 567.2L1584 496.3L1440 425.4L1296 496.3Z" fill="url(#paint52_linear_1_3143)"/>
<path d="M1152 567.2L1296 638.1L1440 567.2L1296 496.3L1152 567.2Z" fill="url(#paint53_linear_1_3143)"/>
<path d="M1296 638.1L1440 709L1584 638.1L1440 567.2L1296 638.1Z" fill="url(#paint54_linear_1_3143)"/>
<path d="M1152 709L1296 779.9L1440 709L1296 638.1L1152 709Z" fill="url(#paint55_linear_1_3143)"/>
<path d="M1152 141.8L1296 212.7L1440 141.8L1296 70.8997L1152 141.8Z" fill="url(#paint56_linear_1_3143)"/>
<path d="M1296 212.7L1440 283.6L1584 212.7L1440 141.8L1296 212.7Z" fill="url(#paint57_linear_1_3143)"/>
<path d="M1152 -0.000595093L1296 70.8994L1440 -0.000595093L1296 -70.9006L1152 -0.000595093Z" fill="url(#paint58_linear_1_3143)"/>
<path d="M1296 70.8998L1440 141.8L1584 70.8998L1440 -0.000213623L1296 70.8998Z" fill="url(#paint59_linear_1_3143)"/>
</g>
<mask id="mask1_1_3143" style="mask-type:luminance" maskUnits="userSpaceOnUse" x="0" y="0" width="1440" height="610">
<path d="M0 0L0 610L1440 610V0L0 0Z" fill="white"/>
</mask>
<g mask="url(#mask1_1_3143)">
<g opacity="0.3">
<path d="M-144 183V305H144V183H-144Z" fill="url(#paint60_linear_1_3143)"/>
<path d="M144 183V305H432V183H144Z" fill="url(#paint61_linear_1_3143)"/>
<path d="M432 183V305H720V183H432Z" fill="url(#paint62_linear_1_3143)"/>
<path d="M720 183V305H1008V183H720Z" fill="url(#paint63_linear_1_3143)"/>
<path d="M1008 183V305H1296V183H1008Z" fill="url(#paint64_linear_1_3143)"/>
<path d="M1296 183V305H1584V183H1296Z" fill="url(#paint65_linear_1_3143)"/>
<path d="M-144 305V427H144V305H-144Z" fill="url(#paint66_linear_1_3143)"/>
<path d="M144 305V427H432V305H144Z" fill="url(#paint67_linear_1_3143)"/>
<path d="M432 305V427H720V305H432Z" fill="url(#paint68_linear_1_3143)"/>
<path d="M720 305V427H1008V305H720Z" fill="url(#paint69_linear_1_3143)"/>
<path d="M1008 305V427H1296V305H1008Z" fill="url(#paint70_linear_1_3143)"/>
<path d="M1296 305V427H1584V305H1296Z" fill="url(#paint71_linear_1_3143)"/>
<path d="M-144 427V549H144V427H-144Z" fill="url(#paint72_linear_1_3143)"/>
<path d="M144 427V549H432V427H144Z" fill="url(#paint73_linear_1_3143)"/>
<path d="M432 427V549H720V427H432Z" fill="url(#paint74_linear_1_3143)"/>
<path d="M720 427V549H1008V427H720Z" fill="url(#paint75_linear_1_3143)"/>
<path d="M1008 427V549H1296V427H1008Z" fill="url(#paint76_linear_1_3143)"/>
<path d="M1296 427V549H1584V427H1296Z" fill="url(#paint77_linear_1_3143)"/>
<path d="M-144 549V671H144V549H-144Z" fill="url(#paint78_linear_1_3143)"/>
<path d="M144 549V671H432V549H144Z" fill="url(#paint79_linear_1_3143)"/>
<path d="M432 549V671H720V549H432Z" fill="url(#paint80_linear_1_3143)"/>
<path d="M720 549V671H1008V549H720Z" fill="url(#paint81_linear_1_3143)"/>
<path d="M1008 549V671H1296V549H1008Z" fill="url(#paint82_linear_1_3143)"/>
<path d="M1296 549V671H1584V549H1296Z" fill="url(#paint83_linear_1_3143)"/>
<path d="M-144 61V183L144 183V61L-144 61Z" fill="url(#paint84_linear_1_3143)"/>
<path d="M144 61V183L432 183V61L144 61Z" fill="url(#paint85_linear_1_3143)"/>
<path d="M432 61V183L720 183V61L432 61Z" fill="url(#paint86_linear_1_3143)"/>
<path d="M720 61V183L1008 183V61L720 61Z" fill="url(#paint87_linear_1_3143)"/>
<path d="M1008 61V183L1296 183V61L1008 61Z" fill="url(#paint88_linear_1_3143)"/>
<path d="M1296 61V183L1584 183V61L1296 61Z" fill="url(#paint89_linear_1_3143)"/>
<path d="M-144 -61V61L144 61V-61L-144 -61Z" fill="url(#paint90_linear_1_3143)"/>
<path d="M144 -61V61L432 61V-61L144 -61Z" fill="url(#paint91_linear_1_3143)"/>
<path d="M432 -61V61L720 61V-61L432 -61Z" fill="url(#paint92_linear_1_3143)"/>
<path d="M720 -61V61L1008 61V-61L720 -61Z" fill="url(#paint93_linear_1_3143)"/>
<path d="M1008 -61V61L1296 61V-61L1008 -61Z" fill="url(#paint94_linear_1_3143)"/>
<path d="M1296 -61V61L1584 61V-61L1296 -61Z" fill="url(#paint95_linear_1_3143)"/>
</g>
</g>
</g>
<defs>
<linearGradient id="paint0_linear_1_3143" x1="864" y1="283.6" x2="576" y2="283.6" gradientUnits="userSpaceOnUse">
<stop stop-color="white"/>
<stop offset="1" stop-color="#D1D3D4"/>
</linearGradient>
<linearGradient id="paint1_linear_1_3143" x1="1008" y1="354.499" x2="720" y2="354.499" gradientUnits="userSpaceOnUse">
<stop stop-color="white"/>
<stop offset="1" stop-color="#D1D3D4"/>
</linearGradient>
<linearGradient id="paint2_linear_1_3143" x1="864" y1="425.4" x2="576" y2="425.4" gradientUnits="userSpaceOnUse">
<stop stop-color="white"/>
<stop offset="1" stop-color="#D1D3D4"/>
</linearGradient>
<linearGradient id="paint3_linear_1_3143" x1="1008" y1="496.3" x2="720" y2="496.3" gradientUnits="userSpaceOnUse">
<stop stop-color="white"/>
<stop offset="1" stop-color="#D1D3D4"/>
</linearGradient>
<linearGradient id="paint4_linear_1_3143" x1="864" y1="567.2" x2="576" y2="567.2" gradientUnits="userSpaceOnUse">
<stop stop-color="white"/>
<stop offset="1" stop-color="#D1D3D4"/>
</linearGradient>
<linearGradient id="paint5_linear_1_3143" x1="1008" y1="638.1" x2="720" y2="638.1" gradientUnits="userSpaceOnUse">
<stop stop-color="white"/>
<stop offset="1" stop-color="#D1D3D4"/>
</linearGradient>
<linearGradient id="paint6_linear_1_3143" x1="864" y1="709" x2="576" y2="709" gradientUnits="userSpaceOnUse">
<stop stop-color="white"/>
<stop offset="1" stop-color="#D1D3D4"/>
</linearGradient>
<linearGradient id="paint7_linear_1_3143" x1="864" y1="141.8" x2="576" y2="141.8" gradientUnits="userSpaceOnUse">
<stop stop-color="white"/>
<stop offset="1" stop-color="#D1D3D4"/>
</linearGradient>
<linearGradient id="paint8_linear_1_3143" x1="1008" y1="212.7" x2="720" y2="212.7" gradientUnits="userSpaceOnUse">
<stop stop-color="white"/>
<stop offset="1" stop-color="#D1D3D4"/>
</linearGradient>
<linearGradient id="paint9_linear_1_3143" x1="864" y1="-0.000595093" x2="576" y2="-0.000595093" gradientUnits="userSpaceOnUse">
<stop stop-color="white"/>
<stop offset="1" stop-color="#D1D3D4"/>
</linearGradient>
<linearGradient id="paint10_linear_1_3143" x1="1008" y1="70.8998" x2="720" y2="70.8998" gradientUnits="userSpaceOnUse">
<stop stop-color="white"/>
<stop offset="1" stop-color="#D1D3D4"/>
</linearGradient>
<linearGradient id="paint11_linear_1_3143" x1="576" y1="283.6" x2="288" y2="283.6" gradientUnits="userSpaceOnUse">
<stop stop-color="white"/>
<stop offset="1" stop-color="#D1D3D4"/>
</linearGradient>
<linearGradient id="paint12_linear_1_3143" x1="720" y1="354.499" x2="432" y2="354.499" gradientUnits="userSpaceOnUse">
<stop stop-color="white"/>
<stop offset="1" stop-color="#D1D3D4"/>
</linearGradient>
<linearGradient id="paint13_linear_1_3143" x1="576" y1="425.4" x2="288" y2="425.4" gradientUnits="userSpaceOnUse">
<stop stop-color="white"/>
<stop offset="1" stop-color="#D1D3D4"/>
</linearGradient>
<linearGradient id="paint14_linear_1_3143" x1="720" y1="496.3" x2="432" y2="496.3" gradientUnits="userSpaceOnUse">
<stop stop-color="white"/>
<stop offset="1" stop-color="#D1D3D4"/>
</linearGradient>
<linearGradient id="paint15_linear_1_3143" x1="576" y1="567.2" x2="288" y2="567.2" gradientUnits="userSpaceOnUse">
<stop stop-color="white"/>
<stop offset="1" stop-color="#D1D3D4"/>
</linearGradient>
<linearGradient id="paint16_linear_1_3143" x1="720" y1="638.1" x2="432" y2="638.1" gradientUnits="userSpaceOnUse">
<stop stop-color="white"/>
<stop offset="1" stop-color="#D1D3D4"/>
</linearGradient>
<linearGradient id="paint17_linear_1_3143" x1="576" y1="709" x2="288" y2="709" gradientUnits="userSpaceOnUse">
<stop stop-color="white"/>
<stop offset="1" stop-color="#D1D3D4"/>
</linearGradient>
<linearGradient id="paint18_linear_1_3143" x1="576" y1="141.8" x2="288" y2="141.8" gradientUnits="userSpaceOnUse">
<stop stop-color="white"/>
<stop offset="1" stop-color="#D1D3D4"/>
</linearGradient>
<linearGradient id="paint19_linear_1_3143" x1="720" y1="212.7" x2="432" y2="212.7" gradientUnits="userSpaceOnUse">
<stop stop-color="white"/>
<stop offset="1" stop-color="#D1D3D4"/>
</linearGradient>
<linearGradient id="paint20_linear_1_3143" x1="576" y1="-0.000595093" x2="288" y2="-0.000595093" gradientUnits="userSpaceOnUse">
<stop stop-color="white"/>
<stop offset="1" stop-color="#D1D3D4"/>
</linearGradient>
<linearGradient id="paint21_linear_1_3143" x1="720" y1="70.8998" x2="432" y2="70.8998" gradientUnits="userSpaceOnUse">
<stop stop-color="white"/>
<stop offset="1" stop-color="#D1D3D4"/>
</linearGradient>
<linearGradient id="paint22_linear_1_3143" x1="288" y1="283.6" x2="0" y2="283.6" gradientUnits="userSpaceOnUse">
<stop stop-color="white"/>
<stop offset="1" stop-color="#D1D3D4"/>
</linearGradient>
<linearGradient id="paint23_linear_1_3143" x1="432" y1="354.499" x2="144" y2="354.499" gradientUnits="userSpaceOnUse">
<stop stop-color="white"/>
<stop offset="1" stop-color="#D1D3D4"/>
</linearGradient>
<linearGradient id="paint24_linear_1_3143" x1="288" y1="425.4" x2="0" y2="425.4" gradientUnits="userSpaceOnUse">
<stop stop-color="white"/>
<stop offset="1" stop-color="#D1D3D4"/>
</linearGradient>
<linearGradient id="paint25_linear_1_3143" x1="432" y1="496.3" x2="144" y2="496.3" gradientUnits="userSpaceOnUse">
<stop stop-color="white"/>
<stop offset="1" stop-color="#D1D3D4"/>
</linearGradient>
<linearGradient id="paint26_linear_1_3143" x1="288" y1="567.2" x2="0" y2="567.2" gradientUnits="userSpaceOnUse">
<stop stop-color="white"/>
<stop offset="1" stop-color="#D1D3D4"/>
</linearGradient>
<linearGradient id="paint27_linear_1_3143" x1="432" y1="638.1" x2="144" y2="638.1" gradientUnits="userSpaceOnUse">
<stop stop-color="white"/>
<stop offset="1" stop-color="#D1D3D4"/>
</linearGradient>
<linearGradient id="paint28_linear_1_3143" x1="288" y1="709" x2="0" y2="709" gradientUnits="userSpaceOnUse">
<stop stop-color="white"/>
<stop offset="1" stop-color="#D1D3D4"/>
</linearGradient>
<linearGradient id="paint29_linear_1_3143" x1="288" y1="141.8" x2="0" y2="141.8" gradientUnits="userSpaceOnUse">
<stop stop-color="white"/>
<stop offset="1" stop-color="#D1D3D4"/>
</linearGradient>
<linearGradient id="paint30_linear_1_3143" x1="432" y1="212.7" x2="144" y2="212.7" gradientUnits="userSpaceOnUse">
<stop stop-color="white"/>
<stop offset="1" stop-color="#D1D3D4"/>
</linearGradient>
<linearGradient id="paint31_linear_1_3143" x1="288" y1="-0.000595093" x2="0" y2="-0.000595093" gradientUnits="userSpaceOnUse">
<stop stop-color="white"/>
<stop offset="1" stop-color="#D1D3D4"/>
</linearGradient>
<linearGradient id="paint32_linear_1_3143" x1="432" y1="70.8998" x2="144" y2="70.8998" gradientUnits="userSpaceOnUse">
<stop stop-color="white"/>
<stop offset="1" stop-color="#D1D3D4"/>
</linearGradient>
<linearGradient id="paint33_linear_1_3143" x1="144" y1="354.499" x2="-144" y2="354.499" gradientUnits="userSpaceOnUse">
<stop stop-color="white"/>
<stop offset="1" stop-color="#D1D3D4"/>
</linearGradient>
<linearGradient id="paint34_linear_1_3143" x1="144" y1="496.3" x2="-144" y2="496.3" gradientUnits="userSpaceOnUse">
<stop stop-color="white"/>
<stop offset="1" stop-color="#D1D3D4"/>
</linearGradient>
<linearGradient id="paint35_linear_1_3143" x1="144" y1="638.1" x2="-144" y2="638.1" gradientUnits="userSpaceOnUse">
<stop stop-color="white"/>
<stop offset="1" stop-color="#D1D3D4"/>
</linearGradient>
<linearGradient id="paint36_linear_1_3143" x1="144" y1="212.7" x2="-144" y2="212.7" gradientUnits="userSpaceOnUse">
<stop stop-color="white"/>
<stop offset="1" stop-color="#D1D3D4"/>
</linearGradient>
<linearGradient id="paint37_linear_1_3143" x1="144" y1="70.8998" x2="-144" y2="70.8998" gradientUnits="userSpaceOnUse">
<stop stop-color="white"/>
<stop offset="1" stop-color="#D1D3D4"/>
</linearGradient>
<linearGradient id="paint38_linear_1_3143" x1="1152" y1="283.6" x2="864" y2="283.6" gradientUnits="userSpaceOnUse">
<stop stop-color="white"/>
<stop offset="1" stop-color="#D1D3D4"/>
</linearGradient>
<linearGradient id="paint39_linear_1_3143" x1="1296" y1="354.499" x2="1008" y2="354.499" gradientUnits="userSpaceOnUse">
<stop stop-color="white"/>
<stop offset="1" stop-color="#D1D3D4"/>
</linearGradient>
<linearGradient id="paint40_linear_1_3143" x1="1152" y1="425.4" x2="864" y2="425.4" gradientUnits="userSpaceOnUse">
<stop stop-color="white"/>
<stop offset="1" stop-color="#D1D3D4"/>
</linearGradient>
<linearGradient id="paint41_linear_1_3143" x1="1296" y1="496.3" x2="1008" y2="496.3" gradientUnits="userSpaceOnUse">
<stop stop-color="white"/>
<stop offset="1" stop-color="#D1D3D4"/>
</linearGradient>
<linearGradient id="paint42_linear_1_3143" x1="1152" y1="567.2" x2="864" y2="567.2" gradientUnits="userSpaceOnUse">
<stop stop-color="white"/>
<stop offset="1" stop-color="#D1D3D4"/>
</linearGradient>
<linearGradient id="paint43_linear_1_3143" x1="1296" y1="638.1" x2="1008" y2="638.1" gradientUnits="userSpaceOnUse">
<stop stop-color="white"/>
<stop offset="1" stop-color="#D1D3D4"/>
</linearGradient>
<linearGradient id="paint44_linear_1_3143" x1="1152" y1="709" x2="864" y2="709" gradientUnits="userSpaceOnUse">
<stop stop-color="white"/>
<stop offset="1" stop-color="#D1D3D4"/>
</linearGradient>
<linearGradient id="paint45_linear_1_3143" x1="1152" y1="141.8" x2="864" y2="141.8" gradientUnits="userSpaceOnUse">
<stop stop-color="white"/>
<stop offset="1" stop-color="#D1D3D4"/>
</linearGradient>
<linearGradient id="paint46_linear_1_3143" x1="1296" y1="212.7" x2="1008" y2="212.7" gradientUnits="userSpaceOnUse">
<stop stop-color="white"/>
<stop offset="1" stop-color="#D1D3D4"/>
</linearGradient>
<linearGradient id="paint47_linear_1_3143" x1="1152" y1="-0.000595093" x2="864" y2="-0.000595093" gradientUnits="userSpaceOnUse">
<stop stop-color="white"/>
<stop offset="1" stop-color="#D1D3D4"/>
</linearGradient>
<linearGradient id="paint48_linear_1_3143" x1="1296" y1="70.8998" x2="1008" y2="70.8998" gradientUnits="userSpaceOnUse">
<stop stop-color="white"/>
<stop offset="1" stop-color="#D1D3D4"/>
</linearGradient>
<linearGradient id="paint49_linear_1_3143" x1="1440" y1="283.6" x2="1152" y2="283.6" gradientUnits="userSpaceOnUse">
<stop stop-color="white"/>
<stop offset="1" stop-color="#D1D3D4"/>
</linearGradient>
<linearGradient id="paint50_linear_1_3143" x1="1584" y1="354.499" x2="1296" y2="354.499" gradientUnits="userSpaceOnUse">
<stop stop-color="white"/>
<stop offset="1" stop-color="#D1D3D4"/>
</linearGradient>
<linearGradient id="paint51_linear_1_3143" x1="1440" y1="425.4" x2="1152" y2="425.4" gradientUnits="userSpaceOnUse">
<stop stop-color="white"/>
<stop offset="1" stop-color="#D1D3D4"/>
</linearGradient>
<linearGradient id="paint52_linear_1_3143" x1="1584" y1="496.3" x2="1296" y2="496.3" gradientUnits="userSpaceOnUse">
<stop stop-color="white"/>
<stop offset="1" stop-color="#D1D3D4"/>
</linearGradient>
<linearGradient id="paint53_linear_1_3143" x1="1440" y1="567.2" x2="1152" y2="567.2" gradientUnits="userSpaceOnUse">
<stop stop-color="white"/>
<stop offset="1" stop-color="#D1D3D4"/>
</linearGradient>
<linearGradient id="paint54_linear_1_3143" x1="1584" y1="638.1" x2="1296" y2="638.1" gradientUnits="userSpaceOnUse">
<stop stop-color="white"/>
<stop offset="1" stop-color="#D1D3D4"/>
</linearGradient>
<linearGradient id="paint55_linear_1_3143" x1="1440" y1="709" x2="1152" y2="709" gradientUnits="userSpaceOnUse">
<stop stop-color="white"/>
<stop offset="1" stop-color="#D1D3D4"/>
</linearGradient>
<linearGradient id="paint56_linear_1_3143" x1="1440" y1="141.8" x2="1152" y2="141.8" gradientUnits="userSpaceOnUse">
<stop stop-color="white"/>
<stop offset="1" stop-color="#D1D3D4"/>
</linearGradient>
<linearGradient id="paint57_linear_1_3143" x1="1584" y1="212.7" x2="1296" y2="212.7" gradientUnits="userSpaceOnUse">
<stop stop-color="white"/>
<stop offset="1" stop-color="#D1D3D4"/>
</linearGradient>
<linearGradient id="paint58_linear_1_3143" x1="1440" y1="-0.000595093" x2="1152" y2="-0.000595093" gradientUnits="userSpaceOnUse">
<stop stop-color="white"/>
<stop offset="1" stop-color="#D1D3D4"/>
</linearGradient>
<linearGradient id="paint59_linear_1_3143" x1="1584" y1="70.8998" x2="1296" y2="70.8998" gradientUnits="userSpaceOnUse">
<stop stop-color="white"/>
<stop offset="1" stop-color="#D1D3D4"/>
</linearGradient>
<linearGradient id="paint60_linear_1_3143" x1="-144" y1="305" x2="-56.3647" y2="98.1233" gradientUnits="userSpaceOnUse">
<stop stop-color="white"/>
<stop offset="1" stop-color="#D1D3D4"/>
</linearGradient>
<linearGradient id="paint61_linear_1_3143" x1="144" y1="305" x2="231.635" y2="98.1233" gradientUnits="userSpaceOnUse">
<stop stop-color="white"/>
<stop offset="1" stop-color="#D1D3D4"/>
</linearGradient>
<linearGradient id="paint62_linear_1_3143" x1="432" y1="305" x2="519.635" y2="98.1233" gradientUnits="userSpaceOnUse">
<stop stop-color="white"/>
<stop offset="1" stop-color="#D1D3D4"/>
</linearGradient>
<linearGradient id="paint63_linear_1_3143" x1="720" y1="305" x2="807.635" y2="98.1233" gradientUnits="userSpaceOnUse">
<stop stop-color="white"/>
<stop offset="1" stop-color="#D1D3D4"/>
</linearGradient>
<linearGradient id="paint64_linear_1_3143" x1="1008" y1="305" x2="1095.64" y2="98.1233" gradientUnits="userSpaceOnUse">
<stop stop-color="white"/>
<stop offset="1" stop-color="#D1D3D4"/>
</linearGradient>
<linearGradient id="paint65_linear_1_3143" x1="1296" y1="305" x2="1383.64" y2="98.1233" gradientUnits="userSpaceOnUse">
<stop stop-color="white"/>
<stop offset="1" stop-color="#D1D3D4"/>
</linearGradient>
<linearGradient id="paint66_linear_1_3143" x1="-144" y1="427" x2="-56.3647" y2="220.123" gradientUnits="userSpaceOnUse">
<stop stop-color="white"/>
<stop offset="1" stop-color="#D1D3D4"/>
</linearGradient>
<linearGradient id="paint67_linear_1_3143" x1="144" y1="427" x2="231.635" y2="220.123" gradientUnits="userSpaceOnUse">
<stop stop-color="white"/>
<stop offset="1" stop-color="#D1D3D4"/>
</linearGradient>
<linearGradient id="paint68_linear_1_3143" x1="432" y1="427" x2="519.635" y2="220.123" gradientUnits="userSpaceOnUse">
<stop stop-color="white"/>
<stop offset="1" stop-color="#D1D3D4"/>
</linearGradient>
<linearGradient id="paint69_linear_1_3143" x1="720" y1="427" x2="807.635" y2="220.123" gradientUnits="userSpaceOnUse">
<stop stop-color="white"/>
<stop offset="1" stop-color="#D1D3D4"/>
</linearGradient>
<linearGradient id="paint70_linear_1_3143" x1="1008" y1="427" x2="1095.64" y2="220.123" gradientUnits="userSpaceOnUse">
<stop stop-color="white"/>
<stop offset="1" stop-color="#D1D3D4"/>
</linearGradient>
<linearGradient id="paint71_linear_1_3143" x1="1296" y1="427" x2="1383.64" y2="220.123" gradientUnits="userSpaceOnUse">
<stop stop-color="white"/>
<stop offset="1" stop-color="#D1D3D4"/>
</linearGradient>
<linearGradient id="paint72_linear_1_3143" x1="-144" y1="549" x2="-56.3647" y2="342.123" gradientUnits="userSpaceOnUse">
<stop stop-color="white"/>
<stop offset="1" stop-color="#D1D3D4"/>
</linearGradient>
<linearGradient id="paint73_linear_1_3143" x1="144" y1="549" x2="231.635" y2="342.123" gradientUnits="userSpaceOnUse">
<stop stop-color="white"/>
<stop offset="1" stop-color="#D1D3D4"/>
</linearGradient>
<linearGradient id="paint74_linear_1_3143" x1="432" y1="549" x2="519.635" y2="342.123" gradientUnits="userSpaceOnUse">
<stop stop-color="white"/>
<stop offset="1" stop-color="#D1D3D4"/>
</linearGradient>
<linearGradient id="paint75_linear_1_3143" x1="720" y1="549" x2="807.635" y2="342.123" gradientUnits="userSpaceOnUse">
<stop stop-color="white"/>
<stop offset="1" stop-color="#D1D3D4"/>
</linearGradient>
<linearGradient id="paint76_linear_1_3143" x1="1008" y1="549" x2="1095.64" y2="342.123" gradientUnits="userSpaceOnUse">
<stop stop-color="white"/>
<stop offset="1" stop-color="#D1D3D4"/>
</linearGradient>
<linearGradient id="paint77_linear_1_3143" x1="1296" y1="549" x2="1383.64" y2="342.123" gradientUnits="userSpaceOnUse">
<stop stop-color="white"/>
<stop offset="1" stop-color="#D1D3D4"/>
</linearGradient>
<linearGradient id="paint78_linear_1_3143" x1="-144" y1="671" x2="-56.3647" y2="464.123" gradientUnits="userSpaceOnUse">
<stop stop-color="white"/>
<stop offset="1" stop-color="#D1D3D4"/>
</linearGradient>
<linearGradient id="paint79_linear_1_3143" x1="144" y1="671" x2="231.635" y2="464.123" gradientUnits="userSpaceOnUse">
<stop stop-color="white"/>
<stop offset="1" stop-color="#D1D3D4"/>
</linearGradient>
<linearGradient id="paint80_linear_1_3143" x1="432" y1="671" x2="519.635" y2="464.123" gradientUnits="userSpaceOnUse">
<stop stop-color="white"/>
<stop offset="1" stop-color="#D1D3D4"/>
</linearGradient>
<linearGradient id="paint81_linear_1_3143" x1="720" y1="671" x2="807.635" y2="464.123" gradientUnits="userSpaceOnUse">
<stop stop-color="white"/>
<stop offset="1" stop-color="#D1D3D4"/>
</linearGradient>
<linearGradient id="paint82_linear_1_3143" x1="1008" y1="671" x2="1095.64" y2="464.123" gradientUnits="userSpaceOnUse">
<stop stop-color="white"/>
<stop offset="1" stop-color="#D1D3D4"/>
</linearGradient>
<linearGradient id="paint83_linear_1_3143" x1="1296" y1="671" x2="1383.64" y2="464.123" gradientUnits="userSpaceOnUse">
<stop stop-color="white"/>
<stop offset="1" stop-color="#D1D3D4"/>
</linearGradient>
<linearGradient id="paint84_linear_1_3143" x1="-144" y1="183" x2="-56.3647" y2="-23.8767" gradientUnits="userSpaceOnUse">
<stop stop-color="white"/>
<stop offset="1" stop-color="#D1D3D4"/>
</linearGradient>
<linearGradient id="paint85_linear_1_3143" x1="144" y1="183" x2="231.635" y2="-23.8767" gradientUnits="userSpaceOnUse">
<stop stop-color="white"/>
<stop offset="1" stop-color="#D1D3D4"/>
</linearGradient>
<linearGradient id="paint86_linear_1_3143" x1="432" y1="183" x2="519.635" y2="-23.8767" gradientUnits="userSpaceOnUse">
<stop stop-color="white"/>
<stop offset="1" stop-color="#D1D3D4"/>
</linearGradient>
<linearGradient id="paint87_linear_1_3143" x1="720" y1="183" x2="807.635" y2="-23.8767" gradientUnits="userSpaceOnUse">
<stop stop-color="white"/>
<stop offset="1" stop-color="#D1D3D4"/>
</linearGradient>
<linearGradient id="paint88_linear_1_3143" x1="1008" y1="183" x2="1095.64" y2="-23.8767" gradientUnits="userSpaceOnUse">
<stop stop-color="white"/>
<stop offset="1" stop-color="#D1D3D4"/>
</linearGradient>
<linearGradient id="paint89_linear_1_3143" x1="1296" y1="183" x2="1383.64" y2="-23.8767" gradientUnits="userSpaceOnUse">
<stop stop-color="white"/>
<stop offset="1" stop-color="#D1D3D4"/>
</linearGradient>
<linearGradient id="paint90_linear_1_3143" x1="-144" y1="61" x2="-56.3647" y2="-145.877" gradientUnits="userSpaceOnUse">
<stop stop-color="white"/>
<stop offset="1" stop-color="#D1D3D4"/>
</linearGradient>
<linearGradient id="paint91_linear_1_3143" x1="144" y1="61" x2="231.635" y2="-145.877" gradientUnits="userSpaceOnUse">
<stop stop-color="white"/>
<stop offset="1" stop-color="#D1D3D4"/>
</linearGradient>
<linearGradient id="paint92_linear_1_3143" x1="432" y1="61" x2="519.635" y2="-145.877" gradientUnits="userSpaceOnUse">
<stop stop-color="white"/>
<stop offset="1" stop-color="#D1D3D4"/>
</linearGradient>
<linearGradient id="paint93_linear_1_3143" x1="720" y1="61" x2="807.635" y2="-145.877" gradientUnits="userSpaceOnUse">
<stop stop-color="white"/>
<stop offset="1" stop-color="#D1D3D4"/>
</linearGradient>
<linearGradient id="paint94_linear_1_3143" x1="1008" y1="61" x2="1095.64" y2="-145.877" gradientUnits="userSpaceOnUse">
<stop stop-color="white"/>
<stop offset="1" stop-color="#D1D3D4"/>
</linearGradient>
<linearGradient id="paint95_linear_1_3143" x1="1296" y1="61" x2="1383.64" y2="-145.877" gradientUnits="userSpaceOnUse">
<stop stop-color="white"/>
<stop offset="1" stop-color="#D1D3D4"/>
</linearGradient>
<clipPath id="clip0_1_3143">
<rect width="726" height="1440" fill="white" transform="matrix(0 -1 1 0 0 726)"/>
</clipPath>
</defs>
</svg>
