<svg width="23" height="22" viewBox="0 0 23 22" fill="none" xmlns="http://www.w3.org/2000/svg">
<path d="M10.6332 0.902089C6.64571 1.306 3.27696 3.97006 2.00508 7.73412C1.57539 8.9974 1.44649 9.90834 1.48086 11.3177C1.51524 12.349 1.60977 13.0193 1.86758 13.8872C2.87305 17.2646 5.61446 19.9201 9.01758 20.8138C9.82539 21.0287 10.3668 21.106 11.2949 21.1318C12.7816 21.1747 14.0535 20.9599 15.3855 20.4185C20.4129 18.3904 22.9652 12.7872 21.1949 7.66537C20.8598 6.68568 20.3356 5.72318 19.6996 4.8724C19.3129 4.34818 18.2387 3.27396 17.723 2.89584C15.6691 1.38334 13.091 0.65287 10.6332 0.902089ZM13.1684 1.80443C17.8863 2.62084 21.2723 6.91771 20.9113 11.6615C20.5848 15.9583 17.4223 19.4732 13.2113 20.2208C12.5668 20.3326 11.2348 20.3755 10.5988 20.2982C6.49961 19.8169 3.30274 16.8951 2.43477 12.8474C2.30586 12.2544 2.29727 12.1255 2.30586 10.9912C2.30586 9.92553 2.32305 9.71068 2.41758 9.24662C2.82149 7.37318 3.60352 5.86928 4.85821 4.57162C5.72618 3.66928 6.45664 3.12787 7.52227 2.60365C8.50196 2.1224 9.55039 1.82162 10.6848 1.69271C11.2949 1.64115 12.4895 1.68412 13.1684 1.80443Z" fill="#828282"/>
<path d="M7.50488 6.72039C7.36738 6.77195 7.29004 6.92664 7.29004 7.10711C7.29004 7.22742 7.58223 7.54539 9.1377 9.10086C10.1518 10.1149 10.9854 10.9743 10.9854 11.0001C10.9854 11.0259 10.1518 11.8852 9.1377 12.8993C7.40176 14.6352 7.29004 14.7641 7.29004 14.9274C7.29004 15.1595 7.45332 15.3313 7.69395 15.3313C7.85723 15.3313 8.01191 15.1852 9.74785 13.4579L11.6213 11.5845L13.4947 13.4579C15.4627 15.4259 15.4713 15.4345 15.7463 15.2798C15.858 15.2196 15.9525 14.9532 15.9096 14.8329C15.8924 14.7899 15.0502 13.9134 14.0275 12.8907L12.1713 11.0259L14.0018 9.19539C15.0072 8.18133 15.858 7.29617 15.8838 7.21883C15.9869 6.94383 15.7291 6.63445 15.4455 6.69461C15.351 6.72039 14.6807 7.35633 13.4432 8.58524L11.5783 10.4415L9.6877 8.55086C8.45879 7.31336 7.78848 6.66883 7.71973 6.67742C7.66816 6.67742 7.56504 6.69461 7.50488 6.72039Z" fill="#828282"/>
</svg>
