<svg width="24" height="23" viewBox="0 0 24 23" fill="none" xmlns="http://www.w3.org/2000/svg">
<path d="M1.50879 7.45215H6.06387V21.1354H1.50879V7.45215Z" fill="#0077B5"/>
<path d="M21.0139 8.70098C20.0616 7.65879 18.7948 7.1377 17.2225 7.1377C16.6385 7.1377 16.1174 7.20957 15.6413 7.35332C15.1651 7.49707 14.7698 7.69473 14.4374 7.95527C14.1139 8.21582 13.8534 8.44941 13.6557 8.67402C13.476 8.88066 13.2963 9.13223 13.1167 9.40176V7.45215H8.57954L8.58853 8.11699C8.59751 8.55723 8.59751 9.92285 8.59751 12.2049C8.59751 14.4869 8.58853 17.4607 8.57056 21.1354H13.1077V13.4986C13.1077 13.0314 13.1616 12.6541 13.2604 12.3756C13.4491 11.9084 13.7456 11.5131 14.1409 11.1986C14.5362 10.8842 15.0213 10.7225 15.5963 10.7225C16.387 10.7225 16.9709 11.001 17.3393 11.549C17.7077 12.0971 17.8963 12.8518 17.8963 13.8221V21.1354H22.4514V13.292C22.4514 11.2795 21.9752 9.74316 21.0139 8.70098Z" fill="#0077B5"/>
<path d="M3.81782 0.866211C3.05415 0.866211 2.43423 1.09082 1.95806 1.53105C1.48188 1.98027 1.24829 2.5373 1.24829 3.22012C1.24829 3.89395 1.48188 4.45098 1.94009 4.9002C2.39829 5.34941 3.00923 5.57402 3.76392 5.57402H3.79087C4.56353 5.57402 5.19243 5.34941 5.65962 4.9002C6.13579 4.45098 6.36938 3.88496 6.3604 3.22012C6.35142 2.5373 6.11782 1.98027 5.65962 1.53105C5.19243 1.09082 4.58149 0.866211 3.81782 0.866211Z" fill="#0077B5"/>
</svg>
